<?xml version="1.0" encoding="utf-8"?>
<!-- Generator: Adobe Illustrator 26.0.2, SVG Export Plug-In . SVG Version: 6.00 Build 0)  -->
<!-- 
Copyright (c) 2025 Bloxtor (http://bloxtor.com) and Joao Pinto (http://jplpinto.com)

Multi-licensed: BSD 3-Clause | Apache 2.0 | GNU LGPL v3 | HLNC License (http://bloxtor.com/LICENSE_HLNC.md)
Choose one license that best fits your needs.

Original Bloxtor Repo: https://github.com/a19836/bloxtor

YOU ARE NOT AUTHORIZED TO MODIFY OR REMOVE ANY PART OF THIS NOTICE!
-->
<svg version="1.1" xmlns="http://www.w3.org/2000/svg" xmlns:xlink="http://www.w3.org/1999/xlink" x="0px" y="0px"
	 viewBox="0 0 54 42" style="enable-background:new 0 0 54 42;" xml:space="preserve">
<style type="text/css">
	.st0{fill:#FFFFFF;}
	.st1{fill:#83889E;}
</style>
<g id="get_bean_object">
	<g>
		<path class="st0" d="M27,2.76C16.93,2.76,8.76,10.93,8.76,21S16.93,39.24,27,39.24S45.24,31.07,45.24,21S37.07,2.76,27,2.76z"/>
		<path class="st1" d="M29.27,16.26c-0.01,0-1.4,0.18-1.87,0.18c-0.47,0-1.86-0.18-1.87-0.18c-0.66-0.13-1.3,0.3-1.43,0.96
			c-0.13,0.66,0.3,1.3,0.96,1.43c0.06,0.01,1.11,0.23,2.34,0.23c1.34,0,2.28-0.22,2.34-0.23c0.66-0.13,1.09-0.77,0.96-1.43
			C30.57,16.55,29.93,16.12,29.27,16.26z"/>
		<path class="st1" d="M27,2.76C16.93,2.76,8.76,10.93,8.76,21S16.93,39.24,27,39.24S45.24,31.07,45.24,21S37.07,2.76,27,2.76z
			 M37.67,24.52c-3.33,2.48-5.93,3.32-10.32,3.32S20.35,27,17.02,24.52c-2.29-1.71-2.95-5.23-1.46-7.87
			c1.48-2.64,4.25-2.85,6.83-1.69c1.06,0.48,3.77,0.55,4.95,0.55c1.18,0,3.76,0.07,4.95-0.55c2.52-1.3,5.35-0.95,6.83,1.69
			C40.62,19.28,39.96,22.81,37.67,24.52z"/>
	</g>
</g>
</svg>
