<?xml version="1.0" encoding="utf-8"?>
<!-- Generator: Adobe Illustrator 23.0.1, SVG Export Plug-In . SVG Version: 6.00 Build 0)  -->
<!-- 
Copyright (c) 2025 Bloxtor (http://bloxtor.com) and Joao Pinto (http://jplpinto.com)

Multi-licensed: BSD 3-Clause | Apache 2.0 | GNU LGPL v3 | HLNC License (http://bloxtor.com/LICENSE_HLNC.md)
Choose one license that best fits your needs.

Original JQuery Layout UI Editor Repo: https://github.com/a19836/jquerylayoutuieditor/
Original Bloxtor Repo: https://github.com/a19836/bloxtor

YOU ARE NOT AUTHORIZED TO MODIFY OR REMOVE ANY PART OF THIS NOTICE!
-->
<svg version="1.1" id="Layer_1" xmlns="http://www.w3.org/2000/svg" xmlns:xlink="http://www.w3.org/1999/xlink" x="0px" y="0px"
	 viewBox="0 0 40 40" style="enable-background:new 0 0 40 40;" xml:space="preserve">
<style type="text/css">
	.st0{fill:#83889E;}
</style>
<title>20220503Asset 8</title>
<g>
	<g id="slider">
		<path class="st0" d="M38.4,0H1.6C0.7,0,0,0.7,0,1.6l0,0v36.8C0,39.3,0.7,40,1.6,40l0,0h36.8c0.9,0,1.6-0.7,1.6-1.6V1.6
			C40,0.7,39.3,0,38.4,0L38.4,0z M6.2,23.6c-0.1,0.1-0.3,0.2-0.4,0.2c-0.2,0-0.3-0.1-0.4-0.2l-3.1-3.2c-0.2-0.2-0.2-0.6,0-0.9
			l3.1-3.2c0.2-0.2,0.6-0.2,0.9,0c0.2,0.2,0.2,0.6,0,0.9L3.5,20l2.7,2.7C6.5,22.9,6.5,23.3,6.2,23.6L6.2,23.6z M10,22.7
			c0.2,0.2,0.3,0.6,0,0.9l0,0c-0.1,0.1-0.3,0.2-0.4,0.2c-0.2,0-0.3-0.1-0.5-0.2L6,20.4c-0.2-0.2-0.2-0.6,0-0.9l0,0l3.1-3.2
			c0.2-0.2,0.7-0.2,0.9,0s0.2,0.7,0,0.9l0,0L7.3,20L10,22.7z M28.4,24c0,1.5-1.3,2.8-2.8,2.8H14.4c-1.5,0-2.8-1.3-2.8-2.8v-8
			c0-1.5,1.3-2.8,2.8-2.8h11.2c1.5,0,2.8,1.3,2.8,2.8V24z M30.5,23.8c-0.3,0-0.6-0.3-0.6-0.6c0-0.2,0.1-0.3,0.2-0.5l2.7-2.7L30,17.3
			c-0.2-0.2-0.3-0.6,0-0.9l0,0c0.2-0.2,0.6-0.2,0.9,0l0,0l3.1,3.1c0.2,0.2,0.2,0.6,0,0.9l-3.1,3.2C30.8,23.7,30.6,23.8,30.5,23.8
			L30.5,23.8z M37.8,20.5l-3.1,3.1c-0.2,0.2-0.6,0.3-0.9,0s-0.3-0.6,0-0.9l0,0l2.7-2.7l-2.7-2.7c-0.2-0.2-0.3-0.6,0-0.9
			c0.2-0.2,0.6-0.3,0.9,0l3.1,3.1C38.1,19.8,38.1,20.2,37.8,20.5C37.8,20.4,37.8,20.4,37.8,20.5L37.8,20.5z"/>
		<path class="st0" d="M14.4,15.6h11.2c0.2,0,0.4,0.2,0.4,0.4v8c0,0.2-0.2,0.4-0.4,0.4H14.4c-0.2,0-0.4-0.2-0.4-0.4v-8
			C14,15.8,14.2,15.6,14.4,15.6z"/>
	</g>
</g>
</svg>
