<?xml version="1.0" encoding="utf-8"?>
<!-- 
Copyright (c) 2025 Bloxtor (http://bloxtor.com) and Joao Pinto (http://jplpinto.com)

Multi-licensed: BSD 3-Clause | Apache 2.0 | GNU LGPL v3 | HLNC License (http://bloxtor.com/LICENSE_HLNC.md)
Choose one license that best fits your needs.

Original JQuery Layout UI Editor Repo: https://github.com/a19836/jquerylayoutuieditor/
Original Bloxtor Repo: https://github.com/a19836/bloxtor

YOU ARE NOT AUTHORIZED TO MODIFY OR REMOVE ANY PART OF THIS NOTICE!
-->
<svg xmlns="http://www.w3.org/2000/svg" viewBox="0 0 512 512">
<style type="text/css">
	.st0{fill:#83889E;}
	.st1{fill:#83889E;}
</style>
<path class="st0" d="M64 32C28.7 32 0 60.7 0 96V416c0 35.3 28.7 64 64 64H448c35.3 0 64-28.7 64-64V96c0-35.3-28.7-64-64-64H64zm88 64v64H64V96h88zm56 0h88v64H208V96zm240 0v64H360V96h88zM64 224h88v64H64V224zm232 0v64H208V224h88zm64 0h88v64H360V224zM152 352v64H64V352h88zm56 0h88v64H208V352zm240 0v64H360V352h88z"/>
</svg>
