<?xml version="1.0" encoding="utf-8"?>
<!-- Generator: Adobe Illustrator 23.0.1, SVG Export Plug-In . SVG Version: 6.00 Build 0)  -->
<svg version="1.1" id="Layer_1" xmlns="http://www.w3.org/2000/svg" xmlns:xlink="http://www.w3.org/1999/xlink" x="0px" y="0px"
	 viewBox="0 0 40 40" style="enable-background:new 0 0 40 40;" xml:space="preserve">
<style type="text/css">
	.st0{fill:#83889E;}
	.st1{fill:#83889E;}
</style>
<title>Calendar Icon</title>
<g>
	<g id="calendar">
		<path class="st0" d="M 38.4,0 H 1.6 C 0.7,0 0,0.7 0,1.6 v 0 36.8 C 0,39.3 0.7,40 1.6,40 v 0 H 38.4 C 39.3,40 40,39.3 40,38.4 V 1.6 C 40,0.7 39.3,0 38.4,0 Z" />
		<path class="st" d="m 9.9198712,6.2967076 c -1.8750139,0 -3.3994578,1.7780983 -3.3994578,3.9651004 v 19.82549 c 0,2.187002 1.5244439,3.965101 3.3994578,3.965101 H 30.316626 c 1.875014,0 3.399458,-1.778099 3.399458,-3.965101 v -19.82549 c 0,-2.1870021 -1.524444,-3.9651004 -3.399458,-3.9651004 z m 4.6742558,3.9651004 v 3.965095 H 9.9198712 v -3.965095 z m 2.974528,0 h 4.674256 v 3.965095 h -4.674256 z m 12.747971,0 v 3.965095 H 25.642369 V 10.261808 Z M 9.9198712,18.192003 h 4.6742558 v 3.9651 H 9.9198712 Z m 12.3230398,0 v 3.9651 h -4.674256 v -3.9651 z m 3.399458,0 h 4.674257 v 3.9651 h -4.674257 z m -11.048242,7.9302 v 3.965095 H 9.9198712 v -3.965095 z m 2.974528,0 h 4.674256 v 3.965095 h -4.674256 z m 12.747971,0 v 3.965095 h -4.674257 v -3.965095 z" style="stroke-width:0.05736565; fill:#ffffff; fill-opacity:1" />
	</g>
</g>
</svg>
