<?xml version="1.0" encoding="UTF-8" standalone="no"?>
<!-- Generator: Adobe Illustrator 26.0.2, SVG Export Plug-In . SVG Version: 6.00 Build 0)  -->
<!-- 
Copyright (c) 2025 Bloxtor (http://bloxtor.com) and Joao Pinto (http://jplpinto.com)

Multi-licensed: BSD 3-Clause | Apache 2.0 | GNU LGPL v3 | HLNC License (http://bloxtor.com/LICENSE_HLNC.md)
Choose one license that best fits your needs.

Original Bloxtor Repo: https://github.com/a19836/bloxtor

YOU ARE NOT AUTHORIZED TO MODIFY OR REMOVE ANY PART OF THIS NOTICE!
-->

<svg
   xmlns:dc="http://purl.org/dc/elements/1.1/"
   xmlns:cc="http://creativecommons.org/ns#"
   xmlns:rdf="http://www.w3.org/1999/02/22-rdf-syntax-ns#"
   xmlns:svg="http://www.w3.org/2000/svg"
   xmlns="http://www.w3.org/2000/svg"
   xmlns:sodipodi="http://sodipodi.sourceforge.net/DTD/sodipodi-0.dtd"
   xmlns:inkscape="http://www.inkscape.org/namespaces/inkscape"
   version="1.1"
   x="0px"
   y="0px"
   viewBox="0 0 54 42"
   style="enable-background:new 0 0 54 42;"
   xml:space="preserve"
   id="svg9"
   sodipodi:docname="bg.svg"
   inkscape:version="0.92.3 (2405546, 2018-03-11)"><metadata
   id="metadata15"><rdf:RDF><cc:Work
       rdf:about=""><dc:format>image/svg+xml</dc:format><dc:type
         rdf:resource="http://purl.org/dc/dcmitype/StillImage" /></cc:Work></rdf:RDF></metadata><defs
   id="defs13" /><sodipodi:namedview
   pagecolor="#ffffff"
   bordercolor="#666666"
   borderopacity="1"
   objecttolerance="10"
   gridtolerance="10"
   guidetolerance="10"
   inkscape:pageopacity="0"
   inkscape:pageshadow="2"
   inkscape:window-width="1366"
   inkscape:window-height="670"
   id="namedview11"
   showgrid="false"
   inkscape:zoom="11.238095"
   inkscape:cx="32.013488"
   inkscape:cy="21.286017"
   inkscape:window-x="0"
   inkscape:window-y="27"
   inkscape:window-maximized="1"
   inkscape:current-layer="svg9" />
<style
   type="text/css"
   id="style2">
	.st0{fill:#FFFFFF;}
	.st1{fill:#83889E;}
</style>
<g
   id="if"
   transform="matrix(1.3020063,0,0,1.0608508,-8.0590259,-1.2333756)">
	<path
   class="st1"
   d="M 46.95,18.91 30.97,2.89 C 28.8,0.72 25.27,0.71 23.1,2.89 L 7.12,18.91 c 0,0 -1.8697575,2.006392 0,4.18 l 7.26,7.3 8.72,8.72 c 2.17,2.17 5.7,2.18 7.87,0 l 8.73,-8.71 1.73,-1.75 5.52,-5.56 c 1.601073,-2.103318 0,-4.18 0,-4.18 z M 27.82,35.96 c -0.43,0.43 -1.14,0.44 -1.57,0 L 12.07,21.79 c -0.44,-0.44 -0.43,-1.14 0,-1.57 L 26.25,6.04 c 0.43,-0.43 1.14,-0.44 1.57,0 L 42,20.21 c 0.44,0.44 0.43,1.14 0,1.57 z"
   id="path4"
   inkscape:connector-curvature="0"
   sodipodi:nodetypes="ccccccscccccsccssccss" />
</g>
<g
   transform="matrix(0.62339414,0,0,0.60211798,10.227607,8.4180665)"
   id="call_a_function"><path
     inkscape:connector-curvature="0"
     class="st1"
     d="m 46.36,18.63 c -0.14,-1.09 -1,-2.03 -2.08,-2.16 L 41.56,15.82 C 40.91,14 39.94,12.34 38.7,10.9 L 39.56,8.28 C 39.91,7.24 39.62,6.07 38.74,5.41 38.19,5 37.63,4.52 37.05,4.26 L 36.43,3.91 C 35.85,3.58 35.25,3.29 34.63,3.03 33.52,2.6 32.46,2.94 31.73,3.75 L 29.89,5.81 C 28.95,5.63 27.99,5.54 27,5.54 c -0.99,0 -1.95,0.09 -2.89,0.27 L 22.27,3.75 C 21.43,2.94 20.38,2.6 19.37,3.03 18.65,3.3 18.15,3.59 17.57,3.91 L 16.95,4.26 C 16.37,4.52 15.8,5 15.26,5.41 14.38,6.07 14.09,7.23 14.44,8.28 l 0.86,2.62 c -1.24,1.43 -2.22,3.1 -2.86,4.92 L 9.72,16.47 C 8.64,16.6 7.78,17.54 7.64,18.63 7.54,19.41 7.5,20.2 7.5,21 c 0,0.8 0.05,1.59 0.14,2.37 0.14,1.09 1,1.93 2.08,2.05 l 2.68,0.64 c 0.65,1.87 1.64,3.57 2.9,5.03 l -0.86,2.62 c -0.35,1.04 -0.06,2.21 0.82,2.87 0.55,0.41 1.1,0.68 1.68,1.14 l 0.63,0.36 c 0.58,0.33 1.18,0.62 1.8,0.88 1.01,0.43 2.07,0.09 2.9,-0.72 l 1.84,-2.06 c 0.94,0.18 1.9,0.27 2.89,0.27 0.99,0 1.95,-0.09 2.89,-0.27 l 1.84,2.06 c 0.73,0.81 1.79,1.15 2.9,0.72 0.51,-0.27 1.22,-0.56 1.8,-0.88 l 0.63,-0.36 c 0.58,-0.45 1.14,-0.73 1.68,-1.14 0.88,-0.66 1.17,-1.82 0.82,-2.87 L 38.7,31.09 c 1.26,-1.46 2.26,-3.17 2.9,-5.03 l 2.68,-0.64 c 1.08,-0.13 1.94,-0.96 2.08,-2.05 0.09,-0.78 0.14,-1.57 0.14,-2.37 0,-0.8 -0.04,-1.59 -0.14,-2.37 z m -21.35,3.11 h -1.99 c -0.17,1.57 -0.56,3.02 -1.14,4.21 -0.99,2.01 -2.45,3.12 -4.12,3.12 -0.96,0 -1.75,-0.78 -1.75,-1.75 0,-0.96 0.78,-1.75 1.75,-1.75 0.11,0 0.55,-0.28 0.99,-1.17 0.36,-0.73 0.62,-1.66 0.76,-2.67 h -1.77 c -0.96,0 -1.75,-0.78 -1.75,-1.75 0,-0.96 0.78,-1.75 1.75,-1.75 h 1.99 c 0.17,-1.57 0.56,-3.02 1.14,-4.21 0.99,-2.01 2.45,-3.12 4.12,-3.12 0.96,0 1.75,0.78 1.75,1.75 0,0.96 -0.78,1.75 -1.75,1.75 -0.11,0 -0.55,0.28 -0.99,1.17 -0.36,0.73 -0.62,1.66 -0.76,2.67 h 1.77 c 0.96,0 1.75,0.78 1.75,1.75 0,0.96 -0.79,1.75 -1.75,1.75 z m 4.45,5.69 c 0.38,0.15 0.57,0.59 0.42,0.97 -0.12,0.29 -0.4,0.47 -0.69,0.47 -0.09,0 -0.19,-0.02 -0.28,-0.05 -1.38,-0.55 -2,-2.8 -2,-4.78 0,-1.98 0.62,-4.22 2,-4.78 0.38,-0.15 0.82,0.03 0.97,0.42 0.15,0.38 -0.03,0.82 -0.42,0.97 -0.43,0.17 -1.06,1.48 -1.06,3.39 0,1.91 0.62,3.22 1.06,3.39 z m 5.9,-1.61 c 0.27,0.27 0.27,0.71 0,0.98 -0.14,0.14 -0.31,0.2 -0.49,0.2 -0.18,0 -0.35,-0.07 -0.49,-0.2 l -1.43,-1.43 -1.43,1.43 c -0.14,0.14 -0.31,0.2 -0.49,0.2 -0.18,0 -0.35,-0.07 -0.49,-0.2 -0.27,-0.27 -0.27,-0.71 0,-0.98 l 1.43,-1.43 -1.43,-1.43 c -0.27,-0.27 -0.27,-0.71 0,-0.98 0.27,-0.27 0.71,-0.27 0.98,0 l 1.43,1.43 1.43,-1.43 c 0.27,-0.27 0.71,-0.27 0.98,0 0.27,0.27 0.27,0.71 0,0.98 l -1.43,1.43 z m 1.63,3 c -0.09,0.04 -0.18,0.05 -0.28,0.05 -0.3,0 -0.58,-0.18 -0.69,-0.47 -0.15,-0.38 0.03,-0.82 0.42,-0.97 0.43,-0.17 1.06,-1.48 1.06,-3.39 0,-1.91 -0.63,-3.22 -1.06,-3.39 -0.38,-0.15 -0.57,-0.59 -0.42,-0.97 0.15,-0.38 0.59,-0.57 0.97,-0.42 1.38,0.55 2,2.8 2,4.78 0,1.98 -0.62,4.23 -2,4.78 z"
     id="path823" /></g></svg>
