<?xml version="1.0" encoding="utf-8"?>
<!-- Generator: Adobe Illustrator 26.0.2, SVG Export Plug-In . SVG Version: 6.00 Build 0)  -->
<svg version="1.1" xmlns="http://www.w3.org/2000/svg" xmlns:xlink="http://www.w3.org/1999/xlink" x="0px" y="0px"
	 viewBox="0 0 54 42" style="enable-background:new 0 0 54 42;" xml:space="preserve">
<style type="text/css">
	.st0{fill:#FFFFFF;}
	.st1{fill:#83889E;}
</style>
<g id="define_a_function">
	<g>
		<path class="st0" d="M27,2.76C16.93,2.76,8.76,10.93,8.76,21S16.93,39.24,27,39.24S45.24,31.07,45.24,21S37.07,2.76,27,2.76z"/>
		<g>
			<circle class="st1" cx="20.21" cy="17.43" r="2.06"/>
		</g>
		<g>
			<circle class="st1" cx="33.29" cy="25.04" r="2.06"/>
		</g>
		<g>
			<path class="st1" d="M27,2.76C16.93,2.76,8.76,10.93,8.76,21S16.93,39.24,27,39.24S45.24,31.07,45.24,21S37.07,2.76,27,2.76z
				 M24.92,22.12l-1.22-0.4c-0.46,0.38-0.99,0.69-1.56,0.9l-0.3,1.25c-0.05,0.4-0.36,0.72-0.76,0.77c-0.29,0.03-0.58,0.05-0.88,0.05
				c-0.3,0-0.59-0.02-0.88-0.05c-0.4-0.05-0.75-0.37-0.8-0.77l-0.3-1.25c-0.53-0.22-1.06-0.52-1.52-0.9l-1.21,0.4
				c-0.39,0.13-0.82,0.02-1.06-0.31c-0.15-0.2-0.29-0.41-0.42-0.63l-0.13-0.23c-0.12-0.22-0.23-0.44-0.33-0.67
				c-0.16-0.41-0.04-0.8,0.27-1.08l0.95-0.85c-0.05-0.29-0.11-0.59-0.11-0.94c0-0.27,0.06-0.57,0.11-0.86l-0.95-0.85
				c-0.3-0.31-0.43-0.7-0.27-1.08c0.1-0.27,0.21-0.45,0.33-0.67l0.13-0.23c0.13-0.22,0.27-0.43,0.42-0.63
				c0.25-0.32,0.68-0.43,1.06-0.31l1.21,0.4c0.46-0.38,0.99-0.69,1.52-0.9l0.3-1.25c0.05-0.4,0.4-0.72,0.8-0.77
				c0.29-0.03,0.58-0.05,0.88-0.05c0.3,0,0.59,0.02,0.88,0.05c0.4,0.05,0.71,0.37,0.76,0.77l0.3,1.25c0.57,0.21,1.1,0.52,1.56,0.9
				l1.22-0.4c0.39-0.13,0.82-0.02,1.06,0.31c0.15,0.2,0.25,0.41,0.42,0.63l0.13,0.23c0.12,0.22,0.23,0.44,0.33,0.67
				c0.16,0.37,0.03,0.77-0.27,1.08l-0.95,0.85c0.05,0.29,0.07,0.59,0.07,0.86c0,0.34-0.03,0.65-0.07,0.94l0.95,0.85
				c0.3,0.27,0.43,0.66,0.27,1.08c-0.1,0.19-0.21,0.45-0.33,0.67l-0.13,0.23c-0.17,0.22-0.27,0.42-0.42,0.62
				C25.74,22.14,25.31,22.25,24.92,22.12z M39.69,26.68l-1.25,0.3c-0.22,0.57-0.52,1.1-0.9,1.56l0.4,1.22
				c0.13,0.39,0.02,0.82-0.31,1.06c-0.2,0.15-0.41,0.25-0.62,0.42l-0.23,0.13c-0.22,0.12-0.48,0.23-0.67,0.33
				c-0.41,0.16-0.8,0.03-1.08-0.27l-0.85-0.95c-0.29,0.05-0.59,0.07-0.9,0.07s-0.61-0.03-0.9-0.07l-0.85,0.95
				c-0.31,0.3-0.7,0.43-1.08,0.27c-0.23-0.1-0.45-0.21-0.67-0.33l-0.23-0.13c-0.22-0.17-0.42-0.27-0.62-0.42
				c-0.33-0.25-0.43-0.68-0.31-1.06l0.4-1.22c-0.38-0.46-0.69-0.99-0.9-1.56l-1.25-0.3c-0.4-0.05-0.72-0.36-0.77-0.76
				c-0.03-0.29-0.05-0.58-0.05-0.88c0-0.3,0.02-0.59,0.05-0.88c0.05-0.4,0.37-0.75,0.77-0.8l1.25-0.3c0.22-0.53,0.52-1.06,0.9-1.52
				l-0.4-1.22c-0.13-0.39-0.02-0.82,0.31-1.06c0.2-0.15,0.41-0.33,0.63-0.43l0.23-0.13c0.22-0.12,0.4-0.23,0.67-0.33
				c0.37-0.16,0.77-0.03,1.08,0.27l0.85,0.95c0.29-0.05,0.59-0.07,0.9-0.07s0.61,0.03,0.9,0.07l0.85-0.95
				c0.27-0.3,0.66-0.43,1.08-0.27c0.23,0.1,0.45,0.21,0.67,0.33l0.23,0.13c0.22,0.09,0.43,0.28,0.63,0.43
				c0.33,0.25,0.43,0.68,0.31,1.06l-0.4,1.22c0.38,0.46,0.69,0.99,0.9,1.52l1.25,0.3c0.4,0.05,0.72,0.4,0.77,0.8
				c0.03,0.29,0.05,0.58,0.05,0.88c0,0.3-0.02,0.59-0.05,0.88C40.41,26.32,40.09,26.63,39.69,26.68z"/>
		</g>
	</g>
</g>
</svg>
