<?xml version="1.0" encoding="utf-8"?>
<!-- Generator: Adobe Illustrator 26.0.2, SVG Export Plug-In . SVG Version: 6.00 Build 0)  -->
<!-- 
Copyright (c) 2025 Bloxtor (http://bloxtor.com) and Joao Pinto (http://jplpinto.com)

Multi-licensed: BSD 3-Clause | Apache 2.0 | GNU LGPL v3 | HLNC License (http://bloxtor.com/LICENSE_HLNC.md)
Choose one license that best fits your needs.

Original Bloxtor Repo: https://github.com/a19836/bloxtor

YOU ARE NOT AUTHORIZED TO MODIFY OR REMOVE ANY PART OF THIS NOTICE!
-->
<svg version="1.1" xmlns="http://www.w3.org/2000/svg" xmlns:xlink="http://www.w3.org/1999/xlink" x="0px" y="0px"
	 viewBox="0 0 54 42" style="enable-background:new 0 0 54 42;" xml:space="preserve">
<style type="text/css">
	.st0{fill:#FFFFFF;}
	.st1{fill:#83889E;}
</style>
<g id="add_a_http_header">
	<path class="st0" d="M41.48,36.59c3.07,0,5.57-2.49,5.57-5.57V10.98c0-3.08-2.49-5.57-5.57-5.57H12.52c-3.07,0-5.57,2.49-5.57,5.57
		v20.04c0,3.08,2.49,5.57,5.57,5.57h26.73H41.48z"/>
	<path class="st1" d="M41.48,5.41H12.52c-3.07,0-5.57,2.49-5.57,5.57v20.04c0,3.08,2.49,5.57,5.57,5.57h26.73h2.22
		c3.07,0,5.57-2.49,5.57-5.57V10.98C47.04,7.9,44.55,5.41,41.48,5.41z M42.59,31.02c0,0.61-0.5,1.11-1.11,1.11h-2.06H12.52
		c-0.62,0-1.11-0.5-1.11-1.11V18.91h31.18V31.02z M42.59,14.74H11.41v-3.76c0-0.61,0.5-1.11,1.11-1.11h28.95
		c0.62,0,1.11,0.5,1.11,1.11V14.74z"/>
</g>
</svg>
