<?xml version="1.0" encoding="utf-8"?>
<!-- Generator: Adobe Illustrator 23.0.1, SVG Export Plug-In . SVG Version: 6.00 Build 0)  -->
<svg version="1.1" id="Layer_1" xmlns="http://www.w3.org/2000/svg" xmlns:xlink="http://www.w3.org/1999/xlink" x="0px" y="0px"
	 viewBox="0 0 40 40" style="enable-background:new 0 0 40 40;" xml:space="preserve">
<style type="text/css">
	.st0{fill:#83889E;}
</style>
<title>20220503Asset 5</title>
<g>
	<g id="Text_typed">
		<path class="st0" d="M38.4,0H1.6C0.7,0,0,0.7,0,1.6l0,0v36.8C0,39.3,0.7,40,1.6,40l0,0h36.8c0.9,0,1.6-0.7,1.6-1.6V1.6
			C40,0.7,39.3,0,38.4,0L38.4,0z M16.4,28.8H5.6c-0.7,0-1.2-0.5-1.2-1.2s0.5-1.2,1.2-1.2h10.8c0.7,0,1.2,0.5,1.2,1.2
			S17.1,28.8,16.4,28.8z M17.6,24H8c-0.7,0-1.2-0.5-1.2-1.2s0.5-1.2,1.2-1.2h9.6c0.7,0,1.2,0.5,1.2,1.2S18.3,24,17.6,24z M34.4,15.9
			c0,0.8-0.8,1.5-1.6,1.5s-1.4-0.7-1.5-1.5v-1.5h-3.1l-2.7,11.5H27c0.8,0,1.5,0.8,1.5,1.6S27.8,28.9,27,29h-6
			c-0.8,0-1.5-0.8-1.5-1.6s0.7-1.4,1.5-1.5h1.5l2.7-11.5h-3.1v1.5c0,0.8-0.7,1.5-1.5,1.5S19,16.7,19,15.9v-3.1
			c0-0.8,0.7-1.5,1.5-1.5l0,0h12.3c0.8,0,1.5,0.7,1.5,1.5L34.4,15.9L34.4,15.9z"/>
	</g>
</g>
</svg>
