<?xml version="1.0" encoding="utf-8"?>
<!-- Generator: Adobe Illustrator 23.0.1, SVG Export Plug-In . SVG Version: 6.00 Build 0)  -->
<!-- 
Copyright (c) 2025 Bloxtor (http://bloxtor.com) and Joao Pinto (http://jplpinto.com)

Multi-licensed: BSD 3-Clause | Apache 2.0 | GNU LGPL v3 | HLNC License (http://bloxtor.com/LICENSE_HLNC.md)
Choose one license that best fits your needs.

Original Bloxtor Repo: https://github.com/a19836/bloxtor

YOU ARE NOT AUTHORIZED TO MODIFY OR REMOVE ANY PART OF THIS NOTICE!
-->
<svg version="1.1" id="Layer_1" xmlns="http://www.w3.org/2000/svg" xmlns:xlink="http://www.w3.org/1999/xlink" x="0px" y="0px"
	 viewBox="0 0 40 40" style="enable-background:new 0 0 40 40;" xml:space="preserve">
<style type="text/css">
	.st0{fill:#83889E;}
</style>
<title>20220503Asset 4</title>
<g>
	<g id="import_region_html">
		<path class="st0" d="M26.8,13.5c-0.2-0.2-0.5-0.2-0.7,0s-0.2,0.5,0,0.7l2.6,2.6l-2.6,2.6c-0.2,0.2-0.2,0.5,0,0.7s0.5,0.2,0.7,0
			l3-3c0.2-0.2,0.2-0.5,0-0.7l0,0L26.8,13.5z"/>
		<path class="st0" d="M23,13.5c-0.2-0.2-0.5-0.2-0.7,0l0,0l-3,3c-0.2,0.2-0.2,0.5,0,0.7l0,0l3,3c0.2,0.2,0.5,0.2,0.7,0
			s0.2-0.5,0-0.7l-2.6-2.6l2.6-2.6C23.2,14,23.2,13.7,23,13.5L23,13.5z"/>
		<path class="st0" d="M38.4,0H1.6C0.7,0,0,0.7,0,1.6l0,0v36.8C0,39.3,0.7,40,1.6,40l0,0h36.8c0.9,0,1.6-0.7,1.6-1.6V1.6
			C40,0.7,39.3,0,38.4,0L38.4,0z M6.6,24.2H3.2c-0.4-0.1-0.7-0.5-0.6-0.9c0.1-0.3,0.3-0.6,0.6-0.6h3.4V24.2z M33.4,27.4
			c0,1.6-1.3,3-3,3H9.6c-1.6,0-3-1.3-3-3l0,0v-3.2h5.6L11,25.5c-0.2,0.4-0.2,0.9,0.2,1.1c0.3,0.2,0.6,0.2,0.9,0l2.6-2.6
			c0.3-0.3,0.3-0.8,0-1.1l-2.6-2.6c-0.2-0.4-0.7-0.5-1.1-0.2c-0.4,0.2-0.5,0.7-0.2,1.1c0.1,0.1,0.1,0.2,0.2,0.2l1.3,1.3H6.7v-10
			c0-1.6,1.3-3,3-3l0,0h20.9c1.6,0,3,1.3,3,3l0,0L33.4,27.4z"/>
	</g>
</g>
</svg>
