<?xml version="1.0" encoding="utf-8"?>
<!-- Generator: Adobe Illustrator 26.0.2, SVG Export Plug-In . SVG Version: 6.00 Build 0)  -->
<svg version="1.1" xmlns="http://www.w3.org/2000/svg" xmlns:xlink="http://www.w3.org/1999/xlink" x="0px" y="0px"
	 viewBox="0 0 54 42" style="enable-background:new 0 0 54 42;" xml:space="preserve">
<style type="text/css">
	.st0{fill:#FFFFFF;}
	.st1{fill:#83889E;}
</style>
<g id="call_a_function">
	<!--path class="st0" d="M46.36,18.63c-0.14-1.09-1-2.03-2.08-2.16l-2.72-0.65c-0.65-1.82-1.62-3.48-2.86-4.92l0.86-2.62
		c0.35-1.04,0.06-2.21-0.82-2.87c-0.55-0.41-1.11-0.89-1.69-1.15l-0.62-0.35c-0.58-0.33-1.18-0.62-1.8-0.88
		c-1.11-0.43-2.17-0.09-2.9,0.72l-1.84,2.06c-0.94-0.18-1.9-0.27-2.89-0.27s-1.95,0.09-2.89,0.27l-1.84-2.06
		c-0.84-0.81-1.89-1.15-2.9-0.72c-0.72,0.27-1.22,0.56-1.8,0.88l-0.62,0.35c-0.58,0.26-1.15,0.74-1.69,1.15
		c-0.88,0.66-1.17,1.82-0.82,2.87l0.86,2.62c-1.24,1.43-2.22,3.1-2.86,4.92l-2.72,0.65c-1.08,0.13-1.94,1.07-2.08,2.16
		C7.54,19.41,7.5,20.2,7.5,21s0.05,1.59,0.14,2.37c0.14,1.09,1,1.93,2.08,2.05l2.68,0.64c0.65,1.87,1.64,3.57,2.9,5.03l-0.86,2.62
		c-0.35,1.04-0.06,2.21,0.82,2.87c0.55,0.41,1.1,0.68,1.68,1.14l0.63,0.36c0.58,0.33,1.18,0.62,1.8,0.88
		c1.01,0.43,2.07,0.09,2.9-0.72l1.84-2.06c0.94,0.18,1.9,0.27,2.89,0.27c0.99,0,1.95-0.09,2.89-0.27l1.84,2.06
		c0.73,0.81,1.79,1.15,2.9,0.72c0.51-0.27,1.22-0.56,1.8-0.88l0.63-0.36c0.58-0.45,1.14-0.73,1.68-1.14
		c0.88-0.66,1.17-1.82,0.82-2.87l-0.86-2.62c1.26-1.46,2.26-3.17,2.9-5.03l2.68-0.64c1.08-0.13,1.94-0.96,2.08-2.05
		c0.09-0.78,0.14-1.57,0.14-2.37S46.46,19.41,46.36,18.63z"/-->
	<path class="st1" d="M46.36,18.63c-0.14-1.09-1-2.03-2.08-2.16l-2.72-0.65c-0.65-1.82-1.62-3.48-2.86-4.92l0.86-2.62
		c0.35-1.04,0.06-2.21-0.82-2.87c-0.55-0.41-1.11-0.89-1.69-1.15l-0.62-0.35c-0.58-0.33-1.18-0.62-1.8-0.88
		c-1.11-0.43-2.17-0.09-2.9,0.72l-1.84,2.06c-0.94-0.18-1.9-0.27-2.89-0.27c-0.99,0-1.95,0.09-2.89,0.27l-1.84-2.06
		c-0.84-0.81-1.89-1.15-2.9-0.72c-0.72,0.27-1.22,0.56-1.8,0.88l-0.62,0.35c-0.58,0.26-1.15,0.74-1.69,1.15
		c-0.88,0.66-1.17,1.82-0.82,2.87l0.86,2.62c-1.24,1.43-2.22,3.1-2.86,4.92l-2.72,0.65c-1.08,0.13-1.94,1.07-2.08,2.16
		C7.54,19.41,7.5,20.2,7.5,21c0,0.8,0.05,1.59,0.14,2.37c0.14,1.09,1,1.93,2.08,2.05l2.68,0.64c0.65,1.87,1.64,3.57,2.9,5.03
		l-0.86,2.62c-0.35,1.04-0.06,2.21,0.82,2.87c0.55,0.41,1.1,0.68,1.68,1.14l0.63,0.36c0.58,0.33,1.18,0.62,1.8,0.88
		c1.01,0.43,2.07,0.09,2.9-0.72l1.84-2.06c0.94,0.18,1.9,0.27,2.89,0.27s1.95-0.09,2.89-0.27l1.84,2.06
		c0.73,0.81,1.79,1.15,2.9,0.72c0.51-0.27,1.22-0.56,1.8-0.88l0.63-0.36c0.58-0.45,1.14-0.73,1.68-1.14
		c0.88-0.66,1.17-1.82,0.82-2.87l-0.86-2.62c1.26-1.46,2.26-3.17,2.9-5.03l2.68-0.64c1.08-0.13,1.94-0.96,2.08-2.05
		c0.09-0.78,0.14-1.57,0.14-2.37C46.5,20.2,46.46,19.41,46.36,18.63z M25.01,21.74h-1.99c-0.17,1.57-0.56,3.02-1.14,4.21
		c-0.99,2.01-2.45,3.12-4.12,3.12c-0.96,0-1.75-0.78-1.75-1.75c0-0.96,0.78-1.75,1.75-1.75c0.11,0,0.55-0.28,0.99-1.17
		c0.36-0.73,0.62-1.66,0.76-2.67h-1.77c-0.96,0-1.75-0.78-1.75-1.75c0-0.96,0.78-1.75,1.75-1.75h1.99c0.17-1.57,0.56-3.02,1.14-4.21
		c0.99-2.01,2.45-3.12,4.12-3.12c0.96,0,1.75,0.78,1.75,1.75c0,0.96-0.78,1.75-1.75,1.75c-0.11,0-0.55,0.28-0.99,1.17
		c-0.36,0.73-0.62,1.66-0.76,2.67h1.77c0.96,0,1.75,0.78,1.75,1.75C26.76,20.95,25.97,21.74,25.01,21.74z M29.46,27.43
		c0.38,0.15,0.57,0.59,0.42,0.97c-0.12,0.29-0.4,0.47-0.69,0.47c-0.09,0-0.19-0.02-0.28-0.05c-1.38-0.55-2-2.8-2-4.78
		c0-1.98,0.62-4.22,2-4.78c0.38-0.15,0.82,0.03,0.97,0.42c0.15,0.38-0.03,0.82-0.42,0.97c-0.43,0.17-1.06,1.48-1.06,3.39
		S29.02,27.26,29.46,27.43z M35.36,25.82c0.27,0.27,0.27,0.71,0,0.98c-0.14,0.14-0.31,0.2-0.49,0.2s-0.35-0.07-0.49-0.2l-1.43-1.43
		l-1.43,1.43c-0.14,0.14-0.31,0.2-0.49,0.2c-0.18,0-0.35-0.07-0.49-0.2c-0.27-0.27-0.27-0.71,0-0.98l1.43-1.43l-1.43-1.43
		c-0.27-0.27-0.27-0.71,0-0.98c0.27-0.27,0.71-0.27,0.98,0l1.43,1.43l1.43-1.43c0.27-0.27,0.71-0.27,0.98,0
		c0.27,0.27,0.27,0.71,0,0.98l-1.43,1.43L35.36,25.82z M36.99,28.82c-0.09,0.04-0.18,0.05-0.28,0.05c-0.3,0-0.58-0.18-0.69-0.47
		c-0.15-0.38,0.03-0.82,0.42-0.97c0.43-0.17,1.06-1.48,1.06-3.39s-0.63-3.22-1.06-3.39c-0.38-0.15-0.57-0.59-0.42-0.97
		c0.15-0.38,0.59-0.57,0.97-0.42c1.38,0.55,2,2.8,2,4.78C38.99,26.02,38.37,28.27,36.99,28.82z"/>
</g>
</svg>
