<?xml version="1.0" encoding="utf-8"?>
<!-- Generator: Adobe Illustrator 26.0.2, SVG Export Plug-In . SVG Version: 6.00 Build 0)  -->
<svg version="1.1" xmlns="http://www.w3.org/2000/svg" xmlns:xlink="http://www.w3.org/1999/xlink" x="0px" y="0px"
	 viewBox="0 0 54 42" style="enable-background:new 0 0 54 42;" xml:space="preserve">
<style type="text/css">
	.st0{fill:#FFFFFF;}
	.st1{fill:#4070FF;}
</style>
<g id="User_generated_1">
	<g>
		<!--path class="st0" d="M27,2.76C16.93,2.76,8.76,10.93,8.76,21c0,10.07,8.16,18.24,18.24,18.24S45.24,31.07,45.24,21
			C45.24,10.93,37.07,2.76,27,2.76z"/-->
		<path class="st1" d="M27,2.76C16.93,2.76,8.76,10.93,8.76,21c0,10.07,8.16,18.24,18.24,18.24S45.24,31.07,45.24,21
			C45.24,10.93,37.07,2.76,27,2.76z M27,34c-7.18,0-13-5.82-13-13S19.82,8,27,8s13,5.82,13,13S34.18,34,27,34z"/>
		<path class="st1" d="M27,11.25c-5.43,0-9.75,4.32-9.75,9.75c0,5.38,4.32,9.75,9.75,9.75c5.38,0,9.75-4.37,9.75-9.75
			C36.75,15.57,32.38,11.25,27,11.25z M27,28.31c-4.04,0-7.31-3.28-7.31-7.31s3.28-7.31,7.31-7.31s7.31,3.28,7.31,7.31
			S31.04,28.31,27,28.31z"/>
		<path class="st1" d="M27,16.94c-2.24,0-4.06,1.82-4.06,4.06c0,2.24,1.82,4.06,4.06,4.06s4.06-1.82,4.06-4.06
			C31.06,18.76,29.24,16.94,27,16.94z M27,22.62c-0.9,0-1.62-0.73-1.62-1.62c0-0.9,0.73-1.62,1.62-1.62s1.62,0.73,1.62,1.62
			C28.62,21.9,27.9,22.62,27,22.62z"/>
	</g>
</g>
</svg>
