<?xml version="1.0" encoding="utf-8"?>
<!-- Generator: Adobe Illustrator 26.0.2, SVG Export Plug-In . SVG Version: 6.00 Build 0)  -->
<svg version="1.1" xmlns="http://www.w3.org/2000/svg" xmlns:xlink="http://www.w3.org/1999/xlink" x="0px" y="0px"
	 viewBox="0 0 54 42" style="enable-background:new 0 0 54 42;" xml:space="preserve">
<style type="text/css">
	.st0{fill:#FFFFFF;}
	.st1{fill:#4070FF;}
</style>
<g id="call_ibatis_rule">
	<g>
		<path class="st0" d="M46.36,18.63c-0.14-1.09-1-2.03-2.08-2.16l-2.72-0.65c-0.65-1.82-1.62-3.48-2.86-4.92l0.86-2.62
			c0.35-1.04,0.06-2.21-0.82-2.87c-0.55-0.41-1.11-0.89-1.69-1.15l-0.62-0.35c-0.58-0.33-1.18-0.62-1.8-0.88
			c-1.11-0.43-2.17-0.09-2.9,0.72l-1.84,2.06c-0.94-0.18-1.9-0.27-2.89-0.27s-1.95,0.09-2.89,0.27l-1.84-2.06
			c-0.84-0.81-1.89-1.15-2.9-0.72c-0.72,0.27-1.22,0.56-1.8,0.88l-0.62,0.35c-0.58,0.26-1.15,0.74-1.69,1.15
			c-0.88,0.66-1.17,1.82-0.82,2.87l0.86,2.62c-1.24,1.43-2.22,3.1-2.86,4.92l-2.72,0.65c-1.08,0.13-1.94,1.07-2.08,2.16
			C7.54,19.41,7.5,20.2,7.5,21s0.05,1.59,0.14,2.37c0.14,1.09,1,1.93,2.08,2.05l2.68,0.64c0.65,1.87,1.64,3.57,2.9,5.03l-0.86,2.62
			c-0.35,1.04-0.06,2.21,0.82,2.87c0.55,0.41,1.1,0.68,1.68,1.14l0.63,0.36c0.58,0.33,1.18,0.62,1.8,0.88
			c1.01,0.43,2.07,0.09,2.9-0.72l1.84-2.06c0.94,0.18,1.9,0.27,2.89,0.27c0.99,0,1.95-0.09,2.89-0.27l1.84,2.06
			c0.73,0.81,1.79,1.15,2.9,0.72c0.51-0.27,1.22-0.56,1.8-0.88l0.63-0.36c0.58-0.45,1.14-0.73,1.68-1.14
			c0.88-0.66,1.17-1.82,0.82-2.87l-0.86-2.62c1.26-1.46,2.26-3.17,2.9-5.03l2.68-0.64c1.08-0.13,1.94-0.96,2.08-2.05
			c0.09-0.78,0.14-1.57,0.14-2.37S46.46,19.41,46.36,18.63z"/>
		<path class="st1" d="M31.3,21.96c-0.38-0.32-0.88-0.48-1.5-0.48h-2.42v3.5h2.48c0.62,0,1.11-0.15,1.47-0.45
			c0.35-0.3,0.53-0.72,0.53-1.26C31.86,22.72,31.67,22.28,31.3,21.96z"/>
		<path class="st1" d="M31.06,19.56c0.34-0.27,0.51-0.67,0.51-1.19c0-0.51-0.17-0.9-0.51-1.18c-0.34-0.28-0.81-0.43-1.41-0.43h-2.27
			v3.21h2.27C30.25,19.97,30.72,19.84,31.06,19.56z"/>
		<path class="st1" d="M46.36,18.63c-0.14-1.09-1-2.03-2.08-2.16l-2.72-0.65c-0.65-1.82-1.62-3.48-2.86-4.92l0.86-2.62
			c0.35-1.04,0.06-2.21-0.82-2.87c-0.55-0.41-1.11-0.89-1.69-1.15l-0.62-0.35c-0.58-0.33-1.18-0.62-1.8-0.88
			c-1.11-0.43-2.17-0.09-2.9,0.72l-1.84,2.06c-0.94-0.18-1.9-0.27-2.89-0.27c-0.99,0-1.95,0.09-2.89,0.27l-1.84-2.06
			c-0.84-0.81-1.89-1.15-2.9-0.72c-0.72,0.27-1.22,0.56-1.8,0.88l-0.62,0.35c-0.58,0.26-1.15,0.74-1.69,1.15
			c-0.88,0.66-1.17,1.82-0.82,2.87l0.86,2.62c-1.24,1.43-2.22,3.1-2.86,4.92l-2.72,0.65c-1.08,0.13-1.94,1.07-2.08,2.16
			C7.54,19.41,7.5,20.2,7.5,21s0.05,1.59,0.14,2.37c0.14,1.09,1,1.93,2.08,2.05l2.68,0.64c0.65,1.87,1.64,3.57,2.9,5.03l-0.86,2.62
			c-0.35,1.04-0.06,2.21,0.82,2.87c0.55,0.41,1.1,0.68,1.68,1.14l0.63,0.36c0.58,0.33,1.18,0.62,1.8,0.88
			c1.01,0.43,2.07,0.09,2.9-0.72l1.84-2.06c0.94,0.18,1.9,0.27,2.89,0.27s1.95-0.09,2.89-0.27l1.84,2.06
			c0.73,0.81,1.79,1.15,2.9,0.72c0.51-0.27,1.22-0.56,1.8-0.88l0.63-0.36c0.58-0.45,1.14-0.73,1.68-1.14
			c0.88-0.66,1.17-1.82,0.82-2.87l-0.86-2.62c1.26-1.46,2.26-3.17,2.9-5.03l2.68-0.64c1.08-0.13,1.94-0.96,2.08-2.05
			c0.09-0.78,0.14-1.57,0.14-2.37S46.46,19.41,46.36,18.63z M23.12,26.47h-1.84v-8.88h1.84V26.47z M23.04,16.07
			c-0.23,0.23-0.5,0.34-0.82,0.34c-0.33,0-0.61-0.11-0.84-0.34c-0.23-0.23-0.34-0.51-0.34-0.84c0-0.33,0.11-0.61,0.34-0.84
			c0.23-0.23,0.51-0.34,0.84-0.34c0.32,0,0.6,0.11,0.82,0.34c0.23,0.23,0.34,0.51,0.34,0.84C23.38,15.57,23.27,15.85,23.04,16.07z
			 M33.26,25c-0.3,0.46-0.72,0.82-1.28,1.08c-0.56,0.26-1.21,0.39-1.95,0.39h-4.48V15.27h4.27c0.76,0,1.42,0.13,1.97,0.39
			c0.55,0.26,0.96,0.6,1.24,1.04c0.28,0.44,0.42,0.92,0.42,1.46c0,0.64-0.17,1.18-0.52,1.61c-0.34,0.43-0.81,0.75-1.39,0.95
			c0.6,0.11,1.11,0.42,1.53,0.95c0.42,0.53,0.63,1.12,0.63,1.79C33.7,24.03,33.55,24.54,33.26,25z"/>
	</g>
</g>
</svg>
