<?xml version="1.0" encoding="utf-8"?>
<!-- Generator: Adobe Illustrator 23.0.1, SVG Export Plug-In . SVG Version: 6.00 Build 0)  -->
<!-- 
Copyright (c) 2025 Bloxtor (http://bloxtor.com) and Joao Pinto (http://jplpinto.com)

Multi-licensed: BSD 3-Clause | Apache 2.0 | GNU LGPL v3 | HLNC License (http://bloxtor.com/LICENSE_HLNC.md)
Choose one license that best fits your needs.

Original JQuery Layout UI Editor Repo: https://github.com/a19836/jquerylayoutuieditor/
Original Bloxtor Repo: https://github.com/a19836/bloxtor

YOU ARE NOT AUTHORIZED TO MODIFY OR REMOVE ANY PART OF THIS NOTICE!
-->
<svg version="1.1" id="Layer_1" xmlns="http://www.w3.org/2000/svg" xmlns:xlink="http://www.w3.org/1999/xlink" x="0px" y="0px"
	 viewBox="0 0 40 40" style="enable-background:new 0 0 40 40;" xml:space="preserve">
<style type="text/css">
	.st0{fill:#83889E;}
</style>
<title>20220503Asset 18</title>
<g>
	<g id="include_stylesheet_tag">
		<path class="st0" d="M38.4,0H1.6C0.7,0,0,0.7,0,1.6l0,0v36.8C0,39.3,0.7,40,1.6,40l0,0h36.8c0.9,0,1.6-0.7,1.6-1.6V1.6
			C40,0.7,39.3,0,38.4,0L38.4,0z M12.3,26.7c0.5,0.5,0.5,1.3,0,1.8s-1.3,0.5-1.8,0L3,20.9c-0.5-0.5-0.5-1.3,0-1.8l7.6-7.6
			c0.5-0.5,1.3-0.5,1.8,0s0.5,1.3,0,1.8L5.6,20L12.3,26.7z M25.2,24c-0.2,1.1-0.9,2.1-1.9,2.7c-0.9,0.4-1.8,0.7-2.8,0.6
			c-1,0-2-0.2-3-0.4c-0.8-0.2-1.5-0.4-2.2-0.7c-0.2-0.1-0.4-0.3-0.6-0.6c-0.1-0.3-0.1-0.6,0-0.8c0.1-0.3,0.3-0.5,0.6-0.6
			s0.5-0.1,0.8,0c1.2,0.5,2.4,0.8,3.6,1c1.1,0.1,1.9,0,2.5-0.3c0.4-0.2,0.7-0.7,0.8-1.2c0.2-0.6-0.1-1.2-0.6-1.5
			c-0.9-0.5-1.9-0.9-2.9-1.1c-0.8-0.2-1.6-0.5-2.4-0.9c-0.8-0.3-1.5-0.8-2-1.5s-0.7-1.6-0.5-2.7c0.2-1,0.8-2,1.7-2.5
			c1.5-1,3.8-1.1,6.8-0.3c0.3,0.1,0.5,0.3,0.6,0.5c0.2,0.2,0.2,0.5,0.1,0.8c-0.1,0.3-0.2,0.5-0.5,0.6s-0.5,0.2-0.8,0.1
			c-1.1-0.3-2.3-0.5-3.4-0.5c-0.6,0-1.2,0.2-1.7,0.5c-0.4,0.2-0.7,0.7-0.8,1.1c-0.2,0.6,0.1,1.2,0.6,1.5c0.9,0.5,1.9,0.9,2.9,1.1
			c0.8,0.2,1.6,0.5,2.4,0.9c0.8,0.3,1.5,0.8,2,1.5C25.2,22,25.4,22.9,25.2,24z M37,20.9l-7.6,7.6c-0.5,0.5-1.3,0.5-1.8,0
			s-0.5-1.3,0-1.8l6.7-6.7l-6.7-6.7c-0.5-0.5-0.5-1.3,0-1.8s1.3-0.5,1.8,0l7.6,7.6C37.5,19.6,37.5,20.4,37,20.9L37,20.9z"/>
	</g>
</g>
</svg>
