<?xml version="1.0" encoding="utf-8"?>
<!-- Generator: Adobe Illustrator 23.0.1, SVG Export Plug-In . SVG Version: 6.00 Build 0)  -->
<svg version="1.1" id="Layer_1" xmlns="http://www.w3.org/2000/svg" xmlns:xlink="http://www.w3.org/1999/xlink" x="0px" y="0px"
	 viewBox="0 0 40 40" style="enable-background:new 0 0 40 40;" xml:space="preserve">
<style type="text/css">
	.st0{fill:#83889E;}
</style>
<title>20220503Asset 22</title>
<g>
	<g id="nav_menu">
		<path class="st0" d="M38.4,0H1.6C0.7,0,0,0.7,0,1.6l0,0v36.8C0,39.3,0.7,40,1.6,40l0,0h36.8c0.9,0,1.6-0.7,1.6-1.6V1.6
			C40,0.7,39.3,0,38.4,0L38.4,0z M30.3,30.3H9.7c-0.9,0-1.8-0.7-1.8-1.6c0-0.9,0.7-1.8,1.6-1.8c0.1,0,0.1,0,0.2,0h20.6
			c0.9,0,1.8,0.7,1.8,1.6c0,0.9-0.7,1.8-1.6,1.8C30.4,30.3,30.3,30.3,30.3,30.3z M30.3,21.7H9.7C8.8,21.7,8,20.9,8,20
			s0.8-1.7,1.7-1.7h20.6c0.9,0,1.7,0.8,1.7,1.7S31.2,21.7,30.3,21.7L30.3,21.7z M30.3,13.1H9.7c-0.9,0-1.8-0.7-1.8-1.6
			c0-0.9,0.7-1.8,1.6-1.8c0.1,0,0.1,0,0.2,0h20.6c0.9,0,1.8,0.7,1.8,1.6c0,0.9-0.7,1.8-1.6,1.8C30.4,13.1,30.3,13.1,30.3,13.1z"/>
	</g>
</g>
</svg>
