<?xml version="1.0" encoding="utf-8"?>
<!-- Generator: Adobe Illustrator 26.0.2, SVG Export Plug-In . SVG Version: 6.00 Build 0)  -->
<svg version="1.1" xmlns="http://www.w3.org/2000/svg" xmlns:xlink="http://www.w3.org/1999/xlink" x="0px" y="0px"
	 viewBox="0 0 54 42" style="enable-background:new 0 0 54 42;" xml:space="preserve">
<style type="text/css">
	.st0{fill:#FFFFFF;}
	.st1{fill:#4070FF;}
</style>
<g id="if">
	<path class="st1" d="M54.11,21L54.11,21c0-1.15-0.93-2.09-2.09-2.09h-5.07L30.97,2.89c-2.17-2.17-5.7-2.18-7.87,0L7.12,18.91H1.98
		c-1.15,0-2.09,0.93-2.09,2.09v0c0,1.15,0.93,2.09,2.09,2.09h5.14l7.26,7.3l8.72,8.72c2.17,2.17,5.7,2.18,7.87,0l8.73-8.71
		l1.73-1.75l5.52-5.56h5.07C53.17,23.09,54.11,22.15,54.11,21z M27.82,35.96c-0.43,0.43-1.14,0.44-1.57,0L12.07,21.79
		c-0.44-0.44-0.43-1.14,0-1.57L26.25,6.04c0.43-0.43,1.14-0.44,1.57,0L42,20.21c0.44,0.44,0.43,1.14,0,1.57L27.82,35.96z"/>
	<path class="st0" d="M27.82,35.96c-0.43,0.43-1.14,0.44-1.57,0L12.07,21.79c-0.44-0.44-0.43-1.14,0-1.57L26.25,6.04
		c0.43-0.43,1.14-0.44,1.57,0L42,20.21c0.44,0.44,0.43,1.14,0,1.57L27.82,35.96z"/>
</g>
</svg>
