<?xml version="1.0" encoding="utf-8"?>
<!-- Generator: Adobe Illustrator 23.0.1, SVG Export Plug-In . SVG Version: 6.00 Build 0)  -->
<svg version="1.1" id="Layer_1" xmlns="http://www.w3.org/2000/svg" xmlns:xlink="http://www.w3.org/1999/xlink" x="0px" y="0px"
	 viewBox="0 0 40 40" style="enable-background:new 0 0 40 40;" xml:space="preserve">
<style type="text/css">
	.st0{fill:#83889E;}
</style>
<title>20220503Asset 34</title>
<g>
	<g id="text_area">
		<path class="st0" d="M38.4,0H1.6C0.7,0,0,0.7,0,1.6l0,0v36.8C0,39.3,0.7,40,1.6,40l0,0h36.8c0.9,0,1.6-0.7,1.6-1.6V1.6
			C40,0.7,39.3,0,38.4,0L38.4,0z M22.1,6h4.2c0.7,0,1.2,0.5,1.2,1.2S27,8.4,26.3,8.4h-4.2c-0.7,0-1.2-0.5-1.2-1.2S21.5,6,22.1,6z
			 M13.6,6h4.2C18.5,6,19,6.5,19,7.2s-0.5,1.2-1.2,1.2h-4.2c-0.7,0-1.2-0.5-1.2-1.2S13,6,13.6,6z M5.8,13.8c0-0.7,0.5-1.2,1.2-1.2
			s1.2,0.5,1.2,1.2V18c0,0.7-0.5,1.2-1.2,1.2S5.8,18.7,5.8,18V13.8z M5.8,22.3c0-0.7,0.5-1.2,1.2-1.2s1.2,0.5,1.2,1.2l0,0v4.2
			c0,0.7-0.5,1.2-1.2,1.2s-1.2-0.5-1.2-1.2V22.3z M9.4,34.4H7c-0.7,0-1.2-0.5-1.2-1.2v-2.4c0-0.7,0.5-1.2,1.2-1.2s1.2,0.5,1.2,1.2
			V32h1.2c0.7,0,1.2,0.5,1.2,1.2S10.1,34.4,9.4,34.4z M9.4,8.4H8.2v1.2c0,0.7-0.5,1.2-1.2,1.2s-1.2-0.5-1.2-1.2V7.2
			C5.8,6.5,6.3,6,7,6h2.4c0.7,0,1.2,0.5,1.2,1.2S10.1,8.4,9.4,8.4z M17.9,34.4h-4.2c-0.7,0-1.2-0.5-1.2-1.2S13,32,13.6,32h4.2
			c0.7,0,1.2,0.5,1.2,1.2S18.5,34.4,17.9,34.4z M26.4,34.4h-4.2c-0.7,0-1.2-0.5-1.2-1.2s0.5-1.2,1.2-1.2h4.2c0.7,0,1.2,0.5,1.2,1.2
			S27,34.4,26.4,34.4z M27.7,15.8c0,0.8-0.6,1.6-1.5,1.6c-0.8,0-1.6-0.6-1.6-1.5c0-0.1,0-0.1,0-0.2v-1.5h-3.1v11.5H23
			c0.8,0,1.6,0.6,1.6,1.5c0,0.8-0.6,1.6-1.5,1.6c-0.1,0-0.1,0-0.2,0h-6.1c-0.8,0-1.6-0.6-1.6-1.5c0-0.8,0.6-1.6,1.5-1.6
			c0.1,0,0.1,0,0.2,0h1.5V14.3h-3.1v1.5c0,0.8-0.6,1.6-1.5,1.6c-0.8,0-1.6-0.6-1.6-1.5c0-0.1,0-0.1,0-0.2v-3.1
			c0-0.8,0.7-1.5,1.5-1.5H26c0.8,0,1.5,0.7,1.5,1.5l0,0L27.7,15.8z M34.2,33.2c0,0.7-0.5,1.2-1.2,1.2h-2.4c-0.7,0-1.2-0.5-1.2-1.2
			s0.5-1.2,1.2-1.2h1.2v-1.2c0-0.7,0.5-1.2,1.2-1.2s1.2,0.5,1.2,1.2V33.2z M34.2,26.6c0,0.7-0.5,1.2-1.2,1.2s-1.2-0.5-1.2-1.2v-4.2
			c0-0.7,0.5-1.2,1.2-1.2s1.2,0.5,1.2,1.2l0,0V26.6z M34.2,18.1c0,0.7-0.5,1.2-1.2,1.2s-1.2-0.5-1.2-1.2v-4.2c0-0.7,0.5-1.2,1.2-1.2
			s1.2,0.5,1.2,1.2V18.1z M34.2,9.6c0,0.7-0.5,1.2-1.2,1.2s-1.2-0.5-1.2-1.2V8.4h-1.2c-0.7,0-1.2-0.5-1.2-1.2S29.9,6,30.6,6H33
			c0.7,0,1.2,0.5,1.2,1.2V9.6z"/>
	</g>
</g>
</svg>
