<?xml version="1.0" encoding="utf-8"?>
<!-- Generator: Adobe Illustrator 23.0.1, SVG Export Plug-In . SVG Version: 6.00 Build 0)  -->
<!-- 
Copyright (c) 2025 Bloxtor (http://bloxtor.com) and Joao Pinto (http://jplpinto.com)

Multi-licensed: BSD 3-Clause | Apache 2.0 | GNU LGPL v3 | HLNC License (http://bloxtor.com/LICENSE_HLNC.md)
Choose one license that best fits your needs.

Original JQuery Layout UI Editor Repo: https://github.com/a19836/jquerylayoutuieditor/
Original Bloxtor Repo: https://github.com/a19836/bloxtor

YOU ARE NOT AUTHORIZED TO MODIFY OR REMOVE ANY PART OF THIS NOTICE!
-->
<svg version="1.1" id="Layer_1" xmlns="http://www.w3.org/2000/svg" xmlns:xlink="http://www.w3.org/1999/xlink" x="0px" y="0px"
	 viewBox="0 0 40 40" style="enable-background:new 0 0 40 40;" xml:space="preserve">
<style type="text/css">
	.st0{fill:#83889E;}
</style>
<title>20220503Asset 7</title>
<g>
	<g id="tabs">
		<path class="st0" d="M19.4,14.6v-2.7h-7.8v2.7c0,0.7-0.5,1.2-1.2,1.2H8.2v12.3h23.6V15.8H20.6C19.9,15.8,19.4,15.3,19.4,14.6
			L19.4,14.6z"/>
		<path class="st0" d="M38.4,0H1.6C0.7,0,0,0.7,0,1.6l0,0v36.8C0,39.3,0.7,40,1.6,40l0,0h36.8c0.9,0,1.6-0.7,1.6-1.6V1.6
			C40,0.7,39.3,0,38.4,0L38.4,0z M34.2,29.3c0,0.7-0.5,1.2-1.2,1.2H7c-0.7,0-1.2-0.5-1.2-1.2V14.6c0-0.7,0.5-1.2,1.2-1.2h2.2v-1.7
			c0-1.2,1-2.2,2.2-2.2l0,0h8.1c1.2,0,2.2,1,2.2,2.2v1.7H33c0.7,0,1.2,0.5,1.2,1.2V29.3z"/>
	</g>
</g>
</svg>
