<?xml version="1.0" encoding="utf-8"?>
<!-- Generator: Adobe Illustrator 23.0.1, SVG Export Plug-In . SVG Version: 6.00 Build 0)  -->
<!-- 
Copyright (c) 2025 Bloxtor (http://bloxtor.com) and Joao Pinto (http://jplpinto.com)

Multi-licensed: BSD 3-Clause | Apache 2.0 | GNU LGPL v3 | HLNC License (http://bloxtor.com/LICENSE_HLNC.md)
Choose one license that best fits your needs.

Original JQuery Layout UI Editor Repo: https://github.com/a19836/jquerylayoutuieditor/
Original Bloxtor Repo: https://github.com/a19836/bloxtor

YOU ARE NOT AUTHORIZED TO MODIFY OR REMOVE ANY PART OF THIS NOTICE!
-->
<svg version="1.1" id="Layer_1" xmlns="http://www.w3.org/2000/svg" xmlns:xlink="http://www.w3.org/1999/xlink" x="0px" y="0px"
	 viewBox="0 0 40 40" style="enable-background:new 0 0 40 40;" xml:space="preserve">
<style type="text/css">
	.st0{fill:#83889E;}
</style>
<title>20220503Asset 19</title>
<g>
	<g id="include_stylesheet_file">
		<path class="st0" d="M21.6,13.6v-4h-8c-0.4,0-0.8,0.4-0.8,0.8v19.3c0,0.4,0.4,0.8,0.8,0.8h12.8c0.4,0,0.8-0.4,0.8-0.8V15.2h-4
			C22.3,15.2,21.6,14.5,21.6,13.6L21.6,13.6z M23.7,24.9c-0.1,0.8-0.6,1.5-1.3,1.9c-0.6,0.3-1.3,0.5-2,0.5S19,27.2,18.3,27
			c-0.5-0.1-1.1-0.3-1.6-0.5c-0.2-0.1-0.3-0.2-0.4-0.4c-0.1-0.2-0.1-0.4,0-0.6c0.1-0.2,0.2-0.3,0.4-0.4c0.2-0.1,0.4-0.1,0.6,0
			c0.8,0.3,1.7,0.6,2.6,0.7c0.6,0.1,1.2,0,1.8-0.2c0.3-0.2,0.6-0.5,0.6-0.9c0.1-0.4,0-0.9-0.4-1.1c-0.6-0.4-1.3-0.6-2-0.8
			c-0.6-0.2-1.2-0.4-1.7-0.6c-0.6-0.2-1-0.6-1.4-1.1c-0.4-0.6-0.5-1.3-0.4-1.9c0.1-0.7,0.6-1.4,1.2-1.8c1.1-0.7,2.7-0.8,4.9-0.2
			c0.2,0,0.4,0.2,0.5,0.4s0.1,0.4,0.1,0.6c0,0.2-0.2,0.4-0.3,0.4c-0.2,0.1-0.4,0.1-0.6,0.1c-0.8-0.2-1.6-0.3-2.4-0.3
			c-0.4,0-0.8,0.1-1.2,0.3c-0.3,0.2-0.5,0.5-0.5,0.8c-0.1,0.4,0,0.9,0.4,1.1c0.6,0.4,1.3,0.6,2,0.8c0.6,0.2,1.2,0.4,1.7,0.6
			c0.6,0.2,1,0.6,1.4,1.1C23.7,23.5,23.9,24.2,23.7,24.9L23.7,24.9z"/>
		<path class="st0" d="M38.4,0H1.6C0.7,0,0,0.7,0,1.6l0,0v36.8C0,39.3,0.7,40,1.6,40l0,0h36.8c0.9,0,1.6-0.7,1.6-1.6V1.6
			C40,0.7,39.3,0,38.4,0L38.4,0z M29.6,29.6c0,1.8-1.4,3.2-3.2,3.2H13.6c-1.8,0-3.2-1.4-3.2-3.2V10.4c0-1.8,1.4-3.2,3.2-3.2h8.3
			c0.9,0,1.7,0.3,2.3,0.9l4.5,4.5c0.6,0.6,0.9,1.4,0.9,2.3V29.6z"/>
	</g>
</g>
</svg>
