<?xml version="1.0" encoding="UTF-8" standalone="no"?>
<!-- Generator: Adobe Illustrator 23.0.1, SVG Export Plug-In . SVG Version: 6.00 Build 0)  -->
<svg version="1.1" id="Layer_1" xmlns="http://www.w3.org/2000/svg" xmlns:xlink="http://www.w3.org/1999/xlink" x="0px" y="0px"
	 viewBox="0 0 40 40" style="enable-background:new 0 0 40 40;" xml:space="preserve">
<style type="text/css">
	.st0{fill:#83889E;}
	.st1{fill:#83889E;}
</style>
<title>Graph Icon</title>
<g>
	<g id="ai-html">
		<path class="st0" d="M 38.4,0 H 1.6 C 0.7,0 0,0.7 0,1.6 v 0 36.8 C 0,39.3 0.7,40 1.6,40 v 0 H 38.4 C 39.3,40 40,39.3 40,38.4 V 1.6 C 40,0.7 39.3,0 38.4,0 Z" />
		<path class="st" d="m 16.332176,8.6356356 c 1.398701,0 2.534863,1.1871442 2.534863,2.6486084 v 18.91863 c 0,1.461464 -1.136162,2.648608 -2.534863,2.648608 -1.308171,0 -2.385487,-1.035795 -2.521283,-2.369558 -0.23538,0.06621 -0.484341,0.09932 -0.737826,0.09932 -1.597869,0 -2.896986,-1.357412 -2.896986,-3.026982 0,-0.349995 0.05885,-0.690529 0.162956,-1.002686 -1.3670161,-0.539179 -2.3356958,-1.920238 -2.3356958,-3.537781 0,-1.50876 0.8464634,-2.814146 2.0731558,-3.419542 -0.3938092,-0.515534 -0.6246625,-1.168226 -0.6246625,-1.877675 0,-1.452005 0.9777325,-2.662797 2.2813765,-2.960766 -0.07243,-0.26013 -0.108637,-0.53918 -0.108637,-0.822958 0,-1.414168 0.932466,-2.606042 2.186319,-2.937118 0.135796,-1.3243052 1.213112,-2.3601004 2.521283,-2.3601004 z m 6.518218,0 c 1.308171,0 2.38096,1.0357952 2.521283,2.3601004 1.258379,0.331076 2.186319,1.518219 2.186319,2.937118 0,0.283778 -0.03622,0.562828 -0.108636,0.822958 1.303643,0.29324 2.281376,1.508761 2.281376,2.960766 0,0.709449 -0.230854,1.362141 -0.624663,1.877675 1.226692,0.605396 2.073156,1.910782 2.073156,3.419542 0,1.617543 -0.968681,2.998602 -2.335695,3.537784 0.104111,0.312157 0.162956,0.652691 0.162956,1.002686 0,1.66957 -1.299118,3.026982 -2.896987,3.026982 -0.253486,0 -0.502446,-0.03311 -0.737826,-0.09932 -0.135796,1.333763 -1.213112,2.369558 -2.521283,2.369558 -1.398701,0 -2.534862,-1.187144 -2.534862,-2.648608 v -18.91863 c 0,-1.4614642 1.136161,-2.6486084 2.534862,-2.6486084 z" style="stroke-width:0.0462698; fill:#ffffff;fill-opacity:1" />
	</g>
</g>
</svg>
