<?xml version="1.0" encoding="UTF-8" standalone="no"?>
<!-- Generator: Adobe Illustrator 23.0.1, SVG Export Plug-In . SVG Version: 6.00 Build 0)  -->
<svg version="1.1" id="Layer_1" xmlns="http://www.w3.org/2000/svg" xmlns:xlink="http://www.w3.org/1999/xlink" x="0px" y="0px"
	 viewBox="0 0 40 40" style="enable-background:new 0 0 40 40;" xml:space="preserve">
<style type="text/css">
	.st0{fill:#83889E;}
	.st1{fill:#83889E;}
</style>
<title>Graph Icon</title>
<g>
	<g id="data-structure">
		<path class="st0" d="M 38.4,0 H 1.6 C 0.7,0 0,0.7 0,1.6 v 0 36.8 C 0,39.3 0.7,40 1.6,40 v 0 H 38.4 C 39.3,40 40,39.3 40,38.4 V 1.6 C 40,0.7 39.3,0 38.4,0 Z" />
		<path class="st" d="m 29.99988,11.791595 v 2.231196 c 0,2.054568 -4.665523,3.718663 -10.419511,3.718663 -5.753987,0 -10.4195124,-1.664095 -10.4195124,-3.718663 v -2.231196 c 0,-1.9986028 4.6655254,-3.7186648 10.4195124,-3.7186648 5.753988,0 10.419511,1.664104 10.419511,3.7186648 z m -2.549059,6.261303 c 0.967524,-0.343978 1.855974,-0.785567 2.549059,-1.329427 v 4.736647 c 0,2.054559 -4.665523,3.718663 -10.419511,3.718663 -5.753987,0 -10.4195124,-1.664104 -10.4195124,-3.718663 v -4.736647 c 0.693085,0.548502 1.5815354,0.985449 2.5490614,1.329427 2.088554,0.743734 4.870192,1.176022 7.870451,1.176022 3.000265,0 5.781897,-0.432288 7.870452,-1.176022 z m -18.2899644,6.1079 c 0.693085,0.548501 1.5815354,0.98545 2.5490614,1.329419 2.088554,0.743734 4.870192,1.17603 7.870451,1.17603 3.000265,0 5.781897,-0.432296 7.870452,-1.17603 0.967524,-0.343969 1.855974,-0.785567 2.549059,-1.329419 v 3.992914 c 0,2.05456 -4.665523,3.718664 -10.419511,3.718664 -5.753987,0 -10.4195124,-1.664104 -10.4195124,-3.718664 z" style="stroke-width:0.88716221; fill:#ffffff;fill-opacity:1" />
	</g>
</g>
</svg>
