<?xml version="1.0" encoding="utf-8"?>
<!-- 
Copyright (c) 2025 Bloxtor (http://bloxtor.com) and Joao Pinto (http://jplpinto.com)

Multi-licensed: BSD 3-Clause | Apache 2.0 | GNU LGPL v3 | HLNC License (http://bloxtor.com/LICENSE_HLNC.md)
Choose one license that best fits your needs.

Original JQuery Layout UI Editor Repo: https://github.com/a19836/jquerylayoutuieditor/
Original Bloxtor Repo: https://github.com/a19836/bloxtor

YOU ARE NOT AUTHORIZED TO MODIFY OR REMOVE ANY PART OF THIS NOTICE!
-->
<svg id="ptl" xmlns="http://www.w3.org/2000/svg" viewBox="0 0 40 40">
<defs>
<style>.cls-1{fill:#83889E;}</style>
</defs>
<title>20220518Artboard 1</title>
	<path class="cls-1" d="M14.86,17.84,14.24,21c1.55,0,2.81.19,3.16-1.64S16.57,17.84,14.86,17.84Z"/>
	<path class="cls-1" d="M20,13.16c-7.74,0-13.69,3.26-13.69,6.84s6,6.84,13.69,6.84S33.69,23.58,33.69,20,27.74,13.16,20,13.16Zm-1.93,8.21c-1.06,1-2.22.87-4.07.87l-.39,2H12l1.47-7.62h3.2a2.67,2.67,0,0,1,2.1.75C19.56,18.36,19.25,20.29,18.07,21.37Zm5-3.51H21.78l-.85,4.37H19.28l1.44-7.43h1.65L22,16.64h1.25Zm4.15,4.53c-1.42,0-2.74.1-3.38-.48s.06-3.4.78-7.11h1.67c-.7,3.59-1.23,5.88-1,6.15s.79.21,2.14.21Z"/>
	<path class="cls-1" d="M38.38,0H1.62A1.63,1.63,0,0,0,0,1.62V38.38A1.63,1.63,0,0,0,1.62,40H38.38A1.63,1.63,0,0,0,40,38.38V1.62A1.63,1.63,0,0,0,38.38,0ZM20,27.6c-8,0-14.45-3.4-14.45-7.6S12,12.4,20,12.4,34.45,15.8,34.45,20,28,27.6,20,27.6Z"/>
</svg>
