<?xml version="1.0" encoding="utf-8"?>
<!-- Generator: Adobe Illustrator 26.0.2, SVG Export Plug-In . SVG Version: 6.00 Build 0)  -->
<svg version="1.1" xmlns="http://www.w3.org/2000/svg" xmlns:xlink="http://www.w3.org/1999/xlink" x="0px" y="0px"
	 viewBox="0 0 54 42" style="enable-background:new 0 0 54 42;" xml:space="preserve">
<style type="text/css">
	.st0{fill:#FFFFFF;}
	.st1{fill:#83889E;}
</style>
<g id="render_template_region">
	<g>
		<path class="st0" d="M42.69,5.31H11.31c-2.89,0-5.23,2.34-5.23,5.23v20.92c0,2.89,2.34,5.23,5.23,5.23h31.37
			c2.89,0,5.23-2.34,5.23-5.23V10.54C47.92,7.65,45.58,5.31,42.69,5.31z"/>
		<path class="st1" d="M42.69,5.31H11.31c-2.89,0-5.23,2.34-5.23,5.23v20.92c0,2.89,2.34,5.23,5.23,5.23h31.37
			c2.89,0,5.23-2.34,5.23-5.23V10.54C47.92,7.65,45.58,5.31,42.69,5.31z M11.31,13.16c0-1.44,1.17-2.61,2.61-2.61h26.15
			c1.44,0,2.61,1.17,2.61,2.61v5.23c0,1.44-1.17,2.61-2.61,2.61H13.93c-1.44,0-2.61-1.18-2.61-2.61V13.16z M21.8,26.23h9.48v3.92
			H21.8V26.23z M12.62,30.15c-0.72,0-1.31-0.58-1.31-1.31v-1.31c0-0.73,0.58-1.31,1.31-1.31h5.07h1.39v3.92h-1.39H12.62z
			 M42.74,28.84c0,0.72-0.59,1.31-1.31,1.31h-7.41v-3.92h7.41c0.72,0,1.31,0.59,1.31,1.31V28.84z"/>
		<path class="st1" d="M30.11,14.73h-6.23c-0.57,0-1.04,0.47-1.04,1.04v1.56c0,0.29,0.23,0.52,0.52,0.52h0.52v1.56
			c0,0.29,0.23,0.52,0.52,0.52h5.19c0.29,0,0.52-0.23,0.52-0.52v-1.56h0.52c0.29,0,0.52-0.23,0.52-0.52v-1.56
			C31.15,15.2,30.69,14.73,30.11,14.73z M29.08,18.89h-4.15v-1.56h4.15V18.89z M29.85,16.42c-0.21,0-0.39-0.17-0.39-0.39
			c0-0.22,0.17-0.39,0.39-0.39s0.39,0.17,0.39,0.39C30.24,16.25,30.07,16.42,29.85,16.42z M24.92,12.66h3.72l0.43,0.43v1.13h1.04
			v-1.34c0-0.14-0.05-0.27-0.15-0.37l-0.73-0.73c-0.1-0.1-0.23-0.15-0.37-0.15h-4.46c-0.29,0-0.52,0.23-0.52,0.52v2.08h1.04V12.66z"
			/>
	</g>
</g>
</svg>
