<?xml version="1.0" encoding="utf-8"?>
<!-- Generator: Adobe Illustrator 26.0.2, SVG Export Plug-In . SVG Version: 6.00 Build 0)  -->
<svg version="1.1" xmlns="http://www.w3.org/2000/svg" xmlns:xlink="http://www.w3.org/1999/xlink" x="0px" y="0px"
	 viewBox="0 0 54 42" style="enable-background:new 0 0 54 42;" xml:space="preserve">
<style type="text/css">
	.st0{fill:#FFFFFF;}
	.st1{fill:#83889E;}
</style>
<g id="return">
	<path class="st0" d="M37.2,5.41H16.8c-3.07,0-5.57,2.49-5.57,5.57v20.04c0,3.08,2.49,5.57,5.57,5.57h18.17h2.22
		c3.07,0,5.57-2.49,5.57-5.57V10.98C42.76,7.9,40.27,5.41,37.2,5.41z"/>
	<path class="st1" d="M37.2,5.41H16.8c-3.07,0-5.57,2.49-5.57,5.57v20.04c0,3.08,2.49,5.57,5.57,5.57h18.17h2.22
		c3.07,0,5.57-2.49,5.57-5.57V10.98C42.76,7.9,40.27,5.41,37.2,5.41z M37.8,23.63c0,1.06-0.86,1.91-1.91,1.91H22.71l1.36,1.36
		c0.75,0.75,0.75,1.96,0,2.71c-0.37,0.37-0.86,0.56-1.35,0.56c-0.49,0-0.98-0.19-1.35-0.56l-4.6-4.6c-0.75-0.75-0.75-1.96,0-2.71
		l0.02-0.02c0,0,0,0,0,0l4.58-4.58c0.75-0.75,1.96-0.75,2.71,0c0.75,0.75,0.75,1.96,0,2.71l-1.31,1.31h11.21v-7.98
		c0-1.06,0.86-1.91,1.91-1.91c1.06,0,1.91,0.86,1.91,1.91V23.63z"/>
</g>
</svg>
