<?xml version="1.0" encoding="utf-8"?>
<!-- Generator: Adobe Illustrator 26.0.2, SVG Export Plug-In . SVG Version: 6.00 Build 0)  -->
<!-- 
Copyright (c) 2025 Bloxtor (http://bloxtor.com) and Joao Pinto (http://jplpinto.com)

Multi-licensed: BSD 3-Clause | Apache 2.0 | GNU LGPL v3 | HLNC License (http://bloxtor.com/LICENSE_HLNC.md)
Choose one license that best fits your needs.

Original Bloxtor Repo: https://github.com/a19836/bloxtor

YOU ARE NOT AUTHORIZED TO MODIFY OR REMOVE ANY PART OF THIS NOTICE!
-->
<svg version="1.1" xmlns="http://www.w3.org/2000/svg" xmlns:xlink="http://www.w3.org/1999/xlink" x="0px" y="0px"
	 viewBox="0 0 54 42" style="enable-background:new 0 0 54 42;" xml:space="preserve">
<style type="text/css">
	.st0{fill:#FFFFFF;}
	.st1{fill:#83889E;}
</style>
<g id="define_a_class">
	<!--path class="st0" d="M41.48,36.59c3.07,0,5.57-2.49,5.57-5.57V10.98c0-3.08-2.49-5.57-5.57-5.57H12.52c-3.07,0-5.57,2.49-5.57,5.57
		v20.04c0,3.08,2.49,5.57,5.57,5.57h26.73H41.48z"/-->
	<path class="st1" d="M42.59,5.41H11.41c-2.46,0-4.45,1.99-4.45,4.45v22.27c0,2.46,1.99,4.45,4.45,4.45h31.18
		c2.46,0,4.45-2,4.45-4.45V9.86C47.04,7.4,45.05,5.41,42.59,5.41z M18.1,29.08c-0.1,0.17-0.28,0.27-0.49,0.27h-3.35
		c-0.2,0-0.39-0.09-0.49-0.27c-0.1-0.18-0.1-0.39,0.01-0.56l1.68-2.79c0.1-0.17,0.28-0.27,0.48-0.27c0.2,0,0.38,0.1,0.48,0.27
		l1.68,2.79C18.19,28.69,18.2,28.91,18.1,29.08z M18.1,22.4c-0.1,0.17-0.28,0.27-0.49,0.27h-3.35c-0.2,0-0.39-0.09-0.49-0.27
		c-0.1-0.18-0.1-0.39,0.01-0.56l1.68-2.79c0.1-0.17,0.28-0.27,0.48-0.27c0.2,0,0.38,0.1,0.48,0.27l1.68,2.79
		C18.19,22.01,18.2,22.23,18.1,22.4z M18.1,15.93c-0.1,0.17-0.28,0.27-0.49,0.27h-3.35c-0.2,0-0.39-0.09-0.49-0.27
		c-0.1-0.18-0.1-0.39,0.01-0.56l1.68-2.79c0.1-0.17,0.28-0.27,0.48-0.27c0.2,0,0.38,0.1,0.48,0.27l1.68,2.79
		C18.19,15.54,18.2,15.75,18.1,15.93z M38.14,29.35H22.55c-0.93,0-1.67-0.74-1.67-1.67c0-0.93,0.74-1.67,1.67-1.67h15.59
		c0.93,0,1.67,0.74,1.67,1.67C39.81,28.61,39.06,29.35,38.14,29.35z M38.14,22.67H22.55c-0.93,0-1.67-0.74-1.67-1.67
		s0.74-1.67,1.67-1.67h15.59c0.93,0,1.67,0.74,1.67,1.67S39.06,22.67,38.14,22.67z M38.14,15.99H22.55c-0.93,0-1.67-0.74-1.67-1.67
		s0.74-1.67,1.67-1.67h15.59c0.93,0,1.67,0.74,1.67,1.67S39.06,15.99,38.14,15.99z"/>
</g>
</svg>
