<?xml version="1.0" encoding="utf-8"?>
<!-- Generator: Adobe Illustrator 23.0.1, SVG Export Plug-In . SVG Version: 6.00 Build 0)  -->
<svg version="1.1" id="Layer_1" xmlns="http://www.w3.org/2000/svg" xmlns:xlink="http://www.w3.org/1999/xlink" x="0px" y="0px"
	 viewBox="0 0 40 40" style="enable-background:new 0 0 40 40;" xml:space="preserve">
<style type="text/css">
	.st0{fill:#83889E;}
</style>
<title>20220503Asset 12</title>
<g>
	<g id="trRow">
		<rect x="8.2" y="25.5" class="st0" width="6.3" height="6.3"/>
		<rect x="25.5" y="8.2" class="st0" width="6.3" height="6.3"/>
		<rect x="16.9" y="25.5" class="st0" width="6.3" height="6.3"/>
		<rect x="16.9" y="8.2" class="st0" width="6.3" height="6.3"/>
		<rect x="8.2" y="8.2" class="st0" width="6.3" height="6.3"/>
		<rect x="25.5" y="25.5" class="st0" width="6.3" height="6.3"/>
		<path class="st0" d="M38.4,0H1.6C0.7,0,0,0.7,0,1.6l0,0v36.8C0,39.3,0.7,40,1.6,40l0,0h36.8c0.9,0,1.6-0.7,1.6-1.6V1.6
			C40,0.7,39.3,0,38.4,0L38.4,0z M38,24.3c0,0.7-0.5,1.2-1.2,1.2l0,0h-2.6V33c0,0.7-0.5,1.2-1.2,1.2H7c-0.7,0-1.2-0.5-1.2-1.2v-7.5
			H3.2C2.5,25.5,2,25,2,24.3l0,0v-8.7c0-0.7,0.5-1.2,1.2-1.2h2.6V7c0-0.7,0.5-1.2,1.2-1.2h26c0.7,0,1.2,0.5,1.2,1.2v7.5h2.6
			c0.7,0,1.2,0.5,1.2,1.2C38,15.7,38,24.3,38,24.3z"/>
		<rect x="4.4" y="16.9" class="st0" width="31.2" height="6.3"/>
	</g>
</g>
</svg>
