<?xml version="1.0" encoding="utf-8"?>
<!-- Generator: Adobe Illustrator 26.0.2, SVG Export Plug-In . SVG Version: 6.00 Build 0)  -->
<!-- 
Copyright (c) 2025 Bloxtor (http://bloxtor.com) and Joao Pinto (http://jplpinto.com)

Multi-licensed: BSD 3-Clause | Apache 2.0 | GNU LGPL v3 | HLNC License (http://bloxtor.com/LICENSE_HLNC.md)
Choose one license that best fits your needs.

Original Bloxtor Repo: https://github.com/a19836/bloxtor

YOU ARE NOT AUTHORIZED TO MODIFY OR REMOVE ANY PART OF THIS NOTICE!
-->
<svg version="1.1" xmlns="http://www.w3.org/2000/svg" xmlns:xlink="http://www.w3.org/1999/xlink" x="0px" y="0px"
	 viewBox="0 0 54 42" style="enable-background:new 0 0 54 42;" xml:space="preserve">
<style type="text/css">
	.st0{fill:#FFFFFF;}
	.st1{fill:#4070FF;}
</style>
<g id="execute_db_DAO_action">
	<path class="st0" d="M27,2.76C16.93,2.76,8.76,10.93,8.76,21S16.93,39.24,27,39.24S45.24,31.07,45.24,21S37.07,2.76,27,2.76z"/>
	<path class="st1" d="M27,2.76C16.93,2.76,8.76,10.93,8.76,21S16.93,39.24,27,39.24S45.24,31.07,45.24,21S37.07,2.76,27,2.76z
		 M19.9,15.42c0-1.4,3.18-2.54,7.1-2.54s7.1,1.14,7.1,2.54v1.52c0,1.4-3.18,2.54-7.1,2.54s-7.1-1.13-7.1-2.54V15.42z M28.37,29.07
		c-0.44,0.03-0.9,0.05-1.37,0.05c-3.92,0-7.1-1.13-7.1-2.54v-2.72c0.47,0.37,1.08,0.67,1.74,0.91c1.42,0.51,3.32,0.8,5.36,0.8
		c0.71,0,1.4-0.04,2.06-0.1c-0.47,0.84-0.74,1.81-0.74,2.85C28.32,28.57,28.34,28.82,28.37,29.07z M29.88,24.33
		C29,24.47,28.03,24.55,27,24.55c-3.92,0-7.1-1.13-7.1-2.54v-3.23c0.47,0.37,1.08,0.67,1.74,0.91c1.42,0.51,3.32,0.8,5.36,0.8
		s3.94-0.29,5.36-0.8c0.63-0.23,1.26-0.54,1.74-0.91v3.23c0,0.15-0.04,0.31-0.11,0.45C32.37,22.52,30.91,23.22,29.88,24.33z
		 M37.11,29.11h-2.14v2.14c0,0.44-0.36,0.8-0.8,0.8s-0.8-0.36-0.8-0.8v-2.14h-2.14c-0.44,0-0.8-0.36-0.8-0.8
		c0-0.44,0.36-0.8,0.8-0.8h2.14v-2.14c0-0.44,0.36-0.8,0.8-0.8s0.8,0.36,0.8,0.8v2.14h2.14c0.44,0,0.8,0.36,0.8,0.8
		C37.91,28.75,37.55,29.11,37.11,29.11z"/>
</g>
</svg>
