<?xml version="1.0" encoding="utf-8"?>
<!-- Generator: Adobe Illustrator 23.0.1, SVG Export Plug-In . SVG Version: 6.00 Build 0)  -->
<!-- 
Copyright (c) 2025 Bloxtor (http://bloxtor.com) and Joao Pinto (http://jplpinto.com)

Multi-licensed: BSD 3-Clause | Apache 2.0 | GNU LGPL v3 | HLNC License (http://bloxtor.com/LICENSE_HLNC.md)
Choose one license that best fits your needs.

Original JQuery Layout UI Editor Repo: https://github.com/a19836/jquerylayoutuieditor/
Original Bloxtor Repo: https://github.com/a19836/bloxtor

YOU ARE NOT AUTHORIZED TO MODIFY OR REMOVE ANY PART OF THIS NOTICE!
-->
<svg version="1.1" id="Layer_1" xmlns="http://www.w3.org/2000/svg" xmlns:xlink="http://www.w3.org/1999/xlink" x="0px" y="0px"
	 viewBox="0 0 40 40" style="enable-background:new 0 0 40 40;" xml:space="preserve">
<style type="text/css">
	.st0{fill:#83889E;}
</style>
<title>20220503Asset 6</title>
<g>
	<g id="text_section">
		<path class="st0" d="M38.4,0H1.6C0.7,0,0,0.7,0,1.6l0,0v36.8C0,39.3,0.7,40,1.6,40l0,0h36.8c0.9,0,1.6-0.7,1.6-1.6V1.6
			C40,0.7,39.3,0,38.4,0L38.4,0z M34.2,33.2c0,0.7-0.5,1.2-1.2,1.2H7c-0.7,0-1.2-0.5-1.2-1.2v-26C5.8,6.5,6.3,6,7,6h26
			c0.7,0,1.2,0.5,1.2,1.2V33.2z"/>
		<path class="st0" d="M8.2,32h23.6V8.4H8.2V32z M29.4,29H10.6v-2h18.8C29.4,27,29.4,29,29.4,29z M29.4,25.4H10.6v-2h18.8
			C29.4,23.4,29.4,25.4,29.4,25.4z M29.4,21.8H10.6v-2h18.8C29.4,19.8,29.4,21.8,29.4,21.8z M17.7,16.2h11.7v2H17.7V16.2z
			 M10.3,11.4c0-0.4,0.3-0.6,0.6-0.6h5.2c0.3,0,0.6,0.3,0.6,0.6v1.3c0,0.4-0.3,0.6-0.7,0.6c-0.3,0-0.6-0.3-0.6-0.6V12h-1.3v4.8h0.6
			c0.4,0,0.6,0.3,0.6,0.6c0,0.4-0.3,0.6-0.6,0.6h-2.6c-0.4,0-0.6-0.3-0.6-0.6c0-0.4,0.3-0.6,0.6-0.6h0.6V12h-1.3v0.7
			c0,0.4-0.3,0.6-0.6,0.6c-0.4,0-0.6-0.3-0.6-0.6l0,0L10.3,11.4L10.3,11.4z"/>
	</g>
</g>
</svg>
