<?xml version="1.0" encoding="utf-8"?>
<!-- Generator: Adobe Illustrator 26.0.2, SVG Export Plug-In . SVG Version: 6.00 Build 0)  -->
<!-- 
Copyright (c) 2025 Bloxtor (http://bloxtor.com) and Joao Pinto (http://jplpinto.com)

Multi-licensed: BSD 3-Clause | Apache 2.0 | GNU LGPL v3 | HLNC License (http://bloxtor.com/LICENSE_HLNC.md)
Choose one license that best fits your needs.

Original Bloxtor Repo: https://github.com/a19836/bloxtor

YOU ARE NOT AUTHORIZED TO MODIFY OR REMOVE ANY PART OF THIS NOTICE!
-->
<svg version="1.1" xmlns="http://www.w3.org/2000/svg" xmlns:xlink="http://www.w3.org/1999/xlink" x="0px" y="0px"
	 viewBox="0 0 54 42" style="enable-background:new 0 0 54 42;" xml:space="preserve">
<style type="text/css">
	.st0{fill:#FFFFFF;}
	.st1{fill:#4070FF;}
</style>
<g id="for_loop">
	<path class="st0" d="M27,2.76C16.93,2.76,8.76,10.93,8.76,21S16.93,39.24,27,39.24S45.24,31.07,45.24,21S37.07,2.76,27,2.76z"/>
	<g>
		<g>
			<path class="st1" d="M27,2.76C16.93,2.76,8.76,10.93,8.76,21S16.93,39.24,27,39.24S45.24,31.07,45.24,21S37.07,2.76,27,2.76z
				 M35.67,28.96c-4.42,4.42-11.63,4.42-16.05,0c-2.48-2.48-3.64-5.97-3.23-9.4l-2.52,2.52c-0.63,0.63-1.66,0.63-2.29,0
				c-0.63-0.63-0.63-1.66,0-2.29l5.16-5.16c0.63-0.63,1.66-0.63,2.29,0l5.16,5.16c0.63,0.63,0.63,1.66,0,2.29
				c-0.63,0.63-1.66,0.63-2.29,0l-2.27-2.27c-0.35,2.5,0.48,5.06,2.29,6.86c3.16,3.16,8.3,3.16,11.46,0
				c1.21-1.21,1.96-2.72,2.24-4.29l0,0c0.36-2.17-0.27-4.76-1.7-6.57c-0.17-0.21-0.35-0.4-0.54-0.6c-0.5-0.5-1.05-0.93-1.65-1.27
				c-2.23-1.27-4.99-1.38-7.36-0.16c-0.8,0.41-1.77,0.09-2.18-0.71c-0.44-0.76-0.1-1.77,0.73-2.15c1.96-1,4.1-1.37,6.17-1.15
				c0.05,0,0.11,0.01,0.16,0.02c0.03,0,0.07,0.01,0.1,0.02c2.34,0.31,4.58,1.37,6.35,3.14c0.26,0.26,0.5,0.53,0.73,0.81
				C40.08,18.2,39.83,24.81,35.67,28.96z"/>
		</g>
	</g>
</g>
</svg>
