<?xml version="1.0" encoding="utf-8"?>
<!-- Generator: Adobe Illustrator 26.0.2, SVG Export Plug-In . SVG Version: 6.00 Build 0)  -->
<!-- 
Copyright (c) 2025 Bloxtor (http://bloxtor.com) and Joao Pinto (http://jplpinto.com)

Multi-licensed: BSD 3-Clause | Apache 2.0 | GNU LGPL v3 | HLNC License (http://bloxtor.com/LICENSE_HLNC.md)
Choose one license that best fits your needs.

Original Bloxtor Repo: https://github.com/a19836/bloxtor

YOU ARE NOT AUTHORIZED TO MODIFY OR REMOVE ANY PART OF THIS NOTICE!
-->
<svg version="1.1" xmlns="http://www.w3.org/2000/svg" xmlns:xlink="http://www.w3.org/1999/xlink" x="0px" y="0px"
	 viewBox="0 0 54 42" style="enable-background:new 0 0 54 42;" xml:space="preserve">
<style type="text/css">
	.st0{fill:#FFFFFF;}
	.st1{fill:#83889E;}
</style>
<g id="die_stop_script">
	<path class="st0" d="M41.76,13.62l-7.38-7.38c-0.57-0.57-1.35-0.9-2.16-0.9H21.78c-0.81,0-1.59,0.32-2.16,0.9l-7.38,7.38
		c-0.57,0.57-0.9,1.35-0.9,2.16v10.44c0,0.81,0.32,1.59,0.9,2.16l7.38,7.38c0.57,0.57,1.35,0.9,2.16,0.9h10.44
		c0.81,0,1.59-0.32,2.16-0.9l7.38-7.38c0.57-0.57,0.9-1.35,0.9-2.16V15.78C42.66,14.97,42.34,14.19,41.76,13.62z"/>
	<path class="st1" d="M41.76,13.62l-7.38-7.38c-0.57-0.57-1.35-0.9-2.16-0.9H21.78c-0.81,0-1.59,0.32-2.16,0.9l-7.38,7.38
		c-0.57,0.57-0.9,1.35-0.9,2.16v10.44c0,0.81,0.32,1.59,0.9,2.16l7.38,7.38c0.57,0.57,1.35,0.9,2.16,0.9h10.44
		c0.81,0,1.59-0.32,2.16-0.9l7.38-7.38c0.57-0.57,0.9-1.35,0.9-2.16V15.78C42.66,14.97,42.34,14.19,41.76,13.62z M34.56,23.73
		c0,3.31-2.69,6-6,6h-1.29c-1.82,0-3.54-0.71-4.82-2l-3.86-3.86c-0.27-0.27-0.4-0.62-0.4-0.97c0-0.73,0.58-1.36,1.36-1.36
		c0.35,0,0.7,0.13,0.96,0.4l2.04,2.03v-9.53c0-0.6,0.49-1.09,1.09-1.09c0.6,0,1.09,0.49,1.09,1.09l0,6c0,0.3,0.24,0.55,0.54,0.55
		c0.3,0,0.55-0.24,0.55-0.55l0-7.09c0-0.6,0.49-1.09,1.09-1.09c0.6,0,1.09,0.49,1.09,1.09l0,7.09c0,0.3,0.24,0.55,0.54,0.55
		c0.3,0,0.55-0.25,0.55-0.55v-6c0-0.6,0.49-1.09,1.09-1.09c0.6,0,1.09,0.49,1.09,1.09l0,6c0,0.3,0.24,0.55,0.54,0.55
		c0.3,0,0.55-0.25,0.55-0.55v-3.82c0-0.6,0.49-1.09,1.09-1.09s1.09,0.49,1.09,1.09V23.73z"/>
</g>
</svg>
