<?xml version="1.0" encoding="UTF-8" standalone="no"?>
<!-- Generator: Adobe Illustrator 23.0.1, SVG Export Plug-In . SVG Version: 6.00 Build 0)  -->

<svg
   xmlns:dc="http://purl.org/dc/elements/1.1/"
   xmlns:cc="http://creativecommons.org/ns#"
   xmlns:rdf="http://www.w3.org/1999/02/22-rdf-syntax-ns#"
   xmlns:svg="http://www.w3.org/2000/svg"
   xmlns="http://www.w3.org/2000/svg"
   xmlns:sodipodi="http://sodipodi.sourceforge.net/DTD/sodipodi-0.dtd"
   xmlns:inkscape="http://www.inkscape.org/namespaces/inkscape"
   version="1.1"
   id="Layer_1"
   x="0px"
   y="0px"
   viewBox="0 0 40 40"
   style="enable-background:new 0 0 40 40;"
   xml:space="preserve"
   sodipodi:docname="logo.svg"
   inkscape:version="0.92.3 (2405546, 2018-03-11)"><metadata
   id="metadata20"><rdf:RDF><cc:Work
       rdf:about=""><dc:format>image/svg+xml</dc:format><dc:type
         rdf:resource="http://purl.org/dc/dcmitype/StillImage" /></cc:Work></rdf:RDF></metadata><defs
   id="defs18" /><sodipodi:namedview
   pagecolor="#ffffff"
   bordercolor="#666666"
   borderopacity="1"
   objecttolerance="10"
   gridtolerance="10"
   guidetolerance="10"
   inkscape:pageopacity="0"
   inkscape:pageshadow="2"
   inkscape:window-width="1366"
   inkscape:window-height="670"
   id="namedview16"
   showgrid="false"
   inkscape:zoom="16"
   inkscape:cx="17.467906"
   inkscape:cy="17.887693"
   inkscape:window-x="0"
   inkscape:window-y="27"
   inkscape:window-maximized="1"
   inkscape:current-layer="Layer_1" />
<style
   type="text/css"
   id="style2">
	.st0{fill:#83889E;}
</style>
<title
   id="title4">20220503Asset 27</title>
<g
   id="g13">
	<g
   id="iframe">
		
		<path
   class="st0"
   d="M 38.4,0 H 1.6 C 0.7,0 0,0.7 0,1.6 v 0 36.8 C 0,39.3 0.7,40 1.6,40 v 0 H 38.4 C 39.3,40 40,39.3 40,38.4 V 1.6 C 40,0.7 39.3,0 38.4,0 Z M 29.671186,19.155829 29.627116,21.779661 29.6,25 v 2.7 c 0,0.8 -0.6,1.4 -1.4,1.4 H 11.8 c -0.8,0 -1.4,-0.6 -1.4,-1.4 V 11.4 c 0,-0.8 0.6,-1.4 1.4,-1.4 5.514713,0.08381 10.011548,0.0321 15.03464,0.04161 0.799998,0.0022 2.836554,-0.328561 2.836552,1.797264 z"
   id="path8"
   inkscape:connector-curvature="0"
   style="fill:#83889e"
   sodipodi:nodetypes="ssccsccsssscccsssssccsc" />
		<rect
   x="13.45"
   y="21.725"
   class="st0"
   width="13.162499"
   height="4.2624989"
   id="rect10"
   style="fill:#83889e" />
	</g>
</g>
<rect
   x="13.418751"
   y="15.306252"
   class="st0"
   width="13.162499"
   height="4.2624989"
   id="rect10-3"
   style="fill:#83889e" /></svg>