<?xml version="1.0" encoding="utf-8"?>
<!-- Generator: Adobe Illustrator 26.0.2, SVG Export Plug-In . SVG Version: 6.00 Build 0)  -->
<svg version="1.1" xmlns="http://www.w3.org/2000/svg" xmlns:xlink="http://www.w3.org/1999/xlink" x="0px" y="0px"
	 viewBox="0 0 54 42" style="enable-background:new 0 0 54 42;" xml:space="preserve">
<style type="text/css">
	.st0{fill:#FFFFFF;}
	.st1{fill:#83889E;}
</style>
<g id="create_date">
	<g>
		<path class="st0" d="M27,2.76C16.93,2.76,8.76,10.93,8.76,21S16.93,39.24,27,39.24S45.24,31.07,45.24,21S37.07,2.76,27,2.76z"/>
		<path class="st1" d="M26.28,29.14h1.44c0.4,0,0.72-0.32,0.72-0.72v-1.44c0-0.4-0.32-0.72-0.72-0.72h-1.44
			c-0.4,0-0.72,0.32-0.72,0.72v1.44C25.56,28.82,25.89,29.14,26.28,29.14z"/>
		<path class="st1" d="M26.28,23.39h1.44c0.4,0,0.72-0.32,0.72-0.72v-1.44c0-0.4-0.32-0.72-0.72-0.72h-1.44
			c-0.4,0-0.72,0.32-0.72,0.72v1.44C25.56,23.07,25.89,23.39,26.28,23.39z"/>
		<path class="st1" d="M32.04,23.39h1.44c0.4,0,0.72-0.32,0.72-0.72v-1.44c0-0.4-0.32-0.72-0.72-0.72h-1.44
			c-0.4,0-0.72,0.32-0.72,0.72v1.44C31.32,23.07,31.64,23.39,32.04,23.39z"/>
		<path class="st1" d="M32.04,29.14h1.44c0.4,0,0.72-0.32,0.72-0.72v-1.44c0-0.4-0.32-0.72-0.72-0.72h-1.44
			c-0.4,0-0.72,0.32-0.72,0.72v1.44C31.32,28.82,31.64,29.14,32.04,29.14z"/>
		<path class="st1" d="M20.53,23.39h1.44c0.4,0,0.72-0.32,0.72-0.72v-1.44c0-0.4-0.32-0.72-0.72-0.72h-1.44
			c-0.4,0-0.72,0.32-0.72,0.72v1.44C19.81,23.07,20.13,23.39,20.53,23.39z"/>
		<path class="st1" d="M20.53,29.14h1.44c0.4,0,0.72-0.32,0.72-0.72v-1.44c0-0.4-0.32-0.72-0.72-0.72h-1.44
			c-0.4,0-0.72,0.32-0.72,0.72v1.44C19.81,28.82,20.13,29.14,20.53,29.14z"/>
		<path class="st1" d="M27,2.76C16.93,2.76,8.76,10.93,8.76,21S16.93,39.24,27,39.24S45.24,31.07,45.24,21S37.07,2.76,27,2.76z
			 M37.07,29.86c0,1.19-0.97,2.16-2.16,2.16H19.09c-1.19,0-2.16-0.97-2.16-2.16V17.64h20.14V29.86z M37.07,16.2H16.93v-2.16
			c0-1.19,0.97-2.16,2.16-2.16h2.16v-1.44c0-0.79,0.64-1.44,1.44-1.44c0.8,0,1.44,0.64,1.44,1.44v1.44h5.75v-1.44
			c0-0.79,0.64-1.44,1.44-1.44c0.8,0,1.44,0.64,1.44,1.44v1.44h2.16c1.19,0,2.16,0.97,2.16,2.16V16.2z"/>
	</g>
</g>
</svg>
