<?xml version="1.0" encoding="UTF-8" standalone="no"?>
<!-- Generator: Adobe Illustrator 26.0.2, SVG Export Plug-In . SVG Version: 6.00 Build 0)  -->
<!-- 
Copyright (c) 2025 Bloxtor (http://bloxtor.com) and Joao Pinto (http://jplpinto.com)

Multi-licensed: BSD 3-Clause | Apache 2.0 | GNU LGPL v3 | HLNC License (http://bloxtor.com/LICENSE_HLNC.md)
Choose one license that best fits your needs.

Original Bloxtor Repo: https://github.com/a19836/bloxtor

YOU ARE NOT AUTHORIZED TO MODIFY OR REMOVE ANY PART OF THIS NOTICE!
-->

<svg
   xmlns:dc="http://purl.org/dc/elements/1.1/"
   xmlns:cc="http://creativecommons.org/ns#"
   xmlns:rdf="http://www.w3.org/1999/02/22-rdf-syntax-ns#"
   xmlns:svg="http://www.w3.org/2000/svg"
   xmlns="http://www.w3.org/2000/svg"
   xmlns:sodipodi="http://sodipodi.sourceforge.net/DTD/sodipodi-0.dtd"
   xmlns:inkscape="http://www.inkscape.org/namespaces/inkscape"
   version="1.1"
   id="svg9"
   sodipodi:docname="bg.svg"
   inkscape:version="0.92.3 (2405546, 2018-03-11)"
   width="54"
   height="42">
  <metadata
     id="metadata15">
    <rdf:RDF>
      <cc:Work
         rdf:about="">
        <dc:format>image/svg+xml</dc:format>
        <dc:type
           rdf:resource="http://purl.org/dc/dcmitype/StillImage" />
      </cc:Work>
    </rdf:RDF>
  </metadata>
  <defs
     id="defs13" />
  <sodipodi:namedview
     pagecolor="#ffffff"
     bordercolor="#666666"
     borderopacity="1"
     objecttolerance="10"
     gridtolerance="10"
     guidetolerance="10"
     inkscape:pageopacity="0"
     inkscape:pageshadow="2"
     inkscape:window-width="1366"
     inkscape:window-height="670"
     id="namedview11"
     showgrid="false"
     inkscape:zoom="4.72"
     inkscape:cx="23.243362"
     inkscape:cy="20.043387"
     inkscape:window-x="0"
     inkscape:window-y="27"
     inkscape:window-maximized="1"
     inkscape:current-layer="svg9" />
  <style
     type="text/css"
     id="style2">
	.st0{fill:#FFFFFF;}
	.st1{fill:#4070FF;}
</style>
  <g
     id="send_email"
     transform="matrix(0.99577011,0,0,0.99020892,6.5280634,5.3932165)">
    <path
       class="st0"
       d="m 35.124068,31.505254 c 3.07,0 5.57,-2.49 5.57,-5.57 V 5.8952542 c 0,-3.08 -2.49,-5.56999996 -5.57,-5.56999996 H 6.1640678 c -3.07,0 -5.57,2.48999996 -5.57,5.56999996 V 25.935254 c 0,3.08 2.49,5.57 5.57,5.57 H 32.894068 Z"
       id="path3"
       inkscape:connector-curvature="0" />
    <g
       id="g7"
       transform="matrix(0.0784333,0,0,0.08065647,0.42372888,-5.1450647)">
      <path
         class="st1"
         d="M 48,64 C 21.5,64 0,85.5 0,112 c 0,15.1 7.1,29.3 19.2,38.4 l 217.6,163.2 c 11.4,8.5 27,8.5 38.4,0 L 492.8,150.4 C 504.9,141.3 512,127.1 512,112 512,85.5 490.5,64 464,64 Z M 0,176 v 208 c 0,35.3 28.7,64 64,64 h 384 c 35.3,0 64,-28.7 64,-64 V 176 L 294.4,339.2 c -22.8,17.1 -54,17.1 -76.8,0 z"
         id="path5"
         inkscape:connector-curvature="0" />
    </g>
  </g>
</svg>
