<?xml version="1.0" encoding="UTF-8" standalone="no"?>
<!-- Generator: Adobe Illustrator 26.0.2, SVG Export Plug-In . SVG Version: 6.00 Build 0)  -->

<svg
   xmlns:dc="http://purl.org/dc/elements/1.1/"
   xmlns:cc="http://creativecommons.org/ns#"
   xmlns:rdf="http://www.w3.org/1999/02/22-rdf-syntax-ns#"
   xmlns:svg="http://www.w3.org/2000/svg"
   xmlns="http://www.w3.org/2000/svg"
   xmlns:sodipodi="http://sodipodi.sourceforge.net/DTD/sodipodi-0.dtd"
   xmlns:inkscape="http://www.inkscape.org/namespaces/inkscape"
   version="1.1"
   x="0px"
   y="0px"
   viewBox="0 0 54 42"
   style="enable-background:new 0 0 54 42;"
   xml:space="preserve"
   id="svg15"
   sodipodi:docname="bg.svg"
   inkscape:version="0.92.3 (2405546, 2018-03-11)"><metadata
   id="metadata21"><rdf:RDF><cc:Work
       rdf:about=""><dc:format>image/svg+xml</dc:format><dc:type
         rdf:resource="http://purl.org/dc/dcmitype/StillImage" /><dc:title></dc:title></cc:Work></rdf:RDF></metadata><defs
   id="defs19" /><sodipodi:namedview
   pagecolor="#ffffff"
   bordercolor="#666666"
   borderopacity="1"
   objecttolerance="10"
   gridtolerance="10"
   guidetolerance="10"
   inkscape:pageopacity="0"
   inkscape:pageshadow="2"
   inkscape:window-width="1366"
   inkscape:window-height="670"
   id="namedview17"
   showgrid="false"
   inkscape:zoom="7.9465333"
   inkscape:cx="26.471488"
   inkscape:cy="23.36529"
   inkscape:window-x="0"
   inkscape:window-y="27"
   inkscape:window-maximized="1"
   inkscape:current-layer="svg15" />
<style
   type="text/css"
   id="style2">
	.st0{fill:#FFFFFF;}
	.st1{fill:#4070FF;}
</style>
<g
   id="set_presentation_view">
	<g
   id="g12">
		<path
   class="st0"
   d="M27,2.76C16.93,2.76,8.76,10.93,8.76,21S16.93,39.24,27,39.24S45.24,31.07,45.24,21S37.07,2.76,27,2.76z"
   id="path4" />
		<path
   class="st1"
   d="M29.78,18.44c-0.13-0.2-0.36-0.32-0.6-0.32c-0.24,0-0.46,0.12-0.6,0.36l-4.21,6.27l-1.46-2.01    c-0.14-0.19-0.35-0.3-0.58-0.3c-0.23,0-0.45,0.11-0.58,0.3l-3.16,4.33c-0.16,0.22-0.18,0.51-0.06,0.75    c0.12,0.24,0.37,0.39,0.64,0.39h15.78c0.27,0,0.51-0.14,0.64-0.38c0.13-0.24,0.11-0.52-0.04-0.74L29.78,18.44z"
   id="path6" />
		<circle
   class="st1"
   cx="20.49"
   cy="15.95"
   r="2.16"
   id="circle8" />
		<path
   class="st1"
   d="M27,2.76C16.93,2.76,8.76,10.93,8.76,21S16.93,39.24,27,39.24S45.24,31.07,45.24,21S37.07,2.76,27,2.76z     M38.52,28.21c0,1.59-1.29,2.88-2.88,2.88H18.33c-1.55,0-2.84-1.29-2.84-2.88V13.79c0-1.59,1.29-2.88,2.84-2.88h17.31    c1.63,0,2.88,1.29,2.88,2.88V28.21z"
   id="path10" />
	</g>
</g>
<path
   inkscape:connector-curvature="0"
   class="st1"
   d="m 36.626949,16.741356 h -2.14 v 2.14 c 0,0.44 -0.36,0.8 -0.8,0.8 -0.44,0 -0.8,-0.36 -0.8,-0.8 v -2.14 h -2.14 c -0.44,0 -0.8,-0.36 -0.8,-0.8 0,-0.44 0.36,-0.8 0.8,-0.8 h 2.14 v -2.14 c 0,-0.44 0.36,-0.8 0.8,-0.8 0.44,0 0.8,0.36 0.8,0.8 v 2.14 h 2.14 c 0.44,0 0.8,0.36 0.8,0.8 0,0.44 -0.36,0.8 -0.8,0.8 z"
   id="path6-3"
   sodipodi:nodetypes="scssscssscssscsss" /></svg>
