<?xml version="1.0" encoding="utf-8"?>
<!-- Generator: Adobe Illustrator 23.0.1, SVG Export Plug-In . SVG Version: 6.00 Build 0)  -->
<!-- 
Copyright (c) 2025 Bloxtor (http://bloxtor.com) and Joao Pinto (http://jplpinto.com)

Multi-licensed: BSD 3-Clause | Apache 2.0 | GNU LGPL v3 | HLNC License (http://bloxtor.com/LICENSE_HLNC.md)
Choose one license that best fits your needs.

Original JQuery Layout UI Editor Repo: https://github.com/a19836/jquerylayoutuieditor/
Original Bloxtor Repo: https://github.com/a19836/bloxtor

YOU ARE NOT AUTHORIZED TO MODIFY OR REMOVE ANY PART OF THIS NOTICE!
-->
<svg version="1.1" id="Layer_1" xmlns="http://www.w3.org/2000/svg" xmlns:xlink="http://www.w3.org/1999/xlink" x="0px" y="0px"
	 viewBox="0 0 40 40" style="enable-background:new 0 0 40 40;" xml:space="preserve">
<style type="text/css">
	.st0{fill:#83889E;}
</style>
<title>20220503Asset 39</title>
<g>
	<g id="form">
		<path class="st0" d="M38.4,0H1.6C0.7,0,0,0.7,0,1.6l0,0v36.8C0,39.3,0.7,40,1.6,40l0,0h36.8c0.9,0,1.6-0.7,1.6-1.6V1.6
			C40,0.7,39.3,0,38.4,0L38.4,0z M30.4,16.9v13.5c0,1.4-1.1,2.5-2.4,2.5l0,0H12.1c-1.4,0-2.5-1.1-2.5-2.5l0,0V9.5
			c0.1-1.3,1.2-2.4,2.5-2.4h15.8c1.3,0,2.4,1,2.5,2.4L30.4,16.9L30.4,16.9z"/>
		<path class="st0" d="M27.7,9.5H12.3c-0.2,0-0.3,0.2-0.3,0.3v20.3c0,0.2,0.2,0.3,0.3,0.3h15.3c0.2,0,0.3-0.2,0.3-0.3V9.8
			C28,9.7,27.8,9.5,27.7,9.5z M17.1,22.4h-3.7v-2.1h3.7V22.4z M17.1,18.1h-3.7V16h3.7V18.1z M26.7,26.7h-4v-2.2h4V26.7z M26.7,22.4
			h-8.2v-2.1h8.2V22.4z M26.7,18.1h-8.2V16h8.2V18.1z"/>
	</g>
</g>
</svg>
