<?xml version="1.0" encoding="utf-8"?>
<!-- Generator: Adobe Illustrator 26.0.2, SVG Export Plug-In . SVG Version: 6.00 Build 0)  -->
<!-- 
Copyright (c) 2025 Bloxtor (http://bloxtor.com) and Joao Pinto (http://jplpinto.com)

Multi-licensed: BSD 3-Clause | Apache 2.0 | GNU LGPL v3 | HLNC License (http://bloxtor.com/LICENSE_HLNC.md)
Choose one license that best fits your needs.

Original Bloxtor Repo: https://github.com/a19836/bloxtor

YOU ARE NOT AUTHORIZED TO MODIFY OR REMOVE ANY PART OF THIS NOTICE!
-->
<svg version="1.1" xmlns="http://www.w3.org/2000/svg" xmlns:xlink="http://www.w3.org/1999/xlink" x="0px" y="0px"
	 viewBox="0 0 54 42" style="enable-background:new 0 0 54 42;" xml:space="preserve">
<style type="text/css">
	.st0{fill:#FFFFFF;}
	.st1{fill:#4070FF;}
</style>
<g id="create_global_var">
	<path class="st0" d="M41.48,36.59c3.07,0,5.57-2.49,5.57-5.57V10.98c0-3.08-2.49-5.57-5.57-5.57H12.52c-3.07,0-5.57,2.49-5.57,5.57
		v20.04c0,3.08,2.49,5.57,5.57,5.57h26.73H41.48z"/>
	<g>
		<path class="st1" d="M41.48,5.41H12.52c-3.07,0-5.57,2.49-5.57,5.57v20.04c0,3.08,2.49,5.57,5.57,5.57h26.73h2.22
			c3.07,0,5.57-2.49,5.57-5.57V10.98C47.04,7.9,44.55,5.41,41.48,5.41z M21.13,26.7c0.64,0.26,0.96,0.99,0.7,1.63
			c-0.2,0.49-0.67,0.79-1.16,0.79c-0.15,0-0.31-0.03-0.46-0.09c-2.32-0.93-3.36-4.7-3.36-8.03s1.04-7.11,3.36-8.03
			c0.64-0.26,1.37,0.06,1.63,0.7c0.26,0.64-0.06,1.37-0.7,1.63c-0.73,0.29-1.79,2.49-1.79,5.71S20.4,26.41,21.13,26.7z M31.05,24
			c0.45,0.45,0.45,1.19,0,1.65c-0.23,0.23-0.53,0.34-0.82,0.34c-0.3,0-0.6-0.11-0.82-0.34L27,23.23l-2.41,2.41
			c-0.23,0.23-0.53,0.34-0.82,0.34c-0.3,0-0.6-0.11-0.82-0.34c-0.45-0.45-0.45-1.19,0-1.65l2.41-2.41l-2.41-2.41
			c-0.45-0.45-0.45-1.19,0-1.65c0.45-0.45,1.19-0.45,1.65,0L27,19.94l2.41-2.41c0.45-0.45,1.19-0.45,1.65,0
			c0.45,0.45,0.45,1.19,0,1.65l-2.41,2.41L31.05,24z M33.8,29.03c-0.15,0.06-0.31,0.09-0.46,0.09c-0.5,0-0.97-0.3-1.16-0.79
			c-0.26-0.64,0.06-1.37,0.7-1.63c0.73-0.29,1.79-2.49,1.79-5.71s-1.06-5.41-1.79-5.71c-0.64-0.26-0.96-0.99-0.7-1.63
			c0.26-0.64,0.99-0.96,1.63-0.7c2.32,0.93,3.36,4.7,3.36,8.03S36.12,28.11,33.8,29.03z"/>
	</g>
</g>
</svg>
