<?xml version="1.0" encoding="utf-8"?>
<!-- Generator: Adobe Illustrator 26.0.2, SVG Export Plug-In . SVG Version: 6.00 Build 0)  -->
<!-- 
Copyright (c) 2025 Bloxtor (http://bloxtor.com) and Joao Pinto (http://jplpinto.com)

Multi-licensed: BSD 3-Clause | Apache 2.0 | GNU LGPL v3 | HLNC License (http://bloxtor.com/LICENSE_HLNC.md)
Choose one license that best fits your needs.

Original Bloxtor Repo: https://github.com/a19836/bloxtor

YOU ARE NOT AUTHORIZED TO MODIFY OR REMOVE ANY PART OF THIS NOTICE!
-->
<svg version="1.1" xmlns="http://www.w3.org/2000/svg" xmlns:xlink="http://www.w3.org/1999/xlink" x="0px" y="0px"
	 viewBox="0 0 54 42" style="enable-background:new 0 0 54 42;" xml:space="preserve">
<style type="text/css">
	.st0{fill:#FFFFFF;}
	.st1{fill:#4070FF;}
</style>
<g id="set_template_region_block_param">
	<g>
		<path class="st0" d="M27,2.76C16.93,2.76,8.76,10.93,8.76,21S16.93,39.24,27,39.24S45.24,31.07,45.24,21S37.07,2.76,27,2.76z"/>
		<path class="st1" d="M20.86,15.18h12.22c0.67,0,1.22-0.55,1.22-1.22v-2.44c0-0.67-0.55-1.22-1.22-1.22H20.86
			c-0.67,0-1.22,0.55-1.22,1.22v2.44C19.63,14.63,20.18,15.18,20.86,15.18z"/>
		<path class="st1" d="M33.71,17.62h-3.47v1.83h3.47c0.34,0,0.61-0.27,0.61-0.61v-0.61C34.33,17.9,34.05,17.62,33.71,17.62z"/>
		<path class="st1" d="M27,2.76C16.93,2.76,8.76,10.93,8.76,21S16.93,39.24,27,39.24S45.24,31.07,45.24,21S37.07,2.76,27,2.76z
			 M17.19,10.29c0-1.35,1.09-2.44,2.44-2.44H34.3c1.35,0,2.44,1.09,2.44,2.44v9.78c0,1.35-1.09,2.44-2.44,2.44H19.63
			c-1.35,0-2.44-1.09-2.44-2.44V10.29z M29.8,32.71H18.41c-0.68,0-1.22-0.54-1.22-1.22c0-0.68,0.54-1.22,1.22-1.22H29.8
			c0.68,0,1.22,0.54,1.22,1.22C31.03,32.16,30.48,32.71,29.8,32.71z M29.8,27.82H18.41c-0.68,0-1.22-0.54-1.22-1.22
			c0-0.68,0.54-1.22,1.22-1.22H29.8c0.68,0,1.22,0.54,1.22,1.22C31.03,27.28,30.48,27.82,29.8,27.82z M36.67,30.68l-2.13,2.13
			c-0.18,0.19-0.49,0.19-0.67,0l-1.18-1.18c-0.19-0.18-0.19-0.49,0-0.67c0.18-0.19,0.49-0.19,0.67,0l0.85,0.85l1.8-1.8
			c0.18-0.19,0.49-0.19,0.67,0C36.86,30.19,36.86,30.49,36.67,30.68z M36.67,25.85l-2.13,2.13c-0.18,0.19-0.49,0.19-0.67,0
			l-1.18-1.18c-0.19-0.18-0.19-0.49,0-0.67c0.18-0.19,0.49-0.19,0.67,0l0.85,0.85l1.8-1.8c0.18-0.19,0.49-0.19,0.67,0
			C36.86,25.36,36.86,25.66,36.67,25.85z"/>
		<path class="st1" d="M20.25,19.46h2.37h0.65v-1.83h-0.65h-2.37c-0.34,0-0.61,0.27-0.61,0.61v0.61
			C19.63,19.19,19.91,19.46,20.25,19.46z"/>
		<rect x="24.54" y="17.62" class="st1" width="4.43" height="1.83"/>
	</g>
</g>
</svg>
