<?xml version="1.0" encoding="utf-8"?>
<!-- Generator: Adobe Illustrator 26.0.2, SVG Export Plug-In . SVG Version: 6.00 Build 0)  -->
<svg version="1.1" xmlns="http://www.w3.org/2000/svg" xmlns:xlink="http://www.w3.org/1999/xlink" x="0px" y="0px"
	 viewBox="0 0 54 42" style="enable-background:new 0 0 54 42;" xml:space="preserve">
<style type="text/css">
	.st0{fill:#FFFFFF;}
	.st1{fill:#4070FF;}
</style>
<g id="for_each">
	<g>
		<path class="st0" d="M27,2.76C16.93,2.76,8.76,10.93,8.76,21S16.93,39.24,27,39.24S45.24,31.07,45.24,21S37.07,2.76,27,2.76z"/>
		<path class="st1" d="M27,6.8c3.79,0,7.36,1.48,10.04,4.16c2.68,2.68,4.16,6.25,4.16,10.04s-1.48,7.36-4.16,10.04
			C34.36,33.72,30.79,35.2,27,35.2s-7.36-1.48-10.04-4.16C14.28,28.36,12.8,24.79,12.8,21s1.48-7.36,4.16-10.04
			C19.64,8.28,23.21,6.8,27,6.8 M27,2.76C16.93,2.76,8.76,10.93,8.76,21S16.93,39.24,27,39.24S45.24,31.07,45.24,21
			S37.07,2.76,27,2.76L27,2.76z"/>
		<path class="st1" d="M14.21,21.88c0.53,0.53,1.38,0.53,1.9,0l2.09-2.09c-0.34,2.84,0.62,5.73,2.67,7.79
			c3.66,3.66,9.63,3.66,13.3,0c3.44-3.44,3.65-8.91,0.63-12.6c-0.19-0.24-0.39-0.46-0.6-0.67c-1.46-1.46-3.32-2.34-5.26-2.6
			c-0.03,0-0.06-0.01-0.08-0.01c-0.04-0.01-0.09-0.01-0.13-0.01c-1.72-0.18-3.49,0.12-5.11,0.95c-0.69,0.31-0.97,1.15-0.61,1.78
			c0.34,0.66,1.15,0.92,1.81,0.59c1.96-1.01,4.25-0.92,6.1,0.13c0.49,0.29,0.95,0.64,1.37,1.06c0.16,0.16,0.31,0.32,0.45,0.49
			c1.19,1.51,1.71,3.65,1.41,5.44l0,0c-0.23,1.3-0.85,2.55-1.86,3.55c-2.62,2.62-6.87,2.62-9.49,0c-1.5-1.5-2.18-3.61-1.9-5.68
			l1.88,1.88c0.53,0.53,1.38,0.53,1.9,0c0.53-0.53,0.53-1.38,0-1.9l-4.28-4.28c-0.53-0.53-1.38-0.53-1.9,0l-4.28,4.28
			C13.68,20.51,13.68,21.36,14.21,21.88z"/>
	</g>
</g>
</svg>
