<?xml version="1.0" encoding="UTF-8" standalone="no"?>
<!-- Generator: Adobe Illustrator 23.0.1, SVG Export Plug-In . SVG Version: 6.00 Build 0)  -->
<!-- 
Copyright (c) 2025 Bloxtor (http://bloxtor.com) and Joao Pinto (http://jplpinto.com)

Multi-licensed: BSD 3-Clause | Apache 2.0 | GNU LGPL v3 | HLNC License (http://bloxtor.com/LICENSE_HLNC.md)
Choose one license that best fits your needs.

Original JQuery Layout UI Editor Repo: https://github.com/a19836/jquerylayoutuieditor/
Original Bloxtor Repo: https://github.com/a19836/bloxtor

YOU ARE NOT AUTHORIZED TO MODIFY OR REMOVE ANY PART OF THIS NOTICE!
-->

<svg
   xmlns:dc="http://purl.org/dc/elements/1.1/"
   xmlns:cc="http://creativecommons.org/ns#"
   xmlns:rdf="http://www.w3.org/1999/02/22-rdf-syntax-ns#"
   xmlns:svg="http://www.w3.org/2000/svg"
   xmlns="http://www.w3.org/2000/svg"
   xmlns:sodipodi="http://sodipodi.sourceforge.net/DTD/sodipodi-0.dtd"
   xmlns:inkscape="http://www.inkscape.org/namespaces/inkscape"
   version="1.1"
   id="Layer_1"
   x="0px"
   y="0px"
   viewBox="0 0 40 40"
   style="enable-background:new 0 0 40 40;"
   xml:space="preserve"
   sodipodi:docname="logo.svg"
   inkscape:version="0.92.3 (2405546, 2018-03-11)"><metadata
   id="metadata34"><rdf:RDF><cc:Work
       rdf:about=""><dc:format>image/svg+xml</dc:format><dc:type
         rdf:resource="http://purl.org/dc/dcmitype/StillImage" /></cc:Work></rdf:RDF></metadata><defs
   id="defs32" /><sodipodi:namedview
   pagecolor="#ffffff"
   bordercolor="#666666"
   borderopacity="1"
   objecttolerance="10"
   gridtolerance="10"
   guidetolerance="10"
   inkscape:pageopacity="0"
   inkscape:pageshadow="2"
   inkscape:window-width="1366"
   inkscape:window-height="670"
   id="namedview30"
   showgrid="false"
   inkscape:zoom="16.68772"
   inkscape:cx="22.658944"
   inkscape:cy="20.133108"
   inkscape:window-x="0"
   inkscape:window-y="27"
   inkscape:window-maximized="1"
   inkscape:current-layer="Layer_1" />
<style
   type="text/css"
   id="style2">
	.st0{fill:#83889E;}
</style>
<title
   id="title4">20220503Asset 16</title>
<g
   id="g27">
	<g
   id="table">
		<rect
   x="17.139696"
   y="15.973818"
   class="st0"
   width="6.1305103"
   height="8.2489719"
   id="rect6"
   style="fill:#83889e" />
		<rect
   x="17.079773"
   y="26.855932"
   class="st0"
   width="6.1202283"
   height="4.944067"
   id="rect8"
   style="fill:#83889e" />
		<rect
   x="17.139696"
   y="8.1400757"
   class="st0"
   width="6.0603042"
   height="5.3429756"
   id="rect10"
   style="fill:#83889e" />
		<rect
   x="8.1897182"
   y="18.295294"
   class="st0"
   width="6.43013"
   height="3.8319097"
   id="rect12"
   style="fill:#83889e" />
		<rect
   x="8.1999998"
   y="8.1999998"
   class="st0"
   width="6.4095669"
   height="7.5446014"
   id="rect14"
   style="fill:#83889e" />
		<rect
   x="8.1897192"
   y="24.69014"
   class="st0"
   width="6.3102808"
   height="7.1098595"
   id="rect16"
   style="fill:#83889e" />
		<rect
   x="25.679773"
   y="8.1999998"
   class="st0"
   width="6.0705838"
   height="9.4689322"
   id="rect18"
   style="fill:#83889e" />
		<rect
   x="25.739697"
   y="25.5"
   class="st0"
   width="6.0603027"
   height="6.2999992"
   id="rect20"
   style="fill:#83889e" />
		<path
   class="st0"
   d="M38.4,0H1.6C0.7,0,0,0.7,0,1.6l0,0v36.8C0,39.3,0.7,40,1.6,40l0,0h36.8c0.9,0,1.6-0.7,1.6-1.6V1.6    C40,0.7,39.3,0,38.4,0L38.4,0z M34.2,15.7V33c0,0.7-0.5,1.2-1.2,1.2H7c-0.7,0-1.2-0.5-1.2-1.2V7c0-0.7,0.5-1.2,1.2-1.2h26    c0.7,0,1.2,0.5,1.2,1.2V15.7z"
   id="path22" />
		<rect
   x="25.739697"
   y="20.529526"
   class="st0"
   width="6.0603027"
   height="4.9704742"
   id="rect24"
   style="fill:#83889e" />
	</g>
</g>
</svg>
