<?xml version="1.0" encoding="utf-8"?>
<!-- Generator: Adobe Illustrator 23.0.1, SVG Export Plug-In . SVG Version: 6.00 Build 0)  -->
<svg version="1.1" id="Layer_1" xmlns="http://www.w3.org/2000/svg" xmlns:xlink="http://www.w3.org/1999/xlink" x="0px" y="0px"
	 viewBox="0 0 40 40" style="enable-background:new 0 0 40 40;" xml:space="preserve">
<style type="text/css">
	.st0{fill:#83889E;}
</style>
<title>20220503Asset 25</title>
<g>
	<g id="lista">
		<path class="st0" d="M38.4,0H1.6C0.7,0,0,0.7,0,1.6l0,0v36.8C0,39.3,0.7,40,1.6,40l0,0h36.8c0.9,0,1.6-0.7,1.6-1.6V1.6
			C40,0.7,39.3,0,38.4,0L38.4,0z M10,30.4c-1.3,0-2.4-1.1-2.4-2.4s1.1-2.4,2.4-2.4c1.3,0,2.4,1.1,2.4,2.4S11.3,30.4,10,30.4z
			 M10,22.4c-1.3,0-2.4-1.1-2.4-2.4c0-1.3,1.1-2.4,2.4-2.4c1.3,0,2.4,1.1,2.4,2.4C12.4,21.3,11.3,22.4,10,22.4z M10,14.4
			c-1.3,0-2.4-1.1-2.4-2.4c0-1.3,1.1-2.4,2.4-2.4c1.3,0,2.4,1.1,2.4,2.4C12.4,13.3,11.3,14.4,10,14.4z M30.8,29.6H16.4
			c-0.9,0-1.6-0.7-1.6-1.6s0.7-1.6,1.6-1.6h14.4c0.9,0,1.6,0.7,1.6,1.6S31.7,29.6,30.8,29.6z M30.8,21.6H16.4
			c-0.9,0-1.6-0.7-1.6-1.6s0.7-1.6,1.6-1.6h14.4c0.9,0,1.6,0.7,1.6,1.6S31.7,21.6,30.8,21.6z M30.8,13.6H16.4
			c-0.9,0-1.6-0.7-1.6-1.6s0.7-1.6,1.6-1.6h14.4c0.9,0,1.6,0.7,1.6,1.6S31.7,13.6,30.8,13.6z"/>
	</g>
</g>
</svg>
