<?xml version="1.0" encoding="UTF-8" standalone="no"?>
<!-- Generator: Adobe Illustrator 23.0.1, SVG Export Plug-In . SVG Version: 6.00 Build 0)  -->

<svg
   xmlns:dc="http://purl.org/dc/elements/1.1/"
   xmlns:cc="http://creativecommons.org/ns#"
   xmlns:rdf="http://www.w3.org/1999/02/22-rdf-syntax-ns#"
   xmlns:svg="http://www.w3.org/2000/svg"
   xmlns="http://www.w3.org/2000/svg"
   xmlns:sodipodi="http://sodipodi.sourceforge.net/DTD/sodipodi-0.dtd"
   xmlns:inkscape="http://www.inkscape.org/namespaces/inkscape"
   version="1.1"
   id="Layer_1"
   x="0px"
   y="0px"
   viewBox="0 0 40 40"
   style="enable-background:new 0 0 40 40;"
   xml:space="preserve"
   sodipodi:docname="logo.svg"
   inkscape:version="0.92.3 (2405546, 2018-03-11)"><metadata
   id="metadata16"><rdf:RDF><cc:Work
       rdf:about=""><dc:format>image/svg+xml</dc:format><dc:type
         rdf:resource="http://purl.org/dc/dcmitype/StillImage" /></cc:Work></rdf:RDF></metadata><defs
   id="defs14" /><sodipodi:namedview
   pagecolor="#ffffff"
   bordercolor="#666666"
   borderopacity="1"
   objecttolerance="10"
   gridtolerance="10"
   guidetolerance="10"
   inkscape:pageopacity="0"
   inkscape:pageshadow="2"
   inkscape:window-width="1366"
   inkscape:window-height="670"
   id="namedview12"
   showgrid="false"
   inkscape:zoom="5.9"
   inkscape:cx="-6.779661"
   inkscape:cy="20"
   inkscape:window-x="0"
   inkscape:window-y="27"
   inkscape:window-maximized="1"
   inkscape:current-layer="Layer_1" />
<style
   type="text/css"
   id="style2">
	.st0{fill:#83889E;}
</style>
<title
   id="title4">20220503Asset 38</title>
<g
   id="g9">
	<g
   id="button">
		<path
   class="st0"
   d="M 38.4,0 H 1.6 C 0.7,0 0,0.7 0,1.6 v 0 36.8 C 0,39.3 0.7,40 1.6,40 v 0 H 38.4 C 39.3,40 40,39.3 40,38.4 V 1.6 C 40,0.7 39.3,0 38.4,0 Z"
   id="path6"
   inkscape:connector-curvature="0"
   style="fill:#83889e"
   sodipodi:nodetypes="ssccsccssss" />
	</g>
</g>
<path
   inkscape:connector-curvature="0"
   style="opacity:1;fill:#ffffff;stroke-width:0.05085325"
   d="m 17.599418,9.7970622 c 0.978223,0.1333972 1.641616,0.8923808 1.478579,1.6927638 l -0.550953,2.704744 h 5.346496 l 0.646527,-3.187733 c 0.163046,-0.800383 1.090663,-1.343172 2.068886,-1.2097748 0.978224,0.1333972 1.641617,0.8923808 1.478579,1.6927638 l -0.545331,2.704744 h 3.271989 c 0.995089,0 1.799031,0.657786 1.799031,1.471969 0,0.814182 -0.803942,1.471968 -1.799031,1.471968 h -3.87354 l -1.19748,5.887876 h 3.271988 c 0.995089,0 1.799032,0.657787 1.799032,1.471969 0,0.814183 -0.803943,1.471969 -1.799032,1.471969 h -3.87354 l -0.646527,3.187733 c -0.163028,0.800384 -1.090662,1.343172 -2.068886,1.209775 -0.978223,-0.13339 -1.641616,-0.892381 -1.478579,-1.692764 l 0.550954,-2.700144 h -5.352119 l -0.646527,3.187733 c -0.163028,0.800383 -1.090663,1.343172 -2.068886,1.209775 -0.978223,-0.133405 -1.641616,-0.892381 -1.478579,-1.692765 L 12.4778,25.970321 H 9.2058118 c -0.995089,0 -1.799032,-0.657786 -1.799032,-1.471969 0,-0.814182 0.803943,-1.471969 1.799032,-1.471969 h 3.8735392 l 1.197481,-5.887876 h -3.271989 c -0.995089,0 -1.7990312,-0.657786 -1.7990312,-1.471968 0,-0.814183 0.8039422,-1.471969 1.7990312,-1.471969 h 3.87354 l 0.646527,-3.187733 c 0.163046,-0.800383 1.090663,-1.343172 2.068886,-1.2097748 z m 0.326074,7.3414448 -1.19748,5.887876 h 5.346497 l 1.19748,-5.887876 z"
   id="path2" /></svg>