<?xml version="1.0" encoding="utf-8"?>
<!-- Generator: Adobe Illustrator 26.0.2, SVG Export Plug-In . SVG Version: 6.00 Build 0)  -->
<svg version="1.1" xmlns="http://www.w3.org/2000/svg" xmlns:xlink="http://www.w3.org/1999/xlink" x="0px" y="0px"
	 viewBox="0 0 54 42" style="enable-background:new 0 0 54 42;" xml:space="preserve">
<style type="text/css">
	.st0{fill:#FFFFFF;}
	.st1{fill:#83889E;}
</style>
<g id="include_file">
	<g>
		<path class="st0" d="M27,2.76C16.93,2.76,8.76,10.93,8.76,21S16.93,39.24,27,39.24S45.24,31.07,45.24,21S37.07,2.76,27,2.76z"/>
		<path class="st1" d="M27,2.76C16.93,2.76,8.76,10.93,8.76,21S16.93,39.24,27,39.24S45.24,31.07,45.24,21S37.07,2.76,27,2.76z
			 M27.3,10.96l5.19,5.19H27.3V10.96z M29.9,31.7H19.53c-1.43,0-2.59-1.16-2.59-2.59V13.55c0-1.43,1.16-2.59,2.59-2.59h6.48v5.19
			c0,0.72,0.58,1.3,1.3,1.3h5.19v1.56c-2.99,0.85-5.19,3.6-5.19,6.86c0,2.39,1.18,4.51,2.99,5.8C30.16,31.69,30.03,31.7,29.9,31.7z
			 M34.43,31.7c-3.22,0-5.83-2.61-5.83-5.83s2.61-5.83,5.83-5.83s5.83,2.61,5.83,5.83S37.65,31.7,34.43,31.7z"/>
		<path class="st1" d="M36.24,24.11l-2.46,2.46l-1.16-1.16c-0.25-0.26-0.66-0.26-0.92,0c-0.26,0.25-0.26,0.66,0,0.92l1.62,1.62
			c0.25,0.26,0.66,0.26,0.92,0l2.92-2.92c0.26-0.25,0.26-0.66,0-0.92C36.91,23.86,36.5,23.86,36.24,24.11z"/>
	</g>
</g>
</svg>
