<?xml version="1.0" encoding="utf-8"?>
<!-- Generator: Adobe Illustrator 26.0.2, SVG Export Plug-In . SVG Version: 6.00 Build 0)  -->
<svg version="1.1" xmlns="http://www.w3.org/2000/svg" xmlns:xlink="http://www.w3.org/1999/xlink" x="0px" y="0px"
	 viewBox="0 0 54 42" style="enable-background:new 0 0 54 42;" xml:space="preserve">
<style type="text/css">
	.st0{fill:#FFFFFF;}
	.st1{fill:#4070FF;}
</style>
<g id="get_template_param">
	<g>
		<path class="st0" d="M27,2.76C16.93,2.76,8.76,10.93,8.76,21S16.93,39.24,27,39.24S45.24,31.07,45.24,21S37.07,2.76,27,2.76z"/>
		<path class="st1" d="M19.43,17.73h15.14c0.83,0,1.51-0.68,1.51-1.51v-3.03c0-0.83-0.68-1.51-1.51-1.51H19.43
			c-0.83,0-1.51,0.68-1.51,1.51v3.03C17.92,17.05,18.6,17.73,19.43,17.73z"/>
		<rect x="23.99" y="20.76" class="st1" width="5.49" height="2.27"/>
		<path class="st1" d="M29.2,29.5l-2.23,2.23l-1.05-1.05c-0.23-0.23-0.6-0.23-0.83,0c-0.23,0.23-0.23,0.6,0,0.83l1.47,1.47
			c0.23,0.23,0.6,0.23,0.83,0l2.64-2.64c0.23-0.23,0.23-0.6,0-0.83C29.8,29.27,29.42,29.27,29.2,29.5z"/>
		<path class="st1" d="M18.67,20.76c-0.42,0-0.76,0.34-0.76,0.76v0.76c0,0.42,0.34,0.76,0.76,0.76h2.93h0.8v-2.27h-0.8H18.67z"/>
		<path class="st1" d="M35.35,20.76h-4.29v2.27h4.29c0.42,0,0.76-0.34,0.76-0.76v-0.76C36.11,21.1,35.77,20.76,35.35,20.76z"/>
		<path class="st1" d="M27,2.76C16.93,2.76,8.76,10.93,8.76,21S16.93,39.24,27,39.24S45.24,31.07,45.24,21S37.07,2.76,27,2.76z
			 M27.56,36.38c-3.04,0-5.5-2.46-5.5-5.5c0-1.23,0.4-2.36,1.08-3.27h8.84c0.68,0.91,1.08,2.05,1.08,3.27
			C33.06,33.92,30.59,36.38,27.56,36.38z M39.11,23.78c0,1.67-1.35,3.03-3.03,3.03H17.92c-1.67,0-3.03-1.35-3.03-3.03V11.67
			c0-1.67,1.35-3.03,3.03-3.03h18.17c1.67,0,3.03,1.35,3.03,3.03V23.78z"/>
	</g>
</g>
</svg>
