<?xml version="1.0" encoding="utf-8"?>
<!-- Generator: Adobe Illustrator 23.0.1, SVG Export Plug-In . SVG Version: 6.00 Build 0)  -->
<svg version="1.1" id="Layer_1" xmlns="http://www.w3.org/2000/svg" xmlns:xlink="http://www.w3.org/1999/xlink" x="0px" y="0px"
	 viewBox="0 0 40 40" style="enable-background:new 0 0 40 40;" xml:space="preserve">
<style type="text/css">
	.st0{fill:#83889E;}
	.st1{fill:#83889E;}
</style>
<title>Graph Icon</title>
<g>
	<g id="graph">
		<path class="st0" d="M 38.4,0 H 1.6 C 0.7,0 0,0.7 0,1.6 v 0 36.8 C 0,39.3 0.7,40 1.6,40 v 0 H 38.4 C 39.3,40 40,39.3 40,38.4 V 1.6 C 40,0.7 39.3,0 38.4,0 Z" />
		<path class="st" d="M 20.576968,19.350379 V 6.4954385 c 0,-0.5178774 0.388049,-0.9552019 0.886974,-0.9552019 6.857466,0 12.417724,5.7714914 12.417724,12.8894674 0,0.517882 -0.421319,0.920675 -0.920244,0.920675 z M 5.4983047,21.191736 c 0,-6.979877 4.9948073,-12.7571235 11.4753053,-13.6777984 0.51001,-0.074798 0.942413,0.3510063 0.942413,0.8861491 V 22.112412 l 8.675776,9.005362 c 0.371421,0.385534 0.343702,1.018499 -0.08316,1.32923 -2.173102,1.611183 -4.834041,2.554874 -7.705638,2.554874 -7.345307,0 -13.3047009,-6.18004 -13.3047009,-13.810142 z m 29.1816423,0.920676 c 0.515554,0 0.92024,0.448829 0.853718,0.978216 -0.426858,3.216612 -1.918095,6.076467 -4.096737,8.188267 -0.332618,0.322236 -0.853723,0.29922 -1.175253,-0.04027 l -8.797733,-9.126204 z" style="stroke-width:0.05647944; fill:#ffffff; fill-opacity:1" />
	</g>
</g>
</svg>
