<?xml version="1.0" encoding="utf-8"?>
<!-- Generator: Adobe Illustrator 23.0.1, SVG Export Plug-In . SVG Version: 6.00 Build 0)  -->
<!-- 
Copyright (c) 2025 Bloxtor (http://bloxtor.com) and Joao Pinto (http://jplpinto.com)

Multi-licensed: BSD 3-Clause | Apache 2.0 | GNU LGPL v3 | HLNC License (http://bloxtor.com/LICENSE_HLNC.md)
Choose one license that best fits your needs.

Original JQuery Layout UI Editor Repo: https://github.com/a19836/jquerylayoutuieditor/
Original Bloxtor Repo: https://github.com/a19836/bloxtor

YOU ARE NOT AUTHORIZED TO MODIFY OR REMOVE ANY PART OF THIS NOTICE!
-->
<svg version="1.1" id="Layer_1" xmlns="http://www.w3.org/2000/svg" xmlns:xlink="http://www.w3.org/1999/xlink" x="0px" y="0px"
	 viewBox="0 0 40 40" style="enable-background:new 0 0 40 40;" xml:space="preserve">
<style type="text/css">
	.st0{fill:#83889E;}
</style>
<title>20220503Asset 15</title>
<g>
	<g id="thead">
		<path class="st0" d="M38.4,0H1.6C0.7,0,0,0.7,0,1.6l0,0v36.8C0,39.3,0.7,40,1.6,40l0,0h36.8c0.9,0,1.6-0.7,1.6-1.6V1.6
			C40,0.7,39.3,0,38.4,0L38.4,0z M9.5,32.5C9.5,32.8,9.3,33,9,33l0,0H7.5C7.2,33,7,32.8,7,32.5l0,0V31c0-0.3,0.2-0.5,0.5-0.5l0,0H9
			c0.3,0,0.5,0.2,0.5,0.5l0,0V32.5z M9.5,26.6c0,0.3-0.2,0.5-0.5,0.5l0,0H7.5c-0.3,0-0.5-0.2-0.5-0.5l0,0v-1.5
			c0-0.3,0.2-0.5,0.5-0.5l0,0H9c0.3,0,0.5,0.2,0.5,0.5l0,0V26.6z M9.5,20.7c0,0.3-0.2,0.5-0.5,0.5l0,0H7.5C7.2,21.2,7,21,7,20.7
			v-1.5c0-0.3,0.2-0.5,0.5-0.5l0,0H9c0.3,0,0.5,0.2,0.5,0.5l0,0V20.7z M9.5,14.8c0,0.3-0.2,0.5-0.5,0.5l0,0H7.5
			c-0.3,0-0.5-0.2-0.5-0.5v-1.5c0-0.3,0.2-0.5,0.5-0.5l0,0H9c0.3,0,0.5,0.2,0.5,0.5l0,0V14.8z M15.3,32.5c0,0.3-0.2,0.5-0.5,0.5
			h-1.5c-0.3,0-0.5-0.2-0.5-0.5V31c0-0.3,0.2-0.5,0.5-0.5h1.5c0.3,0,0.5,0.2,0.5,0.5V32.5z M15.3,20.7c0,0.3-0.2,0.5-0.5,0.5h-1.5
			c-0.3,0-0.5-0.2-0.5-0.5v-1.5c0-0.3,0.2-0.5,0.5-0.5l0,0h1.5c0.3,0,0.5,0.2,0.5,0.5l0,0V20.7z M21.2,32.5c0,0.3-0.2,0.5-0.5,0.5
			l0,0h-1.5c-0.3,0-0.5-0.2-0.5-0.5l0,0V31c0-0.3,0.2-0.5,0.5-0.5l0,0h1.5c0.3,0,0.5,0.2,0.5,0.5l0,0V32.5z M21.2,26.6
			c0,0.3-0.2,0.5-0.5,0.5h-1.5c-0.3,0-0.5-0.2-0.5-0.5v-1.5c0-0.3,0.2-0.5,0.5-0.5l0,0h1.5c0.3,0,0.5,0.2,0.5,0.5l0,0V26.6z
			 M21.2,19.3v1.5c0,0.3-0.2,0.5-0.5,0.5l0,0h-1.5c-0.3,0-0.5-0.2-0.5-0.5l0,0v-1.5c0-0.3,0.2-0.5,0.5-0.5l0,0h1.5
			C21,18.7,21.2,19,21.2,19.3C21.2,19.2,21.2,19.2,21.2,19.3L21.2,19.3z M21.2,14.9c0,0.3-0.2,0.5-0.5,0.5l0,0h-1.5
			c-0.3,0-0.5-0.2-0.5-0.5l0,0v-1.5c0-0.3,0.2-0.5,0.5-0.5l0,0h1.5c0.3,0,0.5,0.2,0.5,0.5V14.9z M27.1,32.5c0,0.3-0.2,0.5-0.5,0.5
			h-1.5c-0.3,0-0.5-0.2-0.5-0.5V31c0-0.3,0.2-0.5,0.5-0.5h1.5c0.3,0,0.5,0.2,0.5,0.5V32.5z M27.1,20.7c0,0.3-0.2,0.5-0.5,0.5h-1.5
			c-0.3,0-0.5-0.2-0.5-0.5v-1.5c0-0.3,0.2-0.5,0.5-0.5l0,0h1.5c0.3,0,0.5,0.2,0.5,0.5V20.7z M33,32.5c0,0.3-0.2,0.5-0.5,0.5l0,0H31
			c-0.3,0-0.5-0.2-0.5-0.5l0,0V31c0-0.3,0.2-0.5,0.5-0.5l0,0h1.5c0.3,0,0.5,0.2,0.5,0.5l0,0V32.5z M33,26.6c0,0.3-0.2,0.5-0.5,0.5
			l0,0H31c-0.3,0-0.5-0.2-0.5-0.5l0,0v-1.5c0-0.3,0.2-0.5,0.5-0.5l0,0h1.5c0.3,0,0.5,0.2,0.5,0.5l0,0V26.6z M33,20.7
			c0,0.3-0.2,0.5-0.5,0.5l0,0H31c-0.3,0-0.5-0.2-0.5-0.5l0,0v-1.5c0-0.3,0.2-0.5,0.5-0.5l0,0h1.5c0.3,0,0.5,0.2,0.5,0.5l0,0V20.7z
			 M33,14.8c0,0.3-0.2,0.5-0.5,0.5l0,0H31c-0.3,0-0.5-0.2-0.5-0.5l0,0v-1.5c0-0.3,0.2-0.5,0.5-0.5l0,0h1.5c0.3,0,0.5,0.2,0.5,0.5
			l0,0V14.8z M33,9c0,0.3-0.2,0.5-0.5,0.5l0,0h-25C7.2,9.5,7,9.3,7,9l0,0V7.5C7,7.2,7.2,7,7.5,7h25.1c0.3,0,0.5,0.2,0.5,0.5l0,0
			L33,9z"/>
	</g>
</g>
</svg>
