<?xml version="1.0" encoding="utf-8"?>
<!-- Generator: Adobe Illustrator 23.0.1, SVG Export Plug-In . SVG Version: 6.00 Build 0)  -->
<svg version="1.1" id="Layer_1" xmlns="http://www.w3.org/2000/svg" xmlns:xlink="http://www.w3.org/1999/xlink" x="0px" y="0px"
	 viewBox="0 0 40 40" style="enable-background:new 0 0 40 40;" xml:space="preserve">
<style type="text/css">
	.st0{fill:#83889E;}
</style>
<title>20220503Asset 9</title>
<g>
	<g id="call_module_or_block">
		<path class="st0" d="M23.9,16.7l-3.5-1.2c-0.3-0.1-0.5-0.1-0.8,0l-3.5,1.2c-0.5,0.2-0.8,0.6-0.8,1.1v4.4c0,0.5,0.3,0.9,0.8,1.1
			l3.5,1.2c0.3,0.1,0.5,0.1,0.8,0l3.5-1.2c0.5-0.2,0.8-0.6,0.8-1.1v-4.4C24.6,17.3,24.3,16.9,23.9,16.7z M20,18.8l-3.1-1.1l3.1-1.1
			l3.1,1.1L20,18.8z M23.5,22.2l-2.9,1v-3.4l2.9-1V22.2z"/>
		<path class="st0" d="M38.4,0H1.6C0.7,0,0,0.7,0,1.6l0,0v36.8C0,39.3,0.7,40,1.6,40l0,0h36.8c0.9,0,1.6-0.7,1.6-1.6V1.6
			C40,0.7,39.3,0,38.4,0L38.4,0z M31.1,21.4c-0.1,0.6-0.6,1.1-1.2,1.2L28.4,23c-0.4,1.1-0.9,2-1.7,2.9l0.5,1.5
			c0.2,0.6,0,1.3-0.5,1.6c-0.3,0.2-0.6,0.4-1,0.7l-0.4,0.2c-0.3,0.2-0.7,0.4-1,0.5c-0.6,0.2-1.3,0.1-1.7-0.4l-1.1-1.2
			c-1.1,0.2-2.2,0.2-3.3,0L17.1,30c-0.4,0.5-1.1,0.6-1.7,0.4c-0.4-0.2-0.7-0.3-1-0.5L14,29.7c-0.3-0.3-0.7-0.4-1-0.7
			c-0.5-0.4-0.7-1.1-0.5-1.7l0.5-1.5c-0.7-0.8-1.3-1.8-1.7-2.9l-1.5-0.4c-0.6-0.1-1.1-0.6-1.2-1.2c-0.1-0.9-0.1-1.8,0-2.7
			c0.1-0.6,0.6-1.1,1.2-1.2l1.6-0.4c0.4-1,0.9-2,1.6-2.8l-0.5-1.5c-0.2-0.6,0-1.3,0.5-1.6c0.3-0.3,0.6-0.5,1-0.7l0.4-0.2
			c0.3-0.2,0.7-0.4,1-0.5c0.6-0.2,1.2-0.1,1.7,0.4l1.1,1.2c1.1-0.2,2.2-0.2,3.3,0l1.1-1.2c0.4-0.5,1.1-0.6,1.7-0.4
			c0.4,0.2,0.7,0.3,1,0.5l0.4,0.2c0.3,0.2,0.7,0.4,1,0.7c0.5,0.4,0.7,1.1,0.5,1.7l-0.5,1.5C27.4,15,28,16,28.3,17l1.6,0.4
			c0.6,0.1,1.1,0.6,1.2,1.2C31.2,19.5,31.2,20.4,31.1,21.4L31.1,21.4z"/>
	</g>
</g>
</svg>
