<?xml version="1.0" encoding="utf-8"?>
<!-- Generator: Adobe Illustrator 23.0.1, SVG Export Plug-In . SVG Version: 6.00 Build 0)  -->
<svg version="1.1" id="Layer_1" xmlns="http://www.w3.org/2000/svg" xmlns:xlink="http://www.w3.org/1999/xlink" x="0px" y="0px"
	 viewBox="0 0 40 40" style="enable-background:new 0 0 40 40;" xml:space="preserve">
<style type="text/css">
	.st0{fill:#83889E;}
</style>
<title>20220503Asset 30</title>
<g>
	<g id="blockquote">
		<path class="st0" d="M38.4,0H1.6C0.7,0,0,0.7,0,1.6c0,0,0,0,0,0v36.8C0,39.3,0.7,40,1.6,40c0,0,0,0,0,0h36.8
			c0.9,0,1.6-0.7,1.6-1.6V1.6C40,0.7,39.3,0,38.4,0C38.4,0,38.4,0,38.4,0z M18.1,21.6c0,0.1,0,0.3-0.1,0.4l-2.3,6.1
			c-0.2,0.4-0.6,0.7-1,0.7h-2.9c-0.6,0-1.1-0.5-1.1-1.1c0-0.1,0-0.3,0.1-0.4l1.5-4.1c0.2-0.6-0.1-1.2-0.6-1.4
			c-0.1,0-0.3-0.1-0.4-0.1H8.7c-0.6,0-1.1-0.5-1.1-1.1v-8.3c0-0.6,0.5-1.1,1.1-1.1H17c0.6,0,1.1,0.5,1.1,1.1V21.6z M32.4,21.6
			c0,0.1,0,0.3-0.1,0.4L30,28.1c-0.2,0.4-0.6,0.7-1,0.7h-2.9c-0.6,0-1.1-0.5-1.1-1.1c0-0.1,0-0.3,0.1-0.4l1.5-4.1
			c0.2-0.6-0.1-1.2-0.7-1.4c-0.1,0-0.2-0.1-0.3-0.1H23c-0.6,0-1.1-0.5-1.1-1.1v-8.3c0-0.6,0.5-1.1,1.1-1.1h8.3
			c0.6,0,1.1,0.5,1.1,1.1V21.6z"/>
	</g>
</g>
</svg>
