<?xml version="1.0" encoding="utf-8"?>
<!-- Generator: Adobe Illustrator 23.0.1, SVG Export Plug-In . SVG Version: 6.00 Build 0)  -->
<svg version="1.1" id="Layer_1" xmlns="http://www.w3.org/2000/svg" xmlns:xlink="http://www.w3.org/1999/xlink" x="0px" y="0px"
	 viewBox="0 0 40 40" style="enable-background:new 0 0 40 40;" xml:space="preserve">
<style type="text/css">
	.st0{fill:#83889E;}
</style>
<title>20220503Asset 1</title>
<g>
	<g id="php">
		<path class="st0" d="M12.9,17.8L12.2,21c1.6,0,2.8,0.2,3.2-1.6C15.7,17.7,14.6,17.8,12.9,17.8z"/>
		<path class="st0" d="M25.8,17.8L25.2,21c1.5,0,2.8,0.2,3.2-1.6C28.7,17.7,27.5,17.8,25.8,17.8z"/>
		<path class="st0" d="M20,13.2c-7.7,0-13.7,3.3-13.7,6.8s6,6.8,13.7,6.8s13.7-3.2,13.7-6.8S27.7,13.2,20,13.2z M12,22.2l-0.4,2H9.9
			l1.5-7.6h3.2c1,0,1.7,0.2,2.1,0.8c0.8,1,0.5,2.9-0.6,4C15,22.4,13.9,22.2,12,22.2z M20.9,22.2c0.7-3.6,0.8-3.9,0.6-4.2
			c-0.3-0.3-0.8-0.2-2.1-0.2l-0.9,4.4h-1.6l1.5-7.6H20l-0.4,2c1.4,0,2.7-0.1,3.4,0.5c0.6,0.6,0.3,1.4-0.4,5.1H20.9z M29,21.4
			c-1,1-2.1,0.9-4.1,0.9l-0.4,2h-1.7l1.5-7.6h3.2c1,0,1.7,0.2,2.1,0.8C30.5,18.4,30.2,20.3,29,21.4L29,21.4z"/>
		<path class="st0" d="M38.4,0H1.6C0.7,0,0,0.7,0,1.6l0,0v36.8C0,39.3,0.7,40,1.6,40l0,0h36.8c0.9,0,1.6-0.7,1.6-1.6V1.6
			C40,0.7,39.3,0,38.4,0L38.4,0z M20,27.6c-8,0-14.5-3.4-14.5-7.6S12,12.4,20,12.4s14.5,3.4,14.5,7.6S28,27.6,20,27.6z"/>
	</g>
</g>
</svg>
