<?xml version="1.0" encoding="utf-8"?>
<!-- Generator: Adobe Illustrator 26.0.2, SVG Export Plug-In . SVG Version: 6.00 Build 0)  -->
<svg version="1.1" xmlns="http://www.w3.org/2000/svg" xmlns:xlink="http://www.w3.org/1999/xlink" x="0px" y="0px"
	 viewBox="0 0 54 42" style="enable-background:new 0 0 54 42;" xml:space="preserve">
<style type="text/css">
	.st0{fill:#FFFFFF;}
	.st1{fill:#4070FF;}
</style>
<g id="set_presentation_view">
	<g>
		<path class="st0" d="M27,2.76C16.93,2.76,8.76,10.93,8.76,21S16.93,39.24,27,39.24S45.24,31.07,45.24,21S37.07,2.76,27,2.76z"/>
		<path class="st1" d="M29.78,18.44c-0.13-0.2-0.36-0.32-0.6-0.32c-0.24,0-0.46,0.12-0.6,0.36l-4.21,6.27l-1.46-2.01
			c-0.14-0.19-0.35-0.3-0.58-0.3c-0.23,0-0.45,0.11-0.58,0.3l-3.16,4.33c-0.16,0.22-0.18,0.51-0.06,0.75
			c0.12,0.24,0.37,0.39,0.64,0.39h15.78c0.27,0,0.51-0.14,0.64-0.38c0.13-0.24,0.11-0.52-0.04-0.74L29.78,18.44z"/>
		<circle class="st1" cx="20.49" cy="15.95" r="2.16"/>
		<path class="st1" d="M27,2.76C16.93,2.76,8.76,10.93,8.76,21S16.93,39.24,27,39.24S45.24,31.07,45.24,21S37.07,2.76,27,2.76z
			 M38.52,28.21c0,1.59-1.29,2.88-2.88,2.88H18.33c-1.55,0-2.84-1.29-2.84-2.88V13.79c0-1.59,1.29-2.88,2.84-2.88h17.31
			c1.63,0,2.88,1.29,2.88,2.88V28.21z"/>
	</g>
</g>
</svg>
