<?xml version="1.0" encoding="utf-8"?>
<!-- Generator: Adobe Illustrator 26.0.2, SVG Export Plug-In . SVG Version: 6.00 Build 0)  -->
<!-- 
Copyright (c) 2025 Bloxtor (http://bloxtor.com) and Joao Pinto (http://jplpinto.com)

Multi-licensed: BSD 3-Clause | Apache 2.0 | GNU LGPL v3 | HLNC License (http://bloxtor.com/LICENSE_HLNC.md)
Choose one license that best fits your needs.

Original Bloxtor Repo: https://github.com/a19836/bloxtor

YOU ARE NOT AUTHORIZED TO MODIFY OR REMOVE ANY PART OF THIS NOTICE!
-->
<svg version="1.1" xmlns="http://www.w3.org/2000/svg" xmlns:xlink="http://www.w3.org/1999/xlink" x="0px" y="0px"
	 viewBox="0 0 54 42" style="enable-background:new 0 0 54 42;" xml:space="preserve">
<style type="text/css">
	.st0{fill:#FFFFFF;}
	.st1{fill:#83889E;}
</style>
<g id="include_block">
	<g>
		<path class="st0" d="M27,2.76C16.93,2.76,8.76,10.93,8.76,21S16.93,39.24,27,39.24S45.24,31.07,45.24,21S37.07,2.76,27,2.76z"/>
		<polygon class="st1" points="28.36,28.58 35.15,26.16 35.15,18.17 28.36,20.6 		"/>
		<polygon class="st1" points="27,12.93 19.62,15.56 27,18.2 34.38,15.56 		"/>
		<path class="st1" d="M27,2.76C16.93,2.76,8.76,10.93,8.76,21S16.93,39.24,27,39.24S45.24,31.07,45.24,21S37.07,2.76,27,2.76z
			 M37.87,26.16c0,1.15-0.76,2.17-1.8,2.56l-8.15,2.91c-0.59,0.21-1.24,0.21-1.83,0l-8.16-2.91c-1.08-0.39-1.8-1.41-1.8-2.56V15.84
			c0-1.15,0.72-2.18,1.8-2.56l8.16-2.91c0.59-0.21,1.24-0.21,1.83,0l8.15,2.91c1.04,0.39,1.8,1.41,1.8,2.56V26.16z"/>
	</g>
</g>
</svg>
