<?xml version="1.0" encoding="utf-8"?>
<!-- Generator: Adobe Illustrator 23.0.1, SVG Export Plug-In . SVG Version: 6.00 Build 0)  -->
<svg version="1.1" id="Layer_1" xmlns="http://www.w3.org/2000/svg" xmlns:xlink="http://www.w3.org/1999/xlink" x="0px" y="0px"
	 viewBox="0 0 40 40" style="enable-background:new 0 0 40 40;" xml:space="preserve">
<style type="text/css">
	.st0{fill:#83889E;}
</style>
<title>20220503Asset 38</title>
<g>
	<g id="button">
		<path class="st0" d="M38.4,0H1.6C0.7,0,0,0.7,0,1.6l0,0v36.8C0,39.3,0.7,40,1.6,40l0,0h36.8c0.9,0,1.6-0.7,1.6-1.6V1.6
			C40,0.7,39.3,0,38.4,0L38.4,0z M36,28.1c0,2.3-1.9,4.2-4.2,4.2H29c-1.3,0-2.4-0.6-3.2-1.6L23,27.1c-0.2-0.2-0.2-0.4-0.2-0.7
			c0-0.6,0.5-1.2,1.2-1.2c0.4,0,0.7,0.2,0.9,0.5l1.7,2.2v-9.5c0-0.7,0.5-1.2,1.1-1.2c0.7,0,1.2,0.5,1.2,1.1v0.1v4.4
			c0.3-0.2,0.6-0.4,0.9-0.4c0.7,0,1.3,0.5,1.4,1.2c0.4-0.7,1.3-0.9,1.9-0.5c0.3,0.2,0.6,0.6,0.7,1c0.2-0.1,0.5-0.2,0.7-0.2
			c0.8,0,1.4,0.6,1.4,1.4L36,28.1L36,28.1z M36,18.5c0,1.1-0.9,2-2,2l0,0h-3.9v-2c0-1.3-1-2.4-2.3-2.4l0,0c-1.3,0-2.4,1.1-2.4,2.4v2
			H6c-1.1,0-2-0.9-2-2l0,0v-6.9c0-1.1,0.9-2,2-2h28c1.1,0,2,0.9,2,2l0,0V18.5z"/>
	</g>
</g>
</svg>
