<?xml version="1.0" encoding="utf-8"?>
<!-- Generator: Adobe Illustrator 26.0.2, SVG Export Plug-In . SVG Version: 6.00 Build 0)  -->
<!-- 
Copyright (c) 2025 Bloxtor (http://bloxtor.com) and Joao Pinto (http://jplpinto.com)

Multi-licensed: BSD 3-Clause | Apache 2.0 | GNU LGPL v3 | HLNC License (http://bloxtor.com/LICENSE_HLNC.md)
Choose one license that best fits your needs.

Original Bloxtor Repo: https://github.com/a19836/bloxtor

YOU ARE NOT AUTHORIZED TO MODIFY OR REMOVE ANY PART OF THIS NOTICE!
-->
<svg version="1.1" xmlns="http://www.w3.org/2000/svg" xmlns:xlink="http://www.w3.org/1999/xlink" x="0px" y="0px"
	 viewBox="0 0 54 42" style="enable-background:new 0 0 54 42;" xml:space="preserve">
<style type="text/css">
	.st0{fill:#FFFFFF;}
	.st1{fill:#83889E;}
</style>
<g id="get_url_via_CURL">
	<path class="st0" d="M27,2.76C16.93,2.76,8.76,10.93,8.76,21S16.93,39.24,27,39.24S45.24,31.07,45.24,21S37.07,2.76,27,2.76z"/>
	<path class="st1" d="M43.13,12.48l-4.5,2.87c0.45,1.75,0.08,3.69-1.17,5.18l-4.1,4.91c-2.06,2.47-5.73,2.8-8.2,0.73
		c-2.18-1.83-2.73-4.96-1.28-7.42l0.04-0.07c0.33-0.61,1.12-0.81,1.76-0.46c0.61,0.33,0.82,1.12,0.46,1.76l-0.04,0.07
		c-0.81,1.33-0.5,3.12,0.72,4.14c1.37,1.15,3.42,0.96,4.57-0.41l4.1-4.9c1.15-1.38,0.96-3.46-0.41-4.57
		c-1.21-1.02-2.99-1.01-4.19,0.03l-0.06,0.05c-0.54,0.46-1.36,0.37-1.81-0.14c-0.46-0.54-0.4-1.35,0.14-1.82l0.06-0.05
		c2.16-1.85,5.34-1.87,7.53-0.05c0.15,0.12,0.29,0.25,0.42,0.39l4.35-2.78C38.17,5.58,32.91,2.76,27,2.76
		C16.93,2.76,8.76,10.93,8.76,21c0,3.08,0.76,5.97,2.11,8.52l4.5-2.87c-0.45-1.75-0.08-3.69,1.17-5.18l4.1-4.94
		c2.03-2.43,5.74-2.76,8.16-0.73c2.18,1.83,2.77,5,1.32,7.45l-0.04,0.07c-0.36,0.61-1.15,0.82-1.76,0.46
		c-0.61-0.36-0.82-1.15-0.46-1.76l0.04-0.07c0.8-1.37,0.5-3.12-0.72-4.14c-1.37-1.15-3.42-0.96-4.57,0.41l-4.1,4.9
		c-1.15,1.34-0.97,3.42,0.41,4.57c1.21,1.02,2.99,1.01,4.19-0.03l0.06-0.09c0.54-0.43,1.36-0.37,1.82,0.17
		c0.46,0.54,0.4,1.35-0.14,1.82l-0.06,0.05c-2.19,1.86-5.34,1.87-7.53,0.05c-0.15-0.12-0.29-0.25-0.42-0.39l-4.35,2.78
		c3.33,4.36,8.59,7.18,14.5,7.18c10.07,0,18.24-8.16,18.24-18.24C45.24,17.92,44.47,15.03,43.13,12.48z"/>
</g>
</svg>
