<?xml version="1.0" encoding="utf-8"?>
<!-- Generator: Adobe Illustrator 26.0.2, SVG Export Plug-In . SVG Version: 6.00 Build 0)  -->
<!-- 
Copyright (c) 2025 Bloxtor (http://bloxtor.com) and Joao Pinto (http://jplpinto.com)

Multi-licensed: BSD 3-Clause | Apache 2.0 | GNU LGPL v3 | HLNC License (http://bloxtor.com/LICENSE_HLNC.md)
Choose one license that best fits your needs.

Original Bloxtor Repo: https://github.com/a19836/bloxtor

YOU ARE NOT AUTHORIZED TO MODIFY OR REMOVE ANY PART OF THIS NOTICE!
-->
<svg version="1.1" xmlns="http://www.w3.org/2000/svg" xmlns:xlink="http://www.w3.org/1999/xlink" x="0px" y="0px"
	 viewBox="0 0 54 42" style="enable-background:new 0 0 54 42;" xml:space="preserve">
<style type="text/css">
	.st0{fill:#FFFFFF;}
	.st1{fill:#83889E;}
</style>
<g id="set_template_param">
	<g>
		<!--path class="st0" d="M27,2.76C16.93,2.76,8.76,10.93,8.76,21S16.93,39.24,27,39.24S45.24,31.07,45.24,21S37.07,2.76,27,2.76z"/-->
		<path class="st1" d="M18.67,26.31c-0.42,0-0.76,0.34-0.76,0.76v0.76c0,0.42,0.34,0.76,0.76,0.76h2.93h0.8v-2.27h-0.8H18.67z"/>
		<path class="st1" d="M26.56,12.21c0.23,0.23,0.6,0.23,0.83,0l2.64-2.64c0.23-0.23,0.23-0.6,0-0.83c-0.23-0.23-0.6-0.23-0.83,0
			l-2.23,2.23l-1.05-1.05c-0.23-0.23-0.6-0.23-0.83,0c-0.23,0.23-0.23,0.6,0,0.83L26.56,12.21z"/>
		<path class="st1" d="M19.43,23.28h15.14c0.83,0,1.51-0.68,1.51-1.51v-3.03c0-0.83-0.68-1.51-1.51-1.51H19.43
			c-0.83,0-1.51,0.68-1.51,1.51v3.03C17.92,22.6,18.6,23.28,19.43,23.28z"/>
		<path class="st1" d="M35.35,26.31h-4.29v2.27h4.29c0.42,0,0.76-0.34,0.76-0.76v-0.76C36.11,26.65,35.77,26.31,35.35,26.31z"/>
		<rect x="23.99" y="26.31" class="st1" width="5.49" height="2.27"/>
		<path class="st1" d="M27,2.76C16.93,2.76,8.76,10.93,8.76,21S16.93,39.24,27,39.24S45.24,31.07,45.24,21S37.07,2.76,27,2.76z
			 M27.56,5.32c3.04,0,5.5,2.46,5.5,5.5c0,1.42-0.54,2.71-1.42,3.69h-8.15c-0.88-0.98-1.42-2.27-1.42-3.69
			C22.06,7.78,24.52,5.32,27.56,5.32z M39.11,29.33c0,1.67-1.35,3.03-3.03,3.03H17.92c-1.67,0-3.03-1.35-3.03-3.03V17.22
			c0-1.67,1.35-3.03,3.03-3.03h3.93l0.35,0.52l-0.14,0.56h10.93l-0.14-0.42l0.42-0.66h2.82c1.67,0,3.03,1.35,3.03,3.03V29.33z"/>
	</g>
</g>
</svg>
