<?xml version="1.0" encoding="utf-8"?>
<!-- Generator: Adobe Illustrator 23.0.1, SVG Export Plug-In . SVG Version: 6.00 Build 0)  -->
<svg version="1.1" id="Layer_1" xmlns="http://www.w3.org/2000/svg" xmlns:xlink="http://www.w3.org/1999/xlink" x="0px" y="0px"
	 viewBox="0 0 40 40" style="enable-background:new 0 0 40 40;" xml:space="preserve">
<style type="text/css">
	.st0{fill:#83889E;}
</style>
<title>20220503Asset 32</title>
<g>
	<g id="html_block">
		<path class="st0" d="M30.4,12H9.6C9.3,12,9,12.3,9,12.6l0,0v14.9c0,0.3,0.3,0.6,0.6,0.6l0,0h20.9c0.3,0,0.6-0.3,0.6-0.6l0,0V12.6
			C31,12.3,30.7,12,30.4,12L30.4,12z M17.6,24.1c0.3,0.3,0.2,0.8-0.1,1.1c-0.3,0.2-0.7,0.2-1,0l-4.7-4.7c-0.3-0.3-0.3-0.8,0-1.1l0,0
			l4.7-4.7c0.3-0.3,0.8-0.2,1.1,0.1c0.2,0.3,0.2,0.7,0,1L13.5,20L17.6,24.1z M28.1,20.5l-4.6,4.7c-0.3,0.3-0.8,0.2-1.1-0.1
			c-0.2-0.3-0.2-0.7,0-1l4.1-4.1l-4.1-4.1c-0.3-0.3-0.2-0.8,0.1-1.1c0.3-0.2,0.7-0.2,1,0l4.7,4.7C28.4,19.8,28.4,20.2,28.1,20.5
			L28.1,20.5L28.1,20.5z"/>
		<path class="st0" d="M38.4,0H1.6C0.7,0,0,0.7,0,1.6l0,0v36.8C0,39.3,0.7,40,1.6,40l0,0h36.8c0.9,0,1.6-0.7,1.6-1.6V1.6
			C40,0.7,39.3,0,38.4,0L38.4,0z M33.4,27.4c0,1.6-1.3,3-3,3l0,0H9.6c-1.6,0-3-1.3-3-3l0,0V12.6c0-1.6,1.3-3,3-3l0,0h20.9
			c1.6,0,3,1.3,3,3l0,0L33.4,27.4L33.4,27.4z"/>
	</g>
</g>
</svg>
