<?xml version="1.0" encoding="utf-8"?>
<!-- Generator: Adobe Illustrator 23.0.1, SVG Export Plug-In . SVG Version: 6.00 Build 0)  -->
<svg version="1.1" id="Layer_1" xmlns="http://www.w3.org/2000/svg" xmlns:xlink="http://www.w3.org/1999/xlink" x="0px" y="0px"
	 viewBox="0 0 40 40" style="enable-background:new 0 0 40 40;" xml:space="preserve">
<style type="text/css">
	.st0{fill:#83889E;}
</style>
<title>20220503Asset 31</title>
<g>
	<g id="html_comment">
		<path class="st0" d="M20,24.5c-0.8,0-1.4,0.6-1.4,1.4c0,0.8,0.6,1.4,1.4,1.4l0,0c0.8,0,1.4-0.6,1.4-1.4S20.8,24.5,20,24.5z"/>
		<path class="st0" d="M20,22.8c0.6,0,1.1-0.5,1.1-1.1v-7.8c0-0.6-0.5-1.1-1.1-1.1s-1.1,0.5-1.1,1.1l0,0v7.7
			C18.9,22.2,19.4,22.8,20,22.8L20,22.8z"/>
		<path class="st0" d="M38.4,0H1.6C0.7,0,0,0.7,0,1.6l0,0v36.8C0,39.3,0.7,40,1.6,40l0,0h36.8c0.9,0,1.6-0.7,1.6-1.6V1.6
			C40,0.7,39.3,0,38.4,0L38.4,0z M33.5,27.5c0,1.8-1.5,3.2-3.2,3.2l0,0h-7.8l-6.4,4.8c-0.3,0.2-0.7,0.1-0.9-0.1
			c-0.1-0.1-0.1-0.2-0.1-0.4v-4.3H9.8c-1.8,0-3.2-1.4-3.3-3.2V12.8C6.5,11,8,9.6,9.8,9.6l0,0h20.4c1.8,0,3.3,1.4,3.3,3.2l0,0
			C33.5,12.8,33.5,27.5,33.5,27.5z"/>
	</g>
</g>
</svg>
