<?xml version="1.0" encoding="utf-8"?>
<!-- Generator: Adobe Illustrator 23.0.1, SVG Export Plug-In . SVG Version: 6.00 Build 0)  -->
<svg version="1.1" id="Layer_1" xmlns="http://www.w3.org/2000/svg" xmlns:xlink="http://www.w3.org/1999/xlink" x="0px" y="0px"
	 viewBox="0 0 40 40" style="enable-background:new 0 0 40 40;" xml:space="preserve">
<style type="text/css">
	.st0{fill:#83889E;}
</style>
<title>20220503Asset 35</title>
<g>
	<g id="text">
		<path class="st0" d="M38.4,0H1.6C0.7,0,0,0.7,0,1.6l0,0v36.8C0,39.3,0.7,40,1.6,40l0,0h36.8c0.9,0,1.6-0.7,1.6-1.6V1.6
			C40,0.7,39.3,0,38.4,0L38.4,0z M29.2,15c0,1-0.8,1.8-1.8,1.8S25.6,16,25.6,15l0,0v-1.8h-3.7v13.7h1.8c1,0,1.8,0.8,1.8,1.8
			s-0.8,1.8-1.8,1.8l0,0h-7.4c-1,0-1.8-0.8-1.8-1.8s0.8-1.8,1.8-1.8h1.8V13.1h-3.7V15c0,1-0.8,1.8-1.8,1.8S10.8,16,10.8,15l0,0v-3.7
			c0-1,0.8-1.8,1.8-1.8l0,0h14.7c1,0,1.8,0.8,1.8,1.8V15H29.2z"/>
	</g>
</g>
</svg>
