<?xml version="1.0" encoding="UTF-8" standalone="no"?>
<!-- Generator: Adobe Illustrator 23.0.1, SVG Export Plug-In . SVG Version: 6.00 Build 0)  -->

<svg
   xmlns:dc="http://purl.org/dc/elements/1.1/"
   xmlns:cc="http://creativecommons.org/ns#"
   xmlns:rdf="http://www.w3.org/1999/02/22-rdf-syntax-ns#"
   xmlns:svg="http://www.w3.org/2000/svg"
   xmlns="http://www.w3.org/2000/svg"
   xmlns:sodipodi="http://sodipodi.sourceforge.net/DTD/sodipodi-0.dtd"
   xmlns:inkscape="http://www.inkscape.org/namespaces/inkscape"
   version="1.1"
   id="Layer_1"
   x="0px"
   y="0px"
   viewBox="0 0 40 40"
   style="enable-background:new 0 0 40 40;"
   xml:space="preserve"
   sodipodi:docname="html_code_logo.svg"
   inkscape:version="0.92.3 (2405546, 2018-03-11)"><metadata
   id="metadata18"><rdf:RDF><cc:Work
       rdf:about=""><dc:format>image/svg+xml</dc:format><dc:type
         rdf:resource="http://purl.org/dc/dcmitype/StillImage" /></cc:Work></rdf:RDF></metadata><defs
   id="defs16" /><sodipodi:namedview
   pagecolor="#ffffff"
   bordercolor="#666666"
   borderopacity="1"
   objecttolerance="10"
   gridtolerance="10"
   guidetolerance="10"
   inkscape:pageopacity="0"
   inkscape:pageshadow="2"
   inkscape:window-width="1366"
   inkscape:window-height="670"
   id="namedview14"
   showgrid="false"
   inkscape:zoom="5.9"
   inkscape:cx="20"
   inkscape:cy="20"
   inkscape:window-x="0"
   inkscape:window-y="27"
   inkscape:window-maximized="1"
   inkscape:current-layer="Layer_1" />
<style
   type="text/css"
   id="style2">
	.st0{fill:#83889E;}
</style>
<title
   id="title4">20220503Asset 32</title>
<g
   id="g11">
	<g
   id="html_block">
		<path
   class="st0"
   d="M30.4,12H9.6C9.3,12,9,12.3,9,12.6l0,0v14.9c0,0.3,0.3,0.6,0.6,0.6l0,0h20.9c0.3,0,0.6-0.3,0.6-0.6l0,0V12.6    C31,12.3,30.7,12,30.4,12L30.4,12z M17.6,24.1c0.3,0.3,0.2,0.8-0.1,1.1c-0.3,0.2-0.7,0.2-1,0l-4.7-4.7c-0.3-0.3-0.3-0.8,0-1.1l0,0    l4.7-4.7c0.3-0.3,0.8-0.2,1.1,0.1c0.2,0.3,0.2,0.7,0,1L13.5,20L17.6,24.1z M28.1,20.5l-4.6,4.7c-0.3,0.3-0.8,0.2-1.1-0.1    c-0.2-0.3-0.2-0.7,0-1l4.1-4.1l-4.1-4.1c-0.3-0.3-0.2-0.8,0.1-1.1c0.3-0.2,0.7-0.2,1,0l4.7,4.7C28.4,19.8,28.4,20.2,28.1,20.5    L28.1,20.5L28.1,20.5z"
   id="path6" />
		<path
   class="st0"
   d="M 38.4,0 H 1.6 C 0.7,0 0,0.7 0,1.6 v 0 36.8 C 0,39.3 0.7,40 1.6,40 v 0 H 38.4 C 39.3,40 40,39.3 40,38.4 V 1.6 C 40,0.7 39.3,0 38.4,0 Z"
   id="path8"
   inkscape:connector-curvature="0"
   style="fill:#83889e"
   sodipodi:nodetypes="ssccsccssss" />
	</g>
</g>
<path
   inkscape:connector-curvature="0"
   style="opacity:1;fill:#ffffff;stroke-width:0.03125"
   d="m 22.890625,11.5375 c -0.53125,-0.153125 -1.084375,0.15625 -1.2375,0.6875 l -4,14 c -0.153125,0.53125 0.15625,1.084375 0.6875,1.2375 0.53125,0.153125 1.084375,-0.15625 1.2375,-0.6875 l 4,-14 c 0.153125,-0.53125 -0.15625,-1.084375 -0.6875,-1.2375 z m 2.51875,3.753125 c -0.390625,0.390625 -0.390625,1.025 0,1.415625 L 28.2,19.5 25.40625,22.29375 c -0.390625,0.390625 -0.390625,1.025 0,1.415625 0.390625,0.390625 1.025,0.390625 1.415625,0 l 3.5,-3.5 c 0.390625,-0.390625 0.390625,-1.025 0,-1.415625 l -3.5,-3.5 c -0.390625,-0.390625 -1.025,-0.390625 -1.415625,0 z m -9.584375,0 C 15.434375,14.9 14.8,14.9 14.409375,15.290625 l -3.5,3.5 c -0.390625,0.390625 -0.390625,1.025 0,1.415625 l 3.5,3.5 c 0.390625,0.390625 1.025,0.390625 1.415625,0 0.390625,-0.390625 0.390625,-1.025 0,-1.415625 L 13.03125,19.5 15.825,16.70625 c 0.390625,-0.390625 0.390625,-1.025 0,-1.415625 z"
   id="path2" /></svg>