<svg xmlns="http://www.w3.org/2000/svg" viewBox="0 0 40 40">
<defs>
<style>.cls-1{fill:#83889E;}.cls-2{fill:#fff;}</style>
</defs>
<title>20220503Asset 4840px</title>
<g id="Layer_2" data-name="Layer 2">
	<g id="user_generated_widget_1" data-name="user generated widget 1">
		<rect class="cls-1" width="40" height="40" rx="1.62"/>
		<path class="cls-2" d="M20,12.2A7.8,7.8,0,1,0,27.8,20,7.76,7.76,0,0,0,20,12.2Zm0,18.2A10.4,10.4,0,1,1,30.4,20,10.4,10.4,0,0,1,20,30.4Z"/>
		<path class="cls-2" d="M20,16.75A3.25,3.25,0,1,0,23.25,20,3.24,3.24,0,0,0,20,16.75Zm0,9.1A5.85,5.85,0,1,1,25.85,20,5.85,5.85,0,0,1,20,25.85Z"/>
		<circle class="cls-2" cx="20" cy="20" r="1.3"/>
	</g>
</g>
</svg>
