<?xml version="1.0" encoding="utf-8"?>
<!-- Generator: Adobe Illustrator 26.0.2, SVG Export Plug-In . SVG Version: 6.00 Build 0)  -->
<svg version="1.1" xmlns="http://www.w3.org/2000/svg" xmlns:xlink="http://www.w3.org/1999/xlink" x="0px" y="0px"
	 viewBox="0 0 54 42" style="enable-background:new 0 0 54 42;" xml:space="preserve">
<style type="text/css">
	.st0{fill:#FFFFFF;}
	.st1{fill:#83889E;}
</style>
<g id="create_a_new_object_from_a_class">
	<!--path class="st0" d="M27,2.76C16.93,2.76,8.76,10.93,8.76,21S16.93,39.24,27,39.24S45.24,31.07,45.24,21S37.07,2.76,27,2.76z"/-->
	<path class="st1" d="M27,2.76C16.93,2.76,8.76,10.93,8.76,21S16.93,39.24,27,39.24S45.24,31.07,45.24,21S37.07,2.76,27,2.76z
		 M26.43,25.83c-0.28,0.5-0.82,0.77-1.4,0.77H15.4c-0.58,0-1.11-0.27-1.4-0.77c-0.29-0.51-0.28-1.12,0.02-1.62l4.82-8.03
		c0.29-0.48,0.81-0.78,1.38-0.78c0.56,0,1.09,0.3,1.38,0.78l4.82,8.03C26.72,24.71,26.72,25.33,26.43,25.83z M39.76,24.62
		c0,1.11-0.9,2.01-2.01,2.01h-7.23c-1.11,0-2.01-0.9-2.01-2.01v-7.23c0-1.11,0.9-2.01,2.01-2.01h7.23c1.11,0,2.01,0.9,2.01,2.01
		V24.62z"/>
</g>
</svg>
