<?xml version="1.0" encoding="utf-8"?>
<!-- Generator: Adobe Illustrator 26.0.2, SVG Export Plug-In . SVG Version: 6.00 Build 0)  -->
<!-- 
Copyright (c) 2025 Bloxtor (http://bloxtor.com) and Joao Pinto (http://jplpinto.com)

Multi-licensed: BSD 3-Clause | Apache 2.0 | GNU LGPL v3 | HLNC License (http://bloxtor.com/LICENSE_HLNC.md)
Choose one license that best fits your needs.

Original Bloxtor Repo: https://github.com/a19836/bloxtor

YOU ARE NOT AUTHORIZED TO MODIFY OR REMOVE ANY PART OF THIS NOTICE!
-->
<svg version="1.1" xmlns="http://www.w3.org/2000/svg" xmlns:xlink="http://www.w3.org/1999/xlink" x="0px" y="0px"
	 viewBox="0 0 54 42" style="enable-background:new 0 0 54 42;" xml:space="preserve">
<style type="text/css">
	.st0{fill:#FFFFFF;}
	.st1{fill:#4070FF;}
</style>
<g id="create_array">
	<path class="st0" d="M27,2.76C16.93,2.76,8.76,10.93,8.76,21S16.93,39.24,27,39.24S45.24,31.07,45.24,21S37.07,2.76,27,2.76z"/>
	<g>
		<g>
			<path class="st1" d="M27,2.76C16.93,2.76,8.76,10.93,8.76,21S16.93,39.24,27,39.24S45.24,31.07,45.24,21S37.07,2.76,27,2.76z
				 M17.77,12.79H36.1c0.85,0,1.53,0.68,1.53,1.53c0,0.85-0.68,1.53-1.53,1.53H17.77c-0.84,0-1.53-0.68-1.53-1.53
				C16.24,13.47,16.92,12.79,17.77,12.79z M36.1,29.21H17.77c-0.84,0-1.53-0.68-1.53-1.53c0-0.85,0.68-1.53,1.53-1.53H36.1
				c0.85,0,1.53,0.68,1.53,1.53C37.63,28.53,36.95,29.21,36.1,29.21z M37.7,24.76H19.37c-0.84,0-1.53-0.68-1.53-1.53
				s0.68-1.53,1.53-1.53H37.7c0.85,0,1.53,0.68,1.53,1.53S38.55,24.76,37.7,24.76z M37.7,20.3H19.37c-0.84,0-1.53-0.68-1.53-1.53
				c0-0.84,0.68-1.53,1.53-1.53H37.7c0.85,0,1.53,0.68,1.53,1.53C39.23,19.62,38.55,20.3,37.7,20.3z"/>
		</g>
	</g>
</g>
</svg>
