<?xml version="1.0" encoding="utf-8"?>
<!-- Generator: Adobe Illustrator 26.0.2, SVG Export Plug-In . SVG Version: 6.00 Build 0)  -->
<svg version="1.1" xmlns="http://www.w3.org/2000/svg" xmlns:xlink="http://www.w3.org/1999/xlink" x="0px" y="0px"
	 viewBox="0 0 54 42" style="enable-background:new 0 0 54 42;" xml:space="preserve">
<style type="text/css">
	.st0{fill:#FFFFFF;}
	.st1{fill:#83889E;}
</style>
<g id="add_template_region_block">
	<g>
		<path class="st0" d="M42.69,5.31H11.31c-2.89,0-5.23,2.34-5.23,5.23v20.92c0,2.89,2.34,5.23,5.23,5.23h31.37
			c2.89,0,5.23-2.34,5.23-5.23V10.54C47.92,7.65,45.58,5.31,42.69,5.31z"/>
		<path class="st1" d="M42.69,5.31H11.31c-2.89,0-5.23,2.34-5.23,5.23v20.92c0,2.89,2.34,5.23,5.23,5.23h31.37
			c2.89,0,5.23-2.34,5.23-5.23V10.54C47.92,7.65,45.58,5.31,42.69,5.31z M11.31,13.16c0-1.44,1.17-2.61,2.61-2.61h26.15
			c1.44,0,2.61,1.17,2.61,2.61v5.23c0,1.44-1.17,2.61-2.61,2.61H13.93c-1.44,0-2.61-1.18-2.61-2.61V13.16z M21.8,26.23h9.48v3.92
			H21.8V26.23z M12.62,30.15c-0.72,0-1.31-0.58-1.31-1.31v-1.31c0-0.73,0.58-1.31,1.31-1.31h5.07h1.39v3.92h-1.39H12.62z
			 M42.74,28.84c0,0.72-0.59,1.31-1.31,1.31h-7.41v-3.92h7.41c0.72,0,1.31,0.59,1.31,1.31V28.84z"/>
		<path class="st1" d="M26.64,11.56c0.23-0.08,0.48-0.08,0.71,0l3.18,1.14c0.41,0.15,0.7,0.55,0.7,1v4.03c0,0.45-0.3,0.85-0.7,1
			l-3.18,1.14c-0.23,0.08-0.48,0.08-0.71,0l-3.18-1.14c-0.42-0.15-0.7-0.55-0.7-1V13.7c0-0.45,0.28-0.85,0.7-1L26.64,11.56z
			 M27,12.56l-2.88,1.03L27,14.62l2.88-1.03L27,12.56z M27.53,18.67l2.65-0.95v-3.12l-2.65,0.95V18.67z"/>
	</g>
</g>
</svg>
