<?xml version="1.0" encoding="utf-8"?>
<!-- Generator: Adobe Illustrator 26.0.2, SVG Export Plug-In . SVG Version: 6.00 Build 0)  -->
<svg version="1.1" xmlns="http://www.w3.org/2000/svg" xmlns:xlink="http://www.w3.org/1999/xlink" x="0px" y="0px"
	 viewBox="0 0 54 42" style="enable-background:new 0 0 54 42;" xml:space="preserve">
<style type="text/css">
	.st0{fill:#FFFFFF;}
	.st1{fill:#83889E;}
</style>
<g id="switch">
	<!--path class="st0" d="M33.68,34.36H20.32c-7.38,0-13.36-5.99-13.36-13.36c0-7.44,5.98-13.36,13.36-13.36h13.36
		c7.38,0,13.36,5.92,13.36,13.36C47.04,28.38,41.06,34.36,33.68,34.36z"/-->
	<path class="st1" d="M20.32,27.68c-3.75,0-6.68-2.99-6.68-6.68c0-3.75,2.93-6.68,6.68-6.68c3.69,0,6.68,2.93,6.68,6.68
		C27,24.69,24.01,27.68,20.32,27.68z M33.68,34.36H20.32c-7.38,0-13.36-5.99-13.36-13.36c0-7.44,5.98-13.36,13.36-13.36h13.36
		c7.38,0,13.36,5.92,13.36,13.36C47.04,28.38,41.06,34.36,33.68,34.36z M33.68,12.09H20.32c-4.92,0-8.91,3.99-8.91,8.91
		s3.99,8.91,8.91,8.91h13.36c4.92,0,8.91-3.99,8.91-8.91S38.6,12.09,33.68,12.09z"/>
</g>
</svg>
