<?xml version="1.0" encoding="utf-8"?>
<!-- Generator: Adobe Illustrator 26.0.2, SVG Export Plug-In . SVG Version: 6.00 Build 0)  -->
<!-- 
Copyright (c) 2025 Bloxtor (http://bloxtor.com) and Joao Pinto (http://jplpinto.com)

Multi-licensed: BSD 3-Clause | Apache 2.0 | GNU LGPL v3 | HLNC License (http://bloxtor.com/LICENSE_HLNC.md)
Choose one license that best fits your needs.

Original Bloxtor Repo: https://github.com/a19836/bloxtor

YOU ARE NOT AUTHORIZED TO MODIFY OR REMOVE ANY PART OF THIS NOTICE!
-->
<svg version="1.1" xmlns="http://www.w3.org/2000/svg" xmlns:xlink="http://www.w3.org/1999/xlink" x="0px" y="0px"
	 viewBox="0 0 54 42" style="enable-background:new 0 0 54 42;" xml:space="preserve">
<style type="text/css">
	.st0{fill:#FFFFFF;}
	.st1{fill:#83889E;}
</style>
<g id="get_db_driver">
	<path class="st0" d="M27,2.76C16.93,2.76,8.76,10.93,8.76,21S16.93,39.24,27,39.24S45.24,31.07,45.24,21S37.07,2.76,27,2.76z"/>
	<path class="st1" d="M27,2.76C16.93,2.76,8.76,10.93,8.76,21S16.93,39.24,27,39.24S45.24,31.07,45.24,21S37.07,2.76,27,2.76z
		 M36.98,21.89v2.68h-1.79v-2.68c0-0.49,0.4-0.89,0.89-0.89C36.58,21,36.98,21.4,36.98,21.89z M22.39,14.1
		c0.92-2.86,3.56-4.77,6.56-4.77c2.27,0,4.33,1.1,5.59,2.86V9.84c0-0.56,0.46-1.02,1.02-1.02c0.56,0,1.02,0.45,1.02,1.02v4.58
		c0,0.56-0.46,1.02-1.02,1.02h-4.07c-0.56,0-1.02-0.45-1.02-1.02c0-0.56,0.46-1.02,1.02-1.02h1.41c-0.89-1.25-2.35-2.03-3.95-2.03
		c-2.12,0-3.98,1.35-4.62,3.37c-0.17,0.53-0.74,0.83-1.28,0.65C22.51,15.21,22.21,14.64,22.39,14.1z M30.72,21
		c0.49,0,0.89,0.4,0.89,0.89v2.68h-1.79v-2.68C29.83,21.4,30.23,21,30.72,21z M30.04,19.86c0.01,0,0.01-0.01,0.02-0.01v0.01
		C30.06,19.86,30.05,19.86,30.04,19.86z M15.86,16.49c0-1.15,2.16-2.13,5.11-2.43c-0.08,0.5,0,1,0.24,1.46
		c0.29,0.57,0.79,1,1.4,1.19c0.25,0.08,0.5,0.12,0.75,0.12c0.37,0,0.75-0.09,1.09-0.26c0.57-0.29,1-0.79,1.2-1.41
		c0.11-0.34,0.27-0.66,0.47-0.94c2.34,0.41,3.94,1.28,3.94,2.27v1.52c0,1.4-3.18,2.54-7.1,2.54s-7.1-1.13-7.1-2.54V16.49z
		 M15.86,19.85c0.47,0.37,1.08,0.67,1.74,0.91c1.42,0.51,3.32,0.8,5.36,0.8s3.94-0.29,5.36-0.8c0.32-0.12,0.64-0.26,0.94-0.41
		c-0.38,0.38-0.62,0.9-0.62,1.48v2.41c-0.58,0.08-1.09,0.41-1.41,0.87c-1.19,0.32-2.67,0.51-4.27,0.51c-3.92,0-7.1-1.13-7.1-2.54
		V19.85z M22.96,30.18c-3.92,0-7.1-1.13-7.1-2.54v-2.72c0.47,0.37,1.08,0.67,1.74,0.91c1.42,0.51,3.32,0.8,5.36,0.8
		c1.4,0,2.74-0.14,3.9-0.39c0,0.02,0,0.04,0,0.05c0,0.71,0.35,1.33,0.89,1.71v0.08c0,0.47,0.06,0.93,0.17,1.38
		C26.65,29.9,24.9,30.18,22.96,30.18z M37.87,27.25v0.89c0,2.16-1.54,3.94-3.57,4.38v2.77h-1.79v-2.77
		c-2.04-0.44-3.57-2.22-3.57-4.38v-0.89c-0.49,0-0.89-0.4-0.89-0.89c0-0.49,0.4-0.89,0.89-0.89h8.93c0.49,0,0.89,0.4,0.89,0.89
		C38.76,26.85,38.36,27.25,37.87,27.25z"/>
</g>
</svg>
