<?xml version="1.0" encoding="utf-8"?>
<!-- Generator: Adobe Illustrator 23.0.1, SVG Export Plug-In . SVG Version: 6.00 Build 0)  -->
<!-- 
Copyright (c) 2025 Bloxtor (http://bloxtor.com) and Joao Pinto (http://jplpinto.com)

Multi-licensed: BSD 3-Clause | Apache 2.0 | GNU LGPL v3 | HLNC License (http://bloxtor.com/LICENSE_HLNC.md)
Choose one license that best fits your needs.

Original JQuery Layout UI Editor Repo: https://github.com/a19836/jquerylayoutuieditor/
Original Bloxtor Repo: https://github.com/a19836/bloxtor

YOU ARE NOT AUTHORIZED TO MODIFY OR REMOVE ANY PART OF THIS NOTICE!
-->
<svg version="1.1" id="Layer_1" xmlns="http://www.w3.org/2000/svg" xmlns:xlink="http://www.w3.org/1999/xlink" x="0px" y="0px"
	 viewBox="0 0 40 40" style="enable-background:new 0 0 40 40;" xml:space="preserve">
<style type="text/css">
	.st0{fill:#83889E;}
</style>
<title>20220503Asset 20</title>
<g>
	<g id="video">
		<path class="st0" d="M38.4,0H1.6C0.7,0,0,0.7,0,1.6l0,0v36.8C0,39.3,0.7,40,1.6,40l0,0h36.8c0.9,0,1.6-0.7,1.6-1.6V1.6
			C40,0.7,39.3,0,38.4,0L38.4,0z M25.2,27.8c0,1.4-1.2,2.6-2.6,2.6l0,0H7c-1.4,0-2.6-1.2-2.6-2.6l0,0V12.2c0-1.4,1.2-2.6,2.6-2.6
			h15.6c1.4,0,2.6,1.2,2.6,2.6C25.2,12.2,25.2,27.8,25.2,27.8z M35.6,27c0,1-0.8,1.7-1.8,1.7c-0.3,0-0.7-0.1-1-0.3l-5.9-4.1v-8.5
			l5.9-4.1c0.8-0.6,1.9-0.4,2.4,0.4c0.2,0.3,0.3,0.6,0.3,1L35.6,27L35.6,27z"/>
	</g>
</g>
</svg>
