<?xml version="1.0" encoding="utf-8"?>
<!-- Generator: Adobe Illustrator 26.0.2, SVG Export Plug-In . SVG Version: 6.00 Build 0)  -->
<svg version="1.1" xmlns="http://www.w3.org/2000/svg" xmlns:xlink="http://www.w3.org/1999/xlink" x="0px" y="0px"
	 viewBox="0 0 54 42" style="enable-background:new 0 0 54 42;" xml:space="preserve">
<style type="text/css">
	.st0{fill:#FFFFFF;}
	.st1{fill:#83889E;}
</style>
<g id="create_form">
	<g>
		<!--path class="st0" d="M27,2.76C16.93,2.76,8.76,10.93,8.76,21S16.93,39.24,27,39.24S45.24,31.07,45.24,21S37.07,2.76,27,2.76z"/-->
		<path class="st1" d="M33.18,12.57l-6.18,0l-6.18,0c-0.13,0.02-0.23,0.14-0.23,0.26v16.32c0,0.14,0.12,0.27,0.27,0.27h2.96h6.37
			h2.96c0.15,0,0.27-0.13,0.27-0.27V12.83C33.41,12.71,33.31,12.59,33.18,12.57z M24.63,22.93h-2.98V21.2h2.98V22.93z M24.63,19.47
			h-2.98v-1.71h2.98V19.47z M32.35,26.38h-3.19v-1.73h3.19V26.38z M32.36,22.93h-6.57V21.2h6.57V22.93z M32.36,19.47h-6.57v-1.71
			h6.57V19.47z"/>
		<path class="st1" d="M27,2.76C16.93,2.76,8.76,10.93,8.76,21S16.93,39.24,27,39.24S45.24,31.07,45.24,21S37.07,2.76,27,2.76z
			 M35.35,18.49v10.87c0,1.14-0.89,2-2,2h-1.26H21.91h-1.26c-1.11,0-2-0.87-2-2V18.49v-5.86c0-0.03,0-0.07,0-0.1
			c0.05-1.08,0.92-1.9,1.99-1.9h0h12.7h0c1.08,0,1.94,0.82,1.99,1.9c0,0.03,0,0.07,0,0.1V18.49z"/>
	</g>
</g>
</svg>
