<?xml version="1.0" encoding="utf-8"?>
<!-- Generator: Adobe Illustrator 26.0.2, SVG Export Plug-In . SVG Version: 6.00 Build 0)  -->
<svg version="1.1" xmlns="http://www.w3.org/2000/svg" xmlns:xlink="http://www.w3.org/1999/xlink" x="0px" y="0px"
	 viewBox="0 0 54 42" style="enable-background:new 0 0 54 42;" xml:space="preserve">
<style type="text/css">
	.st0{fill:#FFFFFF;}
	.st1{fill:#83889E;}
	.st2{fill:#A0B8FF;}
</style>
<g id="call_hibernate_object">
	<g>
		<path class="st0" d="M46.36,18.63c-0.14-1.09-1-2.03-2.08-2.16l-2.72-0.65c-0.65-1.82-1.62-3.48-2.86-4.92l0.86-2.62
			c0.35-1.04,0.06-2.21-0.82-2.87c-0.55-0.41-1.11-0.89-1.69-1.15l-0.62-0.35c-0.58-0.33-1.18-0.62-1.8-0.88
			c-1.11-0.43-2.17-0.09-2.9,0.72l-1.84,2.06c-0.94-0.18-1.9-0.27-2.89-0.27s-1.95,0.09-2.89,0.27l-1.84-2.06
			c-0.84-0.81-1.89-1.15-2.9-0.72c-0.72,0.27-1.22,0.56-1.8,0.88l-0.62,0.35c-0.58,0.26-1.15,0.74-1.69,1.15
			c-0.88,0.66-1.17,1.82-0.82,2.87l0.86,2.62c-1.24,1.43-2.22,3.1-2.86,4.92l-2.72,0.65c-1.08,0.13-1.94,1.07-2.08,2.16
			C7.54,19.41,7.5,20.2,7.5,21s0.05,1.59,0.14,2.37c0.14,1.09,1,1.93,2.08,2.05l2.68,0.64c0.65,1.87,1.64,3.57,2.9,5.03l-0.86,2.62
			c-0.35,1.04-0.06,2.21,0.82,2.87c0.55,0.41,1.1,0.68,1.68,1.14l0.63,0.36c0.58,0.33,1.18,0.62,1.8,0.88
			c1.01,0.43,2.07,0.09,2.9-0.72l1.84-2.06c0.94,0.18,1.9,0.27,2.89,0.27c0.99,0,1.95-0.09,2.89-0.27l1.84,2.06
			c0.73,0.81,1.79,1.15,2.9,0.72c0.51-0.27,1.22-0.56,1.8-0.88l0.63-0.36c0.58-0.45,1.14-0.73,1.68-1.14
			c0.88-0.66,1.17-1.82,0.82-2.87l-0.86-2.62c1.26-1.46,2.26-3.17,2.9-5.03l2.68-0.64c1.08-0.13,1.94-0.96,2.08-2.05
			c0.09-0.78,0.14-1.57,0.14-2.37S46.46,19.41,46.36,18.63z"/>
		<path class="st1" d="M46.36,18.63c-0.14-1.09-1-2.03-2.08-2.16l-2.72-0.65c-0.65-1.82-1.62-3.48-2.86-4.92l0.86-2.62
			c0.35-1.04,0.06-2.21-0.82-2.87c-0.55-0.41-1.11-0.89-1.69-1.15l-0.62-0.35c-0.58-0.33-1.18-0.62-1.8-0.88
			c-1.11-0.43-2.17-0.09-2.9,0.72l-1.84,2.06c-0.94-0.18-1.9-0.27-2.89-0.27c-0.99,0-1.95,0.09-2.89,0.27l-1.84-2.06
			c-0.84-0.81-1.89-1.15-2.9-0.72c-0.72,0.27-1.22,0.56-1.8,0.88l-0.62,0.35c-0.58,0.26-1.15,0.74-1.69,1.15
			c-0.88,0.66-1.17,1.82-0.82,2.87l0.86,2.62c-1.24,1.43-2.22,3.1-2.86,4.92l-2.72,0.65c-1.08,0.13-1.94,1.07-2.08,2.16
			C7.54,19.41,7.5,20.2,7.5,21c0,0.8,0.05,1.59,0.14,2.37c0.14,1.09,1,1.93,2.08,2.05l2.68,0.64c0.65,1.87,1.64,3.57,2.9,5.03
			l-0.86,2.62c-0.35,1.04-0.06,2.21,0.82,2.87c0.55,0.41,1.1,0.68,1.68,1.14l0.63,0.36c0.58,0.33,1.18,0.62,1.8,0.88
			c1.01,0.43,2.07,0.09,2.9-0.72l1.84-2.06c0.94,0.18,1.9,0.27,2.89,0.27s1.95-0.09,2.89-0.27l1.84,2.06
			c0.73,0.81,1.79,1.15,2.9,0.72c0.51-0.27,1.22-0.56,1.8-0.88l0.63-0.36c0.58-0.45,1.14-0.73,1.68-1.14
			c0.88-0.66,1.17-1.82,0.82-2.87l-0.86-2.62c1.26-1.46,2.26-3.17,2.9-5.03l2.68-0.64c1.08-0.13,1.94-0.96,2.08-2.05
			c0.09-0.78,0.14-1.57,0.14-2.37C46.5,20.2,46.46,19.41,46.36,18.63z M25.37,29.47l-3.26-5.64l6.52,0l3.26,5.64H25.37z
			 M25.37,18.17l-3.26-5.64h6.51l3.26,5.64L25.37,18.17z"/>
		<g>
			<path class="st2" d="M18.86,18.17l3.26-5.64l3.26,5.64l-3.26,5.65L18.86,18.17z"/>
			<path class="st2" d="M35.14,23.83l-3.26,5.64l-3.26-5.64l3.26-5.65L35.14,23.83z"/>
		</g>
	</g>
</g>
</svg>
