<?xml version="1.0" encoding="utf-8"?>
<!-- Generator: Adobe Illustrator 26.0.2, SVG Export Plug-In . SVG Version: 6.00 Build 0)  -->
<svg version="1.1" xmlns="http://www.w3.org/2000/svg" xmlns:xlink="http://www.w3.org/1999/xlink" x="0px" y="0px"
	 viewBox="0 0 54 42" style="enable-background:new 0 0 54 42;" xml:space="preserve">
<style type="text/css">
	.st0{fill:#FFFFFF;}
	.st1{fill:#4070FF;}
</style>
<g id="break">
	<path class="st0" d="M37.2,5.41H16.8c-3.07,0-5.57,2.49-5.57,5.57v20.04c0,3.08,2.49,5.57,5.57,5.57h18.17h2.22
		c3.07,0,5.57-2.49,5.57-5.57V10.98C42.76,7.9,40.27,5.41,37.2,5.41z"/>
	<path class="st1" d="M37.2,5.41H16.8c-3.07,0-5.57,2.49-5.57,5.57v20.04c0,3.08,2.49,5.57,5.57,5.57h18.17h2.22
		c3.07,0,5.57-2.49,5.57-5.57V10.98C42.76,7.9,40.27,5.41,37.2,5.41z M19.98,30.33L19.98,30.33c-1.08-0.39-1.65-1.59-1.26-2.67
		l1.65-4.57H16.1c-1.15,0-2.09-0.93-2.09-2.09v0c0-1.15,0.93-2.09,2.09-2.09h5.77l2.16-5.99c0.39-1.08,1.59-1.65,2.67-1.26
		c1.08,0.39,1.65,1.59,1.26,2.67l-5.31,14.73C22.26,30.16,21.07,30.72,19.98,30.33z M39.99,21c0,1.15-0.93,2.09-2.09,2.09h-5.77
		l-2.16,5.99c-0.39,1.08-1.59,1.65-2.67,1.26c-1.08-0.39-1.65-1.59-1.26-2.67l5.31-14.73c0.39-1.08,1.59-1.65,2.67-1.26h0
		c1.08,0.39,1.65,1.59,1.26,2.67l-1.65,4.57h4.27C39.05,18.91,39.99,19.85,39.99,21L39.99,21z"/>
</g>
</svg>
