<?xml version="1.0" encoding="UTF-8" standalone="no"?>
<!-- Generator: Adobe Illustrator 23.0.1, SVG Export Plug-In . SVG Version: 6.00 Build 0)  -->

<svg
   xmlns:dc="http://purl.org/dc/elements/1.1/"
   xmlns:cc="http://creativecommons.org/ns#"
   xmlns:rdf="http://www.w3.org/1999/02/22-rdf-syntax-ns#"
   xmlns:svg="http://www.w3.org/2000/svg"
   xmlns="http://www.w3.org/2000/svg"
   xmlns:sodipodi="http://sodipodi.sourceforge.net/DTD/sodipodi-0.dtd"
   xmlns:inkscape="http://www.inkscape.org/namespaces/inkscape"
   version="1.1"
   id="Layer_1"
   x="0px"
   y="0px"
   viewBox="0 0 40 40"
   style="enable-background:new 0 0 40 40;"
   xml:space="preserve"
   sodipodi:docname="logo.svg"
   inkscape:version="0.92.3 (2405546, 2018-03-11)"><metadata
   id="metadata16"><rdf:RDF><cc:Work
       rdf:about=""><dc:format>image/svg+xml</dc:format><dc:type
         rdf:resource="http://purl.org/dc/dcmitype/StillImage" /></cc:Work></rdf:RDF></metadata><defs
   id="defs14" /><sodipodi:namedview
   pagecolor="#ffffff"
   bordercolor="#666666"
   borderopacity="1"
   objecttolerance="10"
   gridtolerance="10"
   guidetolerance="10"
   inkscape:pageopacity="0"
   inkscape:pageshadow="2"
   inkscape:window-width="1366"
   inkscape:window-height="670"
   id="namedview12"
   showgrid="false"
   inkscape:zoom="8.34386"
   inkscape:cx="11.250416"
   inkscape:cy="27.79776"
   inkscape:window-x="0"
   inkscape:window-y="27"
   inkscape:window-maximized="1"
   inkscape:current-layer="Layer_1" />
<style
   type="text/css"
   id="style2">
	.st0{fill:#83889E;}
</style>
<title
   id="title4">20220503Asset 41</title>
<g
   id="g9">
	<g
   id="container_3_x_4">
		<path
   class="st0"
   d="M 38.4,0 H 1.6 C 0.7,0 0,0.7 0,1.6 v 0 36.8 C 0,39.3 0.7,40 1.6,40 v 0 H 38.4 C 39.3,40 40,39.3 40,38.4 V 1.6 C 40,0.7 39.3,0 38.4,0 Z"
   id="path6"
   inkscape:connector-curvature="0"
   style="fill:#83889e"
   sodipodi:nodetypes="ssccsccssss" />
	</g>
</g>
<path
   inkscape:connector-curvature="0"
   style="opacity:1;fill:#ffffff;stroke-width:0.05045449"
   d="m 13.768191,11.60772 h 17.37195 c 0.434299,0 0.789634,0.371386 0.789634,0.825303 v 11.554246 c 0,0.453917 -0.355335,0.825304 -0.789634,0.825304 h -1.046265 l -5.068464,-8.103447 c -0.21715,-0.350754 -0.592226,-0.562238 -0.991978,-0.562238 -0.399752,0 -0.774828,0.211484 -0.991978,0.562238 l -2.576181,4.1162 -0.611967,-0.871727 c -0.222084,-0.319805 -0.577419,-0.505498 -0.957431,-0.505498 -0.380011,0 -0.730412,0.185693 -0.957431,0.505498 l -3.400362,4.858974 h -0.769893 c -0.4343,0 -0.789635,-0.371387 -0.789635,-0.825304 V 12.433023 c 0,-0.453917 0.355335,-0.825303 0.789635,-0.825303 z m -3.158537,0.825303 v 11.554246 c 0,1.820826 1.416406,3.301214 3.158537,3.301214 h 17.37195 c 1.74213,0 3.158537,-1.480388 3.158537,-3.301214 V 12.433023 c 0,-1.820826 -1.416407,-3.3012145 -3.158537,-3.3012145 h -17.37195 c -1.742131,0 -3.158537,1.4803885 -3.158537,3.3012145 z m -2.3689019,1.237955 c 0,-0.686033 -0.5280686,-1.237955 -1.1844525,-1.237955 -0.6563839,0 -1.1844515,0.551922 -1.1844515,1.237955 v 11.554246 c 0,3.873769 3.005546,7.015079 6.7118909,7.015079 h 15.792683 c 0.656383,0 1.184451,-0.551921 1.184451,-1.237955 0,-0.686033 -0.528068,-1.237954 -1.184451,-1.237954 H 12.583739 c -2.398514,0 -4.3429869,-2.032311 -4.3429869,-4.53917 z m 10.2652429,1.237955 a 1.5792685,1.6506068 0 1 0 -3.158537,0 1.5792685,1.6506068 0 1 0 3.158537,0 z"
   id="path2" /></svg>