<?xml version="1.0" encoding="utf-8"?>
<!-- Generator: Adobe Illustrator 26.0.2, SVG Export Plug-In . SVG Version: 6.00 Build 0)  -->
<!-- 
Copyright (c) 2025 Bloxtor (http://bloxtor.com) and Joao Pinto (http://jplpinto.com)

Multi-licensed: BSD 3-Clause | Apache 2.0 | GNU LGPL v3 | HLNC License (http://bloxtor.com/LICENSE_HLNC.md)
Choose one license that best fits your needs.

Original Bloxtor Repo: https://github.com/a19836/bloxtor

YOU ARE NOT AUTHORIZED TO MODIFY OR REMOVE ANY PART OF THIS NOTICE!
-->
<svg version="1.1" xmlns="http://www.w3.org/2000/svg" xmlns:xlink="http://www.w3.org/1999/xlink" x="0px" y="0px"
	 viewBox="0 0 54 42" style="enable-background:new 0 0 54 42;" xml:space="preserve">
<style type="text/css">
	.st0{fill:#FFFFFF;}
	.st1{fill:#83889E;}
</style>
<g id="connect_with_SOAP_web_service">
	<!--path class="st0" d="M27,2.76C16.93,2.76,8.76,10.93,8.76,21S16.93,39.24,27,39.24S45.24,31.07,45.24,21S37.07,2.76,27,2.76z"/-->
	<path class="st1" d="M43.13,12.48l-4.56,2.91c1.22,3.2,0.07,6.92-2.92,8.84l-2.33,1.52c0,0-0.01,0-0.01,0.01
		c-0.33,0.21-0.74,0.29-1.13,0.2c-0.39-0.08-0.74-0.32-0.95-0.66l-6.34-9.92c-0.45-0.7-0.24-1.63,0.46-2.08l2.35-1.5
		c3-1.91,6.86-1.39,9.25,1.06l4.56-2.91C38.17,5.58,32.91,2.76,27,2.76C16.93,2.76,8.76,10.93,8.76,21c0,3.08,0.76,5.97,2.11,8.52
		l4.56-2.91c-1.22-3.2-0.07-6.93,2.93-8.84l2.35-1.5c0.7-0.45,1.63-0.24,2.08,0.46l6.34,9.92c0.22,0.34,0.29,0.75,0.2,1.14
		c-0.09,0.39-0.32,0.73-0.66,0.94c0,0-0.01,0-0.01,0.01l-2.36,1.48c-2.99,1.91-6.86,1.38-9.25-1.06l-4.56,2.91
		c3.33,4.36,8.59,7.18,14.5,7.18c10.07,0,18.24-8.16,18.24-18.24C45.24,17.92,44.47,15.03,43.13,12.48z"/>
</g>
</svg>
