<?xml version="1.0" encoding="UTF-8" standalone="no"?>
<!-- Generator: Adobe Illustrator 23.0.1, SVG Export Plug-In . SVG Version: 6.00 Build 0)  -->
<!-- 
Copyright (c) 2025 Bloxtor (http://bloxtor.com) and Joao Pinto (http://jplpinto.com)

Multi-licensed: BSD 3-Clause | Apache 2.0 | GNU LGPL v3 | HLNC License (http://bloxtor.com/LICENSE_HLNC.md)
Choose one license that best fits your needs.

Original JQuery Layout UI Editor Repo: https://github.com/a19836/jquerylayoutuieditor/
Original Bloxtor Repo: https://github.com/a19836/bloxtor

YOU ARE NOT AUTHORIZED TO MODIFY OR REMOVE ANY PART OF THIS NOTICE!
-->

<svg
   xmlns:dc="http://purl.org/dc/elements/1.1/"
   xmlns:cc="http://creativecommons.org/ns#"
   xmlns:rdf="http://www.w3.org/1999/02/22-rdf-syntax-ns#"
   xmlns:svg="http://www.w3.org/2000/svg"
   xmlns="http://www.w3.org/2000/svg"
   xmlns:sodipodi="http://sodipodi.sourceforge.net/DTD/sodipodi-0.dtd"
   xmlns:inkscape="http://www.inkscape.org/namespaces/inkscape"
   version="1.1"
   id="Layer_1"
   x="0px"
   y="0px"
   viewBox="0 0 40 40"
   style="enable-background:new 0 0 40 40;"
   xml:space="preserve"
   sodipodi:docname="logo.svg"
   inkscape:version="0.92.3 (2405546, 2018-03-11)"><metadata
   id="metadata16"><rdf:RDF><cc:Work
       rdf:about=""><dc:format>image/svg+xml</dc:format><dc:type
         rdf:resource="http://purl.org/dc/dcmitype/StillImage" /></cc:Work></rdf:RDF></metadata><defs
   id="defs14" /><sodipodi:namedview
   pagecolor="#ffffff"
   bordercolor="#666666"
   borderopacity="1"
   objecttolerance="10"
   gridtolerance="10"
   guidetolerance="10"
   inkscape:pageopacity="0"
   inkscape:pageshadow="2"
   inkscape:window-width="1366"
   inkscape:window-height="670"
   id="namedview12"
   showgrid="false"
   inkscape:zoom="8.34386"
   inkscape:cx="-7.6856639"
   inkscape:cy="27.79776"
   inkscape:window-x="0"
   inkscape:window-y="27"
   inkscape:window-maximized="1"
   inkscape:current-layer="Layer_1" />
<style
   type="text/css"
   id="style2">
	.st0{fill:#83889E;}
</style>
<title
   id="title4">20220503Asset 41</title>
<g
   id="g9">
	<g
   id="container_3_x_4">
		<path
   class="st0"
   d="M 38.4,0 H 1.6 C 0.7,0 0,0.7 0,1.6 v 0 36.8 C 0,39.3 0.7,40 1.6,40 v 0 H 38.4 C 39.3,40 40,39.3 40,38.4 V 1.6 C 40,0.7 39.3,0 38.4,0 Z"
   id="path6"
   inkscape:connector-curvature="0"
   style="fill:#83889e"
   sodipodi:nodetypes="ssccsccssss" />
	</g>
</g>
<path
   inkscape:connector-curvature="0"
   style="opacity:1;fill:#ffffff;stroke-width:0.04772218"
   d="m 7.1795623,11.536151 v 2.386023 c 0,0.879846 0.6551536,1.590683 1.4660779,1.590683 h 0.7330393 2.1991175 v -3.976706 c 0,-1.317284 -0.985021,-2.3860238 -2.1991175,-2.3860238 -1.2140961,0 -2.1991172,1.0687398 -2.1991172,2.3860238 z M 12.310836,9.1501272 c 0.458149,0.6660976 0.733039,1.4912648 0.733039,2.3860238 v 15.111483 c 0,1.754721 1.314888,3.181364 2.932156,3.181364 1.617267,0 2.932155,-1.426643 2.932155,-3.181364 v -0.263457 c 0,-1.610566 1.204933,-2.917908 2.689337,-2.917908 h 7.573209 v -9.544095 c 0,-2.634567 -1.970042,-4.7720468 -4.398234,-4.7720468 z M 28.437693,31.419681 c 2.835944,0 5.131273,-2.490412 5.131273,-5.567389 0,-0.437437 -0.329868,-0.795341 -0.733039,-0.795341 H 21.597523 c -0.673479,0 -1.223259,0.591535 -1.223259,1.327226 v 0.263457 c 0,2.634567 -1.970042,4.772047 -4.398233,4.772047 h 8.063428 z"
   id="path2-3" /></svg>
