<?xml version="1.0" encoding="utf-8"?>
<!-- Generator: Adobe Illustrator 26.0.2, SVG Export Plug-In . SVG Version: 6.00 Build 0)  -->
<!-- 
Copyright (c) 2025 Bloxtor (http://bloxtor.com) and Joao Pinto (http://jplpinto.com)

Multi-licensed: BSD 3-Clause | Apache 2.0 | GNU LGPL v3 | HLNC License (http://bloxtor.com/LICENSE_HLNC.md)
Choose one license that best fits your needs.

Original Bloxtor Repo: https://github.com/a19836/bloxtor

YOU ARE NOT AUTHORIZED TO MODIFY OR REMOVE ANY PART OF THIS NOTICE!
-->
<svg version="1.1" xmlns="http://www.w3.org/2000/svg" xmlns:xlink="http://www.w3.org/1999/xlink" x="0px" y="0px"
	 viewBox="0 0 54 42" style="enable-background:new 0 0 54 42;" xml:space="preserve">
<style type="text/css">
	.st0{fill:#FFFFFF;}
	.st1{fill:#4070FF;}
</style>
<g id="try_and_catch_exception">
	<g>
		<path class="st0" d="M27,2.76C16.93,2.76,8.76,10.93,8.76,21S16.93,39.24,27,39.24S45.24,31.07,45.24,21S37.07,2.76,27,2.76z"/>
		
			<rect x="17.23" y="24.35" transform="matrix(0.6507 -0.7593 0.7593 0.6507 -12.7797 22.4292)" class="st1" width="1.52" height="1.52"/>
		
			<rect x="16.91" y="20.24" transform="matrix(0.6507 -0.7593 0.7593 0.6507 -9.7733 20.7552)" class="st1" width="1.52" height="1.52"/>
		
			<rect x="15.02" y="22.45" transform="matrix(0.6507 -0.7593 0.7593 0.6507 -12.1135 20.0891)" class="st1" width="1.52" height="1.52"/>
		
			<rect x="18.81" y="18.03" transform="matrix(0.6507 -0.7593 0.7593 0.6507 -7.4332 21.4215)" class="st1" width="1.52" height="1.52"/>
		
			<rect x="19.12" y="22.14" transform="matrix(0.6507 -0.7593 0.7593 0.6507 -10.4396 23.095)" class="st1" width="1.52" height="1.52"/>
		
			<rect x="21.02" y="19.93" transform="matrix(0.6507 -0.7593 0.7593 0.6507 -8.0995 23.7613)" class="st1" width="1.52" height="1.52"/>
		
			<rect x="23.23" y="21.82" transform="matrix(0.6507 -0.7593 0.7593 0.6507 -8.7658 26.1014)" class="st1" width="1.52" height="1.52"/>
		
			<rect x="19.44" y="26.24" transform="matrix(0.6507 -0.7593 0.7593 0.6507 -13.446 24.7691)" class="st1" width="1.52" height="1.52"/>
		<path class="st1" d="M27,2.76C16.93,2.76,8.76,10.93,8.76,21S16.93,39.24,27,39.24S45.24,31.07,45.24,21S37.07,2.76,27,2.76z
			 M27.26,9.82c-0.27-0.27-0.27-0.71,0-0.98c0.27-0.27,0.71-0.27,0.98,0l1.04,1.04l1.04-1.04c0.27-0.27,0.71-0.27,0.98,0
			c0.27,0.27,0.27,0.71,0,0.98l-1.04,1.04l1.04,1.04c0.27,0.27,0.27,0.71,0,0.98c-0.14,0.14-0.31,0.2-0.49,0.2
			c-0.18,0-0.36-0.07-0.49-0.2l-1.04-1.04l-1.04,1.04c-0.14,0.14-0.31,0.2-0.49,0.2s-0.36-0.07-0.49-0.2
			c-0.27-0.27-0.27-0.71,0-0.98l1.04-1.04L27.26,9.82z M29.02,24.98c-0.14,0.16-0.33,0.24-0.53,0.24c-0.16,0-0.32-0.06-0.45-0.17
			l-1.92-1.65l-0.99,1.15l1.92,1.65c0.29,0.25,0.33,0.69,0.08,0.98c-0.14,0.16-0.33,0.24-0.53,0.24c-0.16,0-0.32-0.06-0.45-0.17
			l-1.92-1.65l-0.99,1.15l1.6,1.37c0.29,0.25,0.33,0.69,0.08,0.98c-0.14,0.16-0.33,0.24-0.53,0.24c-0.16,0-0.32-0.06-0.45-0.17
			l-1.6-1.37l-0.99,1.15l0.22,0.19c0.29,0.25,0.33,0.69,0.08,0.98c-0.14,0.16-0.33,0.24-0.53,0.24c-0.16,0-0.32-0.06-0.45-0.17
			l-0.22-0.19l-0.19,0.22c-0.14,0.16-0.33,0.24-0.53,0.24c-0.16,0-0.32-0.06-0.45-0.17c-0.29-0.25-0.33-0.69-0.08-0.98l0.19-0.22
			l-1.15-0.99l-0.92,1.07c-0.14,0.16-0.33,0.24-0.53,0.24c-0.16,0-0.32-0.06-0.45-0.17c-0.29-0.25-0.33-0.69-0.08-0.98l0.92-1.07
			l-1.15-0.99l-0.86,1.01c-0.14,0.16-0.33,0.24-0.53,0.24c-0.16,0-0.32-0.06-0.45-0.17c-0.29-0.25-0.33-0.69-0.08-0.98l0.86-1.01
			l-1.15-0.99l-0.19,0.22c-0.14,0.16-0.33,0.24-0.53,0.24c-0.16,0-0.32-0.06-0.45-0.17c-0.29-0.25-0.33-0.69-0.08-0.98l0.19-0.22
			l-0.22-0.19c-0.29-0.25-0.33-0.69-0.08-0.98c0.25-0.29,0.69-0.33,0.98-0.08l0.22,0.19l0.99-1.15l-1.66-1.42
			c-0.29-0.25-0.33-0.69-0.08-0.98c0.25-0.29,0.69-0.33,0.98-0.08l1.66,1.42l0.99-1.15l-1.92-1.65c-0.29-0.25-0.33-0.69-0.08-0.98
			c0.25-0.29,0.69-0.33,0.98-0.08l1.92,1.65l0.99-1.15l-1.92-1.65c-0.29-0.25-0.33-0.69-0.08-0.98c0.25-0.29,0.69-0.33,0.98-0.08
			l11.54,9.89C29.24,24.24,29.27,24.68,29.02,24.98z M39.35,29.91c-0.21,0.24-0.5,0.36-0.79,0.36c-0.24,0-0.48-0.08-0.68-0.25
			L18.21,13.17c-0.44-0.38-0.49-1.03-0.11-1.47c0.38-0.44,1.03-0.49,1.47-0.11l19.66,16.85C39.67,28.81,39.72,29.47,39.35,29.91z"/>
		
			<rect x="21.33" y="24.03" transform="matrix(0.6507 -0.7593 0.7593 0.6507 -11.1059 25.4351)" class="st1" width="1.52" height="1.52"/>
	</g>
</g>
</svg>
