<?xml version="1.0" encoding="utf-8"?>
<!-- Generator: Adobe Illustrator 26.0.2, SVG Export Plug-In . SVG Version: 6.00 Build 0)  -->
<svg version="1.1" xmlns="http://www.w3.org/2000/svg" xmlns:xlink="http://www.w3.org/1999/xlink" x="0px" y="0px"
	 viewBox="0 0 54 42" style="enable-background:new 0 0 54 42;" xml:space="preserve">
<style type="text/css">
	.st0{fill:#FFFFFF;}
	.st1{fill:#83889E;}
</style>
<g id="write_some_php_code">
	<g>
		<!--path class="st0" d="M41.48,36.59c3.07,0,5.57-2.49,5.57-5.57V10.98c0-3.08-2.49-5.57-5.57-5.57H12.52
			c-3.07,0-5.57,2.49-5.57,5.57v20.04c0,3.08,2.49,5.57,5.57,5.57h26.73H41.48z"/-->
		<g>
			<path class="st1" d="M41.48,36.59c3.07,0,5.57-2.49,5.57-5.57V10.98c0-3.08-2.49-5.57-5.57-5.57H12.52
				c-3.07,0-5.57,2.49-5.57,5.57v20.04c0,3.08,2.49,5.57,5.57,5.57h26.73H41.48z M39.42,32.14H12.52c-0.62,0-1.11-0.5-1.11-1.11
				V10.98c0-0.61,0.5-1.11,1.11-1.11h28.95c0.62,0,1.11,0.5,1.11,1.11v20.04c0,0.61-0.5,1.11-1.11,1.11H39.42z"/>
		</g>
		<g>
			<path class="st1" d="M24.16,28.78c-0.54-0.2-0.81-0.81-0.61-1.35l0.32-0.96l4.63-12.63c0.2-0.54,0.8-0.82,1.34-0.62l0,0
				c0.54,0.2,0.82,0.8,0.62,1.34l-4.97,13.6C25.29,28.69,24.7,28.98,24.16,28.78z"/>
			<path class="st1" d="M33.14,28.14c-0.27,0-0.53-0.1-0.74-0.31c-0.41-0.41-0.41-1.07,0-1.47l5.52-5.52l-5.52-5.52
				c-0.41-0.41-0.41-1.07,0-1.47c0.41-0.41,1.07-0.41,1.47,0l6.26,6.26c0.41,0.41,0.41,1.07,0,1.47l-6.26,6.26
				C33.68,28.04,33.41,28.14,33.14,28.14z"/>
			<path class="st1" d="M20.86,28.14c-0.27,0-0.53-0.1-0.74-0.31l-6.26-6.26c-0.41-0.41-0.41-1.07,0-1.47l6.26-6.26
				c0.41-0.41,1.07-0.41,1.47,0c0.41,0.41,0.41,1.07,0,1.47l-5.52,5.52l5.52,5.52c0.41,0.41,0.41,1.07,0,1.47
				C21.39,28.04,21.13,28.14,20.86,28.14z"/>
		</g>
	</g>
</g>
</svg>
