<?xml version="1.0" encoding="utf-8"?>
<!-- Generator: Adobe Illustrator 26.0.2, SVG Export Plug-In . SVG Version: 6.00 Build 0)  -->
<svg version="1.1" xmlns="http://www.w3.org/2000/svg" xmlns:xlink="http://www.w3.org/1999/xlink" x="0px" y="0px"
	 viewBox="0 0 54 42" style="enable-background:new 0 0 54 42;" xml:space="preserve">
<style type="text/css">
	.st0{fill:#FFFFFF;}
	.st1{fill:#83889E;}
</style>
<g id="get_sql_query">
	<path class="st0" d="M27,2.76C16.93,2.76,8.76,10.93,8.76,21S16.93,39.24,27,39.24S45.24,31.07,45.24,21S37.07,2.76,27,2.76z"/>
	<path class="st1" d="M27,2.76C16.93,2.76,8.76,10.93,8.76,21S16.93,39.24,27,39.24S45.24,31.07,45.24,21S37.07,2.76,27,2.76z
		 M27,31.86c-3.04,0-5.5-2.46-5.5-5.5c0-0.62,0.11-1.22,0.3-1.78c0.58,0.19,1.21,0.35,1.88,0.47l-0.69,0.69
		c-0.12,0.12-0.12,0.33,0,0.45l1.91,1.91c0.06,0.06,0.14,0.09,0.23,0.09c0.08,0,0.16-0.03,0.23-0.09c0.12-0.12,0.12-0.33,0-0.45
		l-1.69-1.69l0.8-0.8c0.11,0.01,0.23,0.03,0.34,0.04l1.1,0.09c0.06,0,0.12,0,0.2,0.01c0.27,0.01,0.54,0.02,0.81,0.02l-0.86,2.36
		l-0.1,0.29c-0.06,0.17,0.02,0.35,0.19,0.41c0.17,0.06,0.35-0.03,0.41-0.19l1.05-2.88c0.14,0,0.27-0.01,0.41-0.02l1.1-0.08
		c0.05-0.01,0.09-0.01,0.13-0.02c0.1-0.01,0.21-0.02,0.31-0.04l0.8,0.8l-1.69,1.69c-0.12,0.12-0.12,0.33,0,0.45
		c0.06,0.06,0.14,0.09,0.23,0.09c0.08,0,0.16-0.03,0.23-0.09l1.91-1.91c0.12-0.12,0.12-0.33,0-0.45l-0.69-0.69
		c0.67-0.12,1.3-0.27,1.88-0.47c0.19,0.56,0.3,1.16,0.3,1.78C32.5,29.4,30.04,31.86,27,31.86z M34.1,21.75c0,1.4-3.18,2.54-7.1,2.54
		s-7.1-1.13-7.1-2.54v-2.72c0.47,0.37,1.08,0.67,1.74,0.91c1.42,0.51,3.32,0.8,5.36,0.8s3.94-0.29,5.36-0.8
		c0.63-0.23,1.26-0.54,1.74-0.91V21.75z M34.1,17.18c0,1.4-3.18,2.54-7.1,2.54s-7.1-1.13-7.1-2.54v-3.23
		c0.47,0.37,1.08,0.67,1.74,0.91c1.42,0.51,3.32,0.8,5.36,0.8s3.94-0.29,5.36-0.8c0.63-0.23,1.26-0.54,1.74-0.91V17.18z M34.1,12.11
		c0,1.4-3.18,2.54-7.1,2.54s-7.1-1.13-7.1-2.54v-1.52c0-1.4,3.18-2.54,7.1-2.54s7.1,1.14,7.1,2.54V12.11z"/>
</g>
</svg>
