<svg xmlns="http://www.w3.org/2000/svg" viewBox="0 0 40 40">
<defs>
<style>.cls-1{fill:#83889E;}.cls-2{fill:#fff;}</style>
</defs>
<title>20220503Asset 10040px</title>
<g id="Layer_2" data-name="Layer 2">
	<g id="user_generated_widget_2" data-name="user generated widget 2">
		<rect class="cls-1" width="40" height="40" rx="1.62"/>
		<path class="cls-2" d="M31,25.21l-4.93.89L25.19,31a.69.69,0,0,1-1.07.45L20,28.62l-4.12,2.86A.69.69,0,0,1,14.81,31l-.89-4.93L9,25.21a.69.69,0,0,1-.45-1.07L11.4,20,8.54,15.86a.66.66,0,0,1,.45-1l4.93-.89L14.77,9a.69.69,0,0,1,1.07-.45L20,11.42l4.12-2.9A.69.69,0,0,1,25.19,9l.89,4.93,4.93.89a.69.69,0,0,1,.45,1.07L28.6,20l2.86,4.16A.69.69,0,0,1,31,25.21ZM20,14.27A5.75,5.75,0,1,0,25.75,20,5.74,5.74,0,0,0,20,14.27Z"/>
		<path class="cls-2" d="M20,24.32A4.34,4.34,0,1,1,24.3,20,4.27,4.27,0,0,1,20,24.32Z"/>
	</g>
</g>
</svg>
