<?xml version="1.0" encoding="UTF-8" standalone="no"?>
<!-- Generator: Adobe Illustrator 23.0.1, SVG Export Plug-In . SVG Version: 6.00 Build 0)  -->

<svg
   xmlns:dc="http://purl.org/dc/elements/1.1/"
   xmlns:cc="http://creativecommons.org/ns#"
   xmlns:rdf="http://www.w3.org/1999/02/22-rdf-syntax-ns#"
   xmlns:svg="http://www.w3.org/2000/svg"
   xmlns="http://www.w3.org/2000/svg"
   xmlns:sodipodi="http://sodipodi.sourceforge.net/DTD/sodipodi-0.dtd"
   xmlns:inkscape="http://www.inkscape.org/namespaces/inkscape"
   version="1.1"
   id="Layer_1"
   x="0px"
   y="0px"
   viewBox="0 0 40 40"
   style="enable-background:new 0 0 40 40;"
   xml:space="preserve"
   sodipodi:docname="logo.svg"
   inkscape:version="0.92.3 (2405546, 2018-03-11)"><metadata
   id="metadata16"><rdf:RDF><cc:Work
       rdf:about=""><dc:format>image/svg+xml</dc:format><dc:type
         rdf:resource="http://purl.org/dc/dcmitype/StillImage" /></cc:Work></rdf:RDF></metadata><defs
   id="defs14" /><sodipodi:namedview
   pagecolor="#ffffff"
   bordercolor="#666666"
   borderopacity="1"
   objecttolerance="10"
   gridtolerance="10"
   guidetolerance="10"
   inkscape:pageopacity="0"
   inkscape:pageshadow="2"
   inkscape:window-width="1366"
   inkscape:window-height="670"
   id="namedview12"
   showgrid="false"
   inkscape:zoom="5.9"
   inkscape:cx="20"
   inkscape:cy="20"
   inkscape:window-x="0"
   inkscape:window-y="27"
   inkscape:window-maximized="1"
   inkscape:current-layer="Layer_1" />
<style
   type="text/css"
   id="style2">
	.st0{fill:#83889E;}
</style>
<title
   id="title4">20220503Asset 38</title>
<g
   id="g9">
	<g
   id="button">
		<path
   class="st0"
   d="M 38.4,0 H 1.6 C 0.7,0 0,0.7 0,1.6 v 0 36.8 C 0,39.3 0.7,40 1.6,40 v 0 H 38.4 C 39.3,40 40,39.3 40,38.4 V 1.6 C 40,0.7 39.3,0 38.4,0 Z"
   id="path6"
   inkscape:connector-curvature="0"
   style="fill:#83889e"
   sodipodi:nodetypes="ssccsccssss" />
	</g>
</g>
<path
   inkscape:connector-curvature="0"
   style="opacity:1;fill:#ffffff;stroke-width:0.05454664"
   d="m 20.592169,7.9152543 c 0.805733,0 1.549051,0.3932738 1.957592,1.038241 L 34.805985,28.250106 c 0.414215,0.650211 0.414215,1.45249 0.01125,2.102701 -0.402776,0.650212 -1.157442,1.053972 -1.96885,1.053972 H 8.3359446 c -0.8114068,0 -1.5660727,-0.40376 -1.9689399,-1.053972 -0.402866,-0.650211 -0.3971925,-1.457734 0.011441,-2.102701 L 18.634668,8.9534953 c 0.408541,-0.6449672 1.151859,-1.038241 1.957592,-1.038241 z m 0,6.7118637 c -0.754666,0 -1.361802,0.56107 -1.361802,1.258475 v 5.872881 c 0,0.697405 0.607136,1.258475 1.361802,1.258475 0.754666,0 1.361803,-0.56107 1.361803,-1.258475 v -5.872881 c 0,-0.697405 -0.607137,-1.258475 -1.361803,-1.258475 z m 1.815737,11.745763 a 1.815737,1.6779661 0 1 0 -3.631474,0 1.815737,1.6779661 0 1 0 3.631474,0 z"
   id="path18" /></svg>