<?xml version="1.0" encoding="utf-8"?>
<!-- Generator: Adobe Illustrator 23.0.1, SVG Export Plug-In . SVG Version: 6.00 Build 0)  -->
<svg version="1.1" id="Layer_1" xmlns="http://www.w3.org/2000/svg" xmlns:xlink="http://www.w3.org/1999/xlink" x="0px" y="0px"
	 viewBox="0 0 40 40" style="enable-background:new 0 0 40 40;" xml:space="preserve">
<style type="text/css">
	.st0{fill:#83889E;}
</style>
<title>20220503Asset 21</title>
<g>
	<g id="tool_tip">
		<path class="st0" d="M21.4,12.7h-3.5c-1.7,0-3.1,1.4-3.1,3.1c0,0.6,0.5,1,1,1l0,0c0.6,0,1-0.4,1-1s0.4-1,1-1.1l0,0h3.5
			c0.9,0,1.7,0.8,1.7,1.7c0,0.7-0.4,1.3-1,1.5l-3,2c-0.3,0.2-0.5,0.5-0.5,0.9v1.3c0,0.6,0.5,1,1,1c0.6,0,1-0.5,1-1v-0.7l2.6-1.5
			c1.9-0.9,2.6-3.2,1.7-5C24.2,13.5,22.9,12.7,21.4,12.7z"/>
		<path class="st0" d="M19.5,24.7c-0.7,0-1.3,0.6-1.3,1.3l0,0c0,0.7,0.6,1.3,1.3,1.3l0,0c0.7,0,1.3-0.6,1.3-1.3l0,0
			C20.8,25.3,20.2,24.7,19.5,24.7z"/>
		<path class="st0" d="M38.4,0H1.6C0.7,0,0,0.7,0,1.6l0,0v36.8C0,39.3,0.7,40,1.6,40l0,0h36.8c0.9,0,1.6-0.7,1.6-1.6V1.6
			C40,0.7,39.3,0,38.4,0L38.4,0z M33.5,27.2c0,1.8-1.5,3.2-3.2,3.2l0,0H9.8c-1.8,0-3.3-1.4-3.3-3.2l0,0V12.5c0-1.8,1.5-3.2,3.3-3.2
			h2.5V5c0-0.3,0.3-0.6,0.6-0.6c0.1,0,0.2,0,0.4,0.1l6.4,4.8h10.6c1.8,0,3.3,1.4,3.3,3.2l0,0v14.7H33.5z"/>
	</g>
</g>
</svg>
