<?xml version="1.0" encoding="utf-8"?>
<!-- Generator: Adobe Illustrator 23.0.1, SVG Export Plug-In . SVG Version: 6.00 Build 0)  -->
<!-- 
Copyright (c) 2025 Bloxtor (http://bloxtor.com) and Joao Pinto (http://jplpinto.com)

Multi-licensed: BSD 3-Clause | Apache 2.0 | GNU LGPL v3 | HLNC License (http://bloxtor.com/LICENSE_HLNC.md)
Choose one license that best fits your needs.

Original JQuery Layout UI Editor Repo: https://github.com/a19836/jquerylayoutuieditor/
Original Bloxtor Repo: https://github.com/a19836/bloxtor

YOU ARE NOT AUTHORIZED TO MODIFY OR REMOVE ANY PART OF THIS NOTICE!
-->
<svg version="1.1" id="Layer_1" xmlns="http://www.w3.org/2000/svg" xmlns:xlink="http://www.w3.org/1999/xlink" x="0px" y="0px"
	 viewBox="0 0 40 40" style="enable-background:new 0 0 40 40;" xml:space="preserve">
<style type="text/css">
	.st0{fill:#83889E;}
	.st1{fill:#83889E;}
</style>
<title>Calendar Icon</title>
<g>
	<g id="calendar">
		<path class="st0" d="M 38.4,0 H 1.6 C 0.7,0 0,0.7 0,1.6 v 0 36.8 C 0,39.3 0.7,40 1.6,40 v 0 H 38.4 C 39.3,40 40,39.3 40,38.4 V 1.6 C 40,0.7 39.3,0 38.4,0 Z" />
		<path class="st" d="m 15.254842,6.1912104 c 0,-0.7916209 -0.705184,-1.4285028 -1.581719,-1.4285028 -0.876537,0 -1.58172,0.6368819 -1.58172,1.4285028 V 8.5720303 H 9.4552053 c -2.326445,0 -4.2179175,1.7082497 -4.2179175,3.8093237 v 0.95233 2.856992 15.237291 c 0,2.101074 1.8914725,3.809323 4.2179175,3.809323 H 30.544793 c 2.326446,0 4.217918,-1.708249 4.217918,-3.809323 v -15.237291 -2.856992 -0.95233 c 0,-2.101074 -1.891472,-3.8093237 -4.217918,-3.8093237 H 27.908594 V 6.1912104 c 0,-0.7916209 -0.705183,-1.4285028 -1.581718,-1.4285028 -0.876536,0 -1.581719,0.6368819 -1.581719,1.4285028 V 8.5720303 H 15.254842 Z M 8.4007257,16.190676 H 31.599272 v 15.237291 c 0,0.52379 -0.474516,0.952331 -1.054479,0.952331 H 9.4552053 c -0.5799639,0 -1.0544796,-0.428541 -1.0544796,-0.952331 z" style="stroke-width:0.06263152; fill:#ffffff; fill-opacity:1" />
	</g>
</g>
</svg>
