<?xml version="1.0" encoding="UTF-8" standalone="no"?>
<!-- Generator: Adobe Illustrator 23.0.1, SVG Export Plug-In . SVG Version: 6.00 Build 0)  -->
<!-- 
Copyright (c) 2025 Bloxtor (http://bloxtor.com) and Joao Pinto (http://jplpinto.com)

Multi-licensed: BSD 3-Clause | Apache 2.0 | GNU LGPL v3 | HLNC License (http://bloxtor.com/LICENSE_HLNC.md)
Choose one license that best fits your needs.

Original JQuery Layout UI Editor Repo: https://github.com/a19836/jquerylayoutuieditor/
Original Bloxtor Repo: https://github.com/a19836/bloxtor

YOU ARE NOT AUTHORIZED TO MODIFY OR REMOVE ANY PART OF THIS NOTICE!
-->

<svg
   xmlns:dc="http://purl.org/dc/elements/1.1/"
   xmlns:cc="http://creativecommons.org/ns#"
   xmlns:rdf="http://www.w3.org/1999/02/22-rdf-syntax-ns#"
   xmlns:svg="http://www.w3.org/2000/svg"
   xmlns="http://www.w3.org/2000/svg"
   xmlns:sodipodi="http://sodipodi.sourceforge.net/DTD/sodipodi-0.dtd"
   xmlns:inkscape="http://www.inkscape.org/namespaces/inkscape"
   version="1.1"
   id="Layer_1"
   x="0px"
   y="0px"
   viewBox="0 0 40 40"
   style="enable-background:new 0 0 40 40;"
   xml:space="preserve"
   sodipodi:docname="logo.svg"
   inkscape:version="0.92.3 (2405546, 2018-03-11)"><metadata
   id="metadata18"><rdf:RDF><cc:Work
       rdf:about=""><dc:format>image/svg+xml</dc:format><dc:type
         rdf:resource="http://purl.org/dc/dcmitype/StillImage" /></cc:Work></rdf:RDF></metadata><defs
   id="defs16" /><sodipodi:namedview
   pagecolor="#ffffff"
   bordercolor="#666666"
   borderopacity="1"
   objecttolerance="10"
   gridtolerance="10"
   guidetolerance="10"
   inkscape:pageopacity="0"
   inkscape:pageshadow="2"
   inkscape:window-width="1366"
   inkscape:window-height="670"
   id="namedview14"
   showgrid="false"
   inkscape:zoom="5.9"
   inkscape:cx="0.25423729"
   inkscape:cy="20"
   inkscape:window-x="0"
   inkscape:window-y="27"
   inkscape:window-maximized="1"
   inkscape:current-layer="Layer_1" />
<style
   type="text/css"
   id="style2">
	.st0{fill:#83889E;}
</style>
<title
   id="title4">20220503Asset 36</title>
<g
   id="g11">
	<g
   id="dropdown">
		<path
   class="st0"
   d="M 38.4,0 H 1.6 C 0.7,0 0,0.7 0,1.6 v 0 36.8 C 0,39.3 0.7,40 1.6,40 v 0 H 38.4 C 39.3,40 40,39.3 40,38.4 V 1.6 C 40,0.7 39.3,0 38.4,0 Z"
   id="path6"
   inkscape:connector-curvature="0"
   style="fill:#83889e"
   sodipodi:nodetypes="ssccsccssss" />
		<path
   class="st0"
   d="M6.4,23h27.2v-6H6.4V23z M26.2,18.3c0.2-0.2,0.5-0.2,0.8,0l2.3,2.3l2.3-2.3c0.2-0.2,0.5-0.2,0.8,0    s0.2,0.5,0,0.8l0,0l-2.7,2.7c-0.2,0.2-0.5,0.2-0.8,0L26.2,19C26,18.8,26,18.5,26.2,18.3z"
   id="path8" />
	</g>
</g>
<path
   inkscape:connector-curvature="0"
   style="opacity:1;fill:#ffffff;stroke-width:0.04636068"
   d="m 10.283488,12.673666 v 6.930921 c 0,0.788132 0.310617,1.543811 0.866945,2.100139 l 8.159481,8.159478 c 1.159017,1.159017 3.036624,1.159017 4.195642,0 l 6.189151,-6.18915 c 1.159017,-1.159016 1.159017,-3.036624 0,-4.195641 L 21.535226,11.319935 C 20.978898,10.763607 20.223219,10.45299 19.435087,10.45299 h -6.926286 c -1.228558,-0.0046 -2.225313,0.992119 -2.225313,2.220676 z m 5.192397,1.483542 a 1.4835419,1.4835416 0 1 1 0,2.967083 1.4835419,1.4835416 0 1 1 0,-2.967083 z"
   id="path20" /></svg>
