<?xml version="1.0" encoding="UTF-8" standalone="no"?>
<!-- Generator: Adobe Illustrator 23.0.1, SVG Export Plug-In . SVG Version: 6.00 Build 0)  -->

<svg
   xmlns:dc="http://purl.org/dc/elements/1.1/"
   xmlns:cc="http://creativecommons.org/ns#"
   xmlns:rdf="http://www.w3.org/1999/02/22-rdf-syntax-ns#"
   xmlns:svg="http://www.w3.org/2000/svg"
   xmlns="http://www.w3.org/2000/svg"
   xmlns:sodipodi="http://sodipodi.sourceforge.net/DTD/sodipodi-0.dtd"
   xmlns:inkscape="http://www.inkscape.org/namespaces/inkscape"
   version="1.1"
   id="Layer_1"
   x="0px"
   y="0px"
   viewBox="0 0 40 40"
   style="enable-background:new 0 0 40 40;"
   xml:space="preserve"
   sodipodi:docname="logo.svg"
   inkscape:version="0.92.3 (2405546, 2018-03-11)"><metadata
   id="metadata16"><rdf:RDF><cc:Work
       rdf:about=""><dc:format>image/svg+xml</dc:format><dc:type
         rdf:resource="http://purl.org/dc/dcmitype/StillImage" /></cc:Work></rdf:RDF></metadata><defs
   id="defs14" /><sodipodi:namedview
   pagecolor="#ffffff"
   bordercolor="#666666"
   borderopacity="1"
   objecttolerance="10"
   gridtolerance="10"
   guidetolerance="10"
   inkscape:pageopacity="0"
   inkscape:pageshadow="2"
   inkscape:window-width="1366"
   inkscape:window-height="670"
   id="namedview12"
   showgrid="false"
   inkscape:zoom="23.6"
   inkscape:cx="19.569093"
   inkscape:cy="20.289695"
   inkscape:window-x="0"
   inkscape:window-y="27"
   inkscape:window-maximized="1"
   inkscape:current-layer="Layer_1" />
<style
   type="text/css"
   id="style2">
	.st0{fill:#83889E;}
</style>
<title
   id="title4">20220503Asset 41</title>
<g
   id="g9">
	<g
   id="container_3_x_4">
		<path
   class="st0"
   d="M38.4,0H1.6C0.7,0,0,0.7,0,1.6l0,0v36.8C0,39.3,0.7,40,1.6,40l0,0h36.8c0.9,0,1.6-0.7,1.6-1.6V1.6    C40,0.7,39.3,0,38.4,0L38.4,0z M12.8,28.7c0,0.4-0.3,0.7-0.7,0.7l0,0H4.7c-0.4,0-0.7-0.3-0.7-0.7l0,0V11.3c0-0.4,0.3-0.7,0.7-0.7    l0,0h7.4c0.4,0,0.7,0.3,0.7,0.7l0,0V28.7z M24.4,28.7c0,0.4-0.3,0.7-0.7,0.7l0,0h-7.4c-0.4,0-0.7-0.3-0.7-0.7l0,0V11.3    c0-0.4,0.3-0.7,0.7-0.7l0,0h7.4c0.4,0,0.7,0.3,0.7,0.7l0,0V28.7z M36,28.7c0,0.4-0.3,0.7-0.7,0.7l0,0h-7.4c-0.4,0-0.7-0.3-0.7-0.7    l0,0V11.3c0-0.4,0.3-0.7,0.7-0.7l0,0h7.4c0.4,0,0.7,0.3,0.7,0.7l0,0V28.7z"
   id="path6" />
	</g>
</g>
<path class="st0"
   inkscape:connector-curvature="0"
   style="stroke-width:0.01415402"
   d="m 8.4643425,16.638978 c 0.2526332,0 0.4567382,0.200714 0.4567382,0.449151 v 0.501083 c 0.022837,0.0028 0.044246,0.0056 0.067083,0.0098 0.00573,0.0014 0.00999,0.0014 0.0157,0.0028 l 0.6851083,0.123516 c 0.2483512,0.04492 0.412492,0.279316 0.366818,0.522138 -0.04567,0.242822 -0.2840348,0.40564 -0.530959,0.360724 L 8.8468605,18.48608 C 8.4001134,18.42151 8.0061763,18.46503 7.7292786,18.5731 c -0.2768977,0.108077 -0.3882277,0.256858 -0.4139192,0.39441 -0.028546,0.150185 -0.00714,0.234401 0.017128,0.286334 0.025691,0.05474 0.078502,0.116498 0.1826953,0.185274 0.2326511,0.150185 0.5894782,0.248437 1.0519256,0.369146 l 0.041392,0.01123 c 0.4082101,0.106674 0.9077679,0.235805 1.2788677,0.474415 0.202678,0.130535 0.393938,0.307388 0.512404,0.554421 0.121321,0.251244 0.147013,0.531963 0.09135,0.830928 -0.09848,0.533366 -0.472439,0.88988 -0.9363145,1.076559 -0.1955415,0.0786 -0.4082103,0.12913 -0.6337248,0.154395 v 0.465993 c 0,0.248437 -0.2041051,0.449151 -0.4567382,0.449151 -0.2526331,0 -0.4567381,-0.200714 -0.4567381,-0.449151 V 22.88635 c -0.00573,-0.0014 -0.012846,-0.0014 -0.018555,-0.0029 h -0.00282 v 0 C 7.6379603,22.83015 7.0656101,22.68277 6.680237,22.514338 6.4504405,22.41328 6.346247,22.148 6.4490132,21.922021 6.5517794,21.696042 6.8215405,21.59358 7.0513369,21.694639 c 0.2983073,0.130535 0.7893011,0.259665 1.0733356,0.303176 0.4553109,0.06597 0.8306923,0.02807 1.0847536,-0.07439 0.2412147,-0.09685 0.3511176,-0.237208 0.3825181,-0.40564 0.027119,-0.148781 0.00573,-0.2344 -0.018555,-0.286333 C 9.5462702,21.175332 9.4934602,21.113573 9.3878396,21.044796 9.1537605,20.894611 8.7955066,20.79636 8.3316319,20.675651 l -0.039964,-0.0098 v 0 C 7.8848785,20.559222 7.3853205,20.428688 7.0142205,20.190077 6.811543,20.059542 6.6217111,19.881286 6.5032445,19.634253 6.3833507,19.383009 6.3590865,19.10229 6.4161788,18.803325 c 0.1027661,-0.536174 0.510976,-0.884266 0.974851,-1.065329 0.1898319,-0.07439 0.3982187,-0.12492 0.616597,-0.154396 v -0.495469 c 0,-0.248436 0.204105,-0.44915 0.4567381,-0.44915 z"
   id="path2" /><path class="st0"
   inkscape:connector-curvature="0"
   style="stroke-width:0.01415402"
   d="m 20.096159,16.83054 c 0.252634,0 0.456739,0.200714 0.456739,0.449151 v 0.501083 c 0.02284,0.0028 0.04425,0.0056 0.06708,0.0098 0.0057,0.0014 0.01,0.0014 0.0157,0.0028 l 0.685108,0.123516 c 0.248351,0.04492 0.412492,0.279316 0.366818,0.522138 -0.04567,0.242822 -0.284035,0.40564 -0.530959,0.360724 l -0.677971,-0.12211 c -0.446747,-0.06457 -0.840684,-0.02105 -1.117581,0.08702 -0.276898,0.108077 -0.388228,0.256858 -0.41392,0.39441 -0.02855,0.150185 -0.0071,0.234401 0.01713,0.286334 0.02569,0.05474 0.0785,0.116498 0.182696,0.185274 0.232651,0.150185 0.589478,0.248437 1.051925,0.369146 l 0.04139,0.01123 c 0.40821,0.106674 0.907768,0.235805 1.278868,0.474415 0.202678,0.130535 0.393937,0.307388 0.512403,0.554421 0.121321,0.251244 0.147013,0.531963 0.09135,0.830928 -0.09848,0.533366 -0.472438,0.88988 -0.936314,1.076559 -0.195541,0.0786 -0.40821,0.12913 -0.633724,0.154395 v 0.465993 c 0,0.248437 -0.204105,0.449151 -0.456739,0.449151 -0.252633,0 -0.456738,-0.200714 -0.456738,-0.449151 v -0.489855 c -0.0057,-0.0014 -0.01285,-0.0014 -0.01855,-0.0029 h -0.0028 v 0 c -0.348293,-0.0533 -0.920643,-0.20068 -1.306016,-0.369112 -0.229796,-0.101058 -0.33399,-0.366338 -0.231224,-0.592317 0.102767,-0.225979 0.372527,-0.328441 0.602324,-0.227382 0.298307,0.130535 0.789301,0.259665 1.073335,0.303176 0.455311,0.06597 0.830693,0.02807 1.084754,-0.07439 0.241215,-0.09685 0.351118,-0.237208 0.382518,-0.40564 0.02712,-0.148781 0.0057,-0.2344 -0.01856,-0.286333 -0.02712,-0.05612 -0.07993,-0.117879 -0.185549,-0.186656 -0.23408,-0.150185 -0.592333,-0.248436 -1.056208,-0.369145 l -0.03996,-0.0098 v 0 c -0.40679,-0.106629 -0.906348,-0.237163 -1.277448,-0.475774 -0.202677,-0.130535 -0.392509,-0.308791 -0.510975,-0.555824 -0.119894,-0.251244 -0.144158,-0.531963 -0.08707,-0.830928 0.102766,-0.536174 0.510976,-0.884266 0.974851,-1.065329 0.189832,-0.07439 0.398218,-0.12492 0.616597,-0.154396 v -0.495469 c 0,-0.248436 0.204105,-0.44915 0.456738,-0.44915 z"
   id="path2-3" /><path class="st0"
   inkscape:connector-curvature="0"
   style="stroke-width:0.01415402"
   d="m 31.791077,16.703421 c 0.252634,0 0.456739,0.200714 0.456739,0.449151 v 0.501083 c 0.02284,0.0028 0.04425,0.0056 0.06708,0.0098 0.0057,0.0014 0.01,0.0014 0.0157,0.0028 l 0.685108,0.123516 c 0.248351,0.04492 0.412492,0.279316 0.366818,0.522138 -0.04567,0.242822 -0.284035,0.40564 -0.530959,0.360724 l -0.677971,-0.12211 c -0.446747,-0.06457 -0.840684,-0.02105 -1.117581,0.08702 -0.276898,0.108077 -0.388228,0.256858 -0.41392,0.39441 -0.02855,0.150185 -0.0071,0.234401 0.01713,0.286334 0.02569,0.05474 0.0785,0.116498 0.182696,0.185274 0.232651,0.150185 0.589478,0.248437 1.051925,0.369146 l 0.04139,0.01123 c 0.40821,0.106674 0.907768,0.235805 1.278868,0.474415 0.202678,0.130535 0.393937,0.307388 0.512403,0.554421 0.121321,0.251244 0.147013,0.531963 0.09135,0.830928 -0.09848,0.533366 -0.472438,0.88988 -0.936314,1.076559 -0.195541,0.0786 -0.40821,0.12913 -0.633724,0.154395 v 0.465993 c 0,0.248437 -0.204105,0.449151 -0.456739,0.449151 -0.252633,0 -0.456738,-0.200714 -0.456738,-0.449151 v -0.489855 c -0.0057,-0.0014 -0.01285,-0.0014 -0.01855,-0.0029 h -0.0028 v 0 c -0.348293,-0.0533 -0.920643,-0.20068 -1.306016,-0.369112 -0.229796,-0.101058 -0.33399,-0.366338 -0.231224,-0.592317 0.102767,-0.225979 0.372527,-0.328441 0.602324,-0.227382 0.298307,0.130535 0.789301,0.259665 1.073335,0.303176 0.455311,0.06597 0.830693,0.02807 1.084754,-0.07439 0.241215,-0.09685 0.351118,-0.237208 0.382518,-0.40564 0.02712,-0.148781 0.0057,-0.2344 -0.01856,-0.286333 -0.02712,-0.05612 -0.07993,-0.117879 -0.185549,-0.186656 -0.23408,-0.150185 -0.592333,-0.248436 -1.056208,-0.369145 l -0.03996,-0.0098 v 0 c -0.40679,-0.106629 -0.906348,-0.237163 -1.277448,-0.475774 -0.202677,-0.130535 -0.392509,-0.308791 -0.510975,-0.555824 -0.119894,-0.251244 -0.144158,-0.531963 -0.08707,-0.830928 0.102766,-0.536174 0.510976,-0.884266 0.974851,-1.065329 0.189832,-0.07439 0.398218,-0.12492 0.616597,-0.154396 v -0.495469 c 0,-0.248436 0.204105,-0.44915 0.456738,-0.44915 z"
   id="path2-3-6" /></svg>
