<?xml version="1.0" encoding="utf-8"?>
<!-- Generator: Adobe Illustrator 26.0.2, SVG Export Plug-In . SVG Version: 6.00 Build 0)  -->
<!-- 
Copyright (c) 2025 Bloxtor (http://bloxtor.com) and Joao Pinto (http://jplpinto.com)

Multi-licensed: BSD 3-Clause | Apache 2.0 | GNU LGPL v3 | HLNC License (http://bloxtor.com/LICENSE_HLNC.md)
Choose one license that best fits your needs.

Original Bloxtor Repo: https://github.com/a19836/bloxtor

YOU ARE NOT AUTHORIZED TO MODIFY OR REMOVE ANY PART OF THIS NOTICE!
-->
<svg version="1.1" xmlns="http://www.w3.org/2000/svg" xmlns:xlink="http://www.w3.org/1999/xlink" x="0px" y="0px"
	 viewBox="0 0 54 42" style="enable-background:new 0 0 54 42;" xml:space="preserve">
<style type="text/css">
	.st0{fill:#FFFFFF;}
	.st1{fill:#83889E;}
</style>
<g id="create_local_var">
	<g>
		<!--path class="st0" d="M41.48,36.59c3.07,0,5.57-2.49,5.57-5.57V10.98c0-3.08-2.49-5.57-5.57-5.57H12.52
			c-3.07,0-5.57,2.49-5.57,5.57v20.04c0,3.08,2.49,5.57,5.57,5.57h26.73H41.48z"/-->
		<g>
			<path class="st1" d="M41.48,36.59c3.07,0,5.57-2.49,5.57-5.57V10.98c0-3.08-2.49-5.57-5.57-5.57H12.52
				c-3.07,0-5.57,2.49-5.57,5.57v20.04c0,3.08,2.49,5.57,5.57,5.57h26.73H41.48z M39.42,32.14H12.52c-0.62,0-1.11-0.5-1.11-1.11
				V10.98c0-0.61,0.5-1.11,1.11-1.11h28.95c0.62,0,1.11,0.5,1.11,1.11v20.04c0,0.61-0.5,1.11-1.11,1.11H39.42z"/>
		</g>
		<g>
			<g>
				<g>
					<path class="st1" d="M28.65,21.59l2.41-2.41c0.45-0.45,0.45-1.19,0-1.65c-0.45-0.45-1.19-0.45-1.65,0L27,19.94l-2.41-2.41
						c-0.45-0.45-1.19-0.45-1.65,0c-0.45,0.45-0.45,1.19,0,1.65l2.41,2.41L22.95,24c-0.45,0.45-0.45,1.19,0,1.65
						c0.23,0.23,0.53,0.34,0.82,0.34s0.6-0.11,0.82-0.34L27,23.23l2.41,2.41c0.23,0.23,0.53,0.34,0.82,0.34s0.6-0.11,0.82-0.34
						c0.45-0.45,0.45-1.19,0-1.65L28.65,21.59z"/>
				</g>
			</g>
			<g>
				<path class="st1" d="M20.67,29.12c-0.15,0-0.31-0.03-0.46-0.09c-2.32-0.93-3.36-4.7-3.36-8.03s1.04-7.11,3.36-8.03
					c0.64-0.26,1.37,0.06,1.63,0.7c0.26,0.64-0.06,1.37-0.7,1.63c-0.73,0.29-1.79,2.49-1.79,5.71s1.06,5.41,1.79,5.71
					c0.64,0.26,0.96,0.99,0.7,1.63C21.63,28.82,21.16,29.12,20.67,29.12z"/>
			</g>
			<g>
				<path class="st1" d="M33.33,29.12c0.15,0,0.31-0.03,0.46-0.09c2.32-0.93,3.36-4.7,3.36-8.03s-1.04-7.11-3.36-8.03
					c-0.64-0.26-1.37,0.06-1.63,0.7c-0.26,0.64,0.06,1.37,0.7,1.63c0.73,0.29,1.79,2.49,1.79,5.71s-1.06,5.41-1.79,5.71
					c-0.64,0.26-0.96,0.99-0.7,1.63C32.37,28.82,32.84,29.12,33.33,29.12z"/>
			</g>
		</g>
	</g>
</g>
</svg>
