<?xml version="1.0" encoding="utf-8"?>
<!-- Generator: Adobe Illustrator 23.0.1, SVG Export Plug-In . SVG Version: 6.00 Build 0)  -->
<svg version="1.1" id="Layer_1" xmlns="http://www.w3.org/2000/svg" xmlns:xlink="http://www.w3.org/1999/xlink" x="0px" y="0px"
	 viewBox="0 0 40 40" style="enable-background:new 0 0 40 40;" xml:space="preserve">
<style type="text/css">
	.st0{fill:#83889E;}
</style>
<title>20220503Asset 29</title>
<g>
	<g id="countdown">
		<path class="st0" d="M21,14.4c-0.5-0.1-0.9,0.3-0.9,0.7v0.1v6c0,0.5-0.4,0.8-0.8,0.8h-6c-0.5,0-0.8,0.4-0.8,0.8v0.1
			c0.5,4.2,4.4,7.2,8.6,6.7s7.2-4.4,6.7-8.6C27.2,17.6,24.5,14.8,21,14.4z"/>
		<path class="st0" d="M38.4,0H1.6C0.7,0,0,0.7,0,1.6l0,0v36.8C0,39.3,0.7,40,1.6,40l0,0h36.8c0.9,0,1.6-0.7,1.6-1.6V1.6
			C40,0.7,39.3,0,38.4,0L38.4,0z M30.1,22.9c-0.4,4.6-4.8,8.8-9.4,9.1c-5.6,0.4-10.4-3.9-10.8-9.4c-0.3-5.2,3.3-9.8,8.5-10.7l0,0
			v-1.7l0,0h-0.7c-0.9,0-1.6-0.6-1.7-1.5c0-0.9,0.6-1.6,1.5-1.6c0,0,0,0,0.1,0h4.7c0.9,0,1.6,0.7,1.6,1.6c0,0,0,0,0,0.1
			c-0.1,0.9-0.8,1.5-1.7,1.5h-0.7l0,0v1.6l0,0c1.8,0.3,3.4,1,4.8,2.2l0,0l1-1c0.6-0.6,1.6-0.6,2.2,0c0.6,0.6,0.6,1.6,0,2.2l-1.1,1.1
			l0,0C29.8,18.3,30.3,20.6,30.1,22.9z"/>
	</g>
</g>
</svg>
