<?xml version="1.0" encoding="utf-8"?>
<!-- Generator: Adobe Illustrator 26.0.2, SVG Export Plug-In . SVG Version: 6.00 Build 0)  -->
<svg version="1.1" xmlns="http://www.w3.org/2000/svg" xmlns:xlink="http://www.w3.org/1999/xlink" x="0px" y="0px"
	 viewBox="0 0 54 42" style="enable-background:new 0 0 54 42;" xml:space="preserve">
<style type="text/css">
	.st0{fill:#FFFFFF;}
	.st1{fill:#4070FF;}
</style>
<g id="call_a_class_method">
	<g>
		<path class="st0" d="M46.36,18.63c-0.14-1.09-1-2.03-2.08-2.16l-2.72-0.65c-0.65-1.82-1.62-3.48-2.86-4.92l0.86-2.62
			c0.35-1.04,0.06-2.21-0.82-2.87c-0.55-0.41-1.11-0.89-1.69-1.15l-0.62-0.35c-0.58-0.33-1.18-0.62-1.8-0.88
			c-1.11-0.43-2.17-0.09-2.9,0.72l-1.84,2.06c-0.94-0.18-1.9-0.27-2.89-0.27s-1.95,0.09-2.89,0.27l-1.84-2.06
			c-0.84-0.81-1.89-1.15-2.9-0.72c-0.72,0.27-1.22,0.56-1.8,0.88l-0.62,0.35c-0.58,0.26-1.15,0.74-1.69,1.15
			c-0.88,0.66-1.17,1.82-0.82,2.87l0.86,2.62c-1.24,1.43-2.22,3.1-2.86,4.92l-2.72,0.65c-1.08,0.13-1.94,1.07-2.08,2.16
			C7.54,19.41,7.5,20.2,7.5,21s0.05,1.59,0.14,2.37c0.14,1.09,1,1.93,2.08,2.05l2.68,0.64c0.65,1.87,1.64,3.57,2.9,5.03l-0.86,2.62
			c-0.35,1.04-0.06,2.21,0.82,2.87c0.55,0.41,1.1,0.68,1.68,1.14l0.63,0.36c0.58,0.33,1.18,0.62,1.8,0.88
			c1.01,0.43,2.07,0.09,2.9-0.72l1.84-2.06c0.94,0.18,1.9,0.27,2.89,0.27c0.99,0,1.95-0.09,2.89-0.27l1.84,2.06
			c0.73,0.81,1.79,1.15,2.9,0.72c0.51-0.27,1.22-0.56,1.8-0.88l0.63-0.36c0.58-0.45,1.14-0.73,1.68-1.14
			c0.88-0.66,1.17-1.82,0.82-2.87l-0.86-2.62c1.26-1.46,2.26-3.17,2.9-5.03l2.68-0.64c1.08-0.13,1.94-0.96,2.08-2.05
			c0.09-0.78,0.14-1.57,0.14-2.37S46.46,19.41,46.36,18.63z"/>
		<path class="st1" d="M46.36,18.63c-0.14-1.09-1-2.03-2.08-2.16l-2.72-0.65c-0.65-1.82-1.62-3.48-2.86-4.92l0.86-2.62
			c0.35-1.04,0.06-2.21-0.82-2.87c-0.55-0.41-1.11-0.89-1.69-1.15l-0.62-0.35c-0.58-0.33-1.18-0.62-1.8-0.88
			c-1.11-0.43-2.17-0.09-2.9,0.72l-1.84,2.06c-0.94-0.18-1.9-0.27-2.89-0.27c-0.99,0-1.95,0.09-2.89,0.27l-1.84-2.06
			c-0.84-0.81-1.89-1.15-2.9-0.72c-0.72,0.27-1.22,0.56-1.8,0.88l-0.62,0.35c-0.58,0.26-1.15,0.74-1.69,1.15
			c-0.88,0.66-1.17,1.82-0.82,2.87l0.86,2.62c-1.24,1.43-2.22,3.1-2.86,4.92l-2.72,0.65c-1.08,0.13-1.94,1.07-2.08,2.16
			C7.54,19.41,7.5,20.2,7.5,21c0,0.8,0.05,1.59,0.14,2.37c0.14,1.09,1,1.93,2.08,2.05l2.68,0.64c0.65,1.87,1.64,3.57,2.9,5.03
			l-0.86,2.62c-0.35,1.04-0.06,2.21,0.82,2.87c0.55,0.41,1.1,0.68,1.68,1.14l0.63,0.36c0.58,0.33,1.18,0.62,1.8,0.88
			c1.01,0.43,2.07,0.09,2.9-0.72l1.84-2.06c0.94,0.18,1.9,0.27,2.89,0.27s1.95-0.09,2.89-0.27l1.84,2.06
			c0.73,0.81,1.79,1.15,2.9,0.72c0.51-0.27,1.22-0.56,1.8-0.88l0.63-0.36c0.58-0.45,1.14-0.73,1.68-1.14
			c0.88-0.66,1.17-1.82,0.82-2.87l-0.86-2.62c1.26-1.46,2.26-3.17,2.9-5.03l2.68-0.64c1.08-0.13,1.94-0.96,2.08-2.05
			c0.09-0.78,0.14-1.57,0.14-2.37C46.5,20.2,46.46,19.41,46.36,18.63z M27.9,14.87c0.24-0.1,0.52,0.02,0.61,0.26
			c0.1,0.24-0.02,0.52-0.26,0.61c-0.27,0.11-0.67,0.94-0.67,2.14c0,1.21,0.4,2.04,0.67,2.14c0.24,0.1,0.36,0.37,0.26,0.61
			c-0.07,0.18-0.25,0.3-0.44,0.3c-0.06,0-0.12-0.01-0.17-0.03c-0.87-0.35-1.26-1.77-1.26-3.02C26.63,16.64,27.02,15.22,27.9,14.87z
			 M20.85,21.07c-0.61,0-1.1-0.49-1.1-1.1c0-0.61,0.49-1.1,1.1-1.1c0.07,0,0.35-0.18,0.62-0.74c0.23-0.46,0.39-1.05,0.48-1.69h-1.12
			c-0.61,0-1.1-0.49-1.1-1.1s0.49-1.1,1.1-1.1h1.26c0.11-0.99,0.35-1.91,0.72-2.66c0.63-1.27,1.55-1.97,2.61-1.97
			c0.61,0,1.1,0.49,1.1,1.1c0,0.61-0.49,1.1-1.1,1.1c-0.07,0-0.35,0.18-0.62,0.74c-0.23,0.46-0.39,1.05-0.48,1.69h1.12
			c0.61,0,1.1,0.49,1.1,1.1s-0.49,1.1-1.1,1.1h-1.26c-0.11,0.99-0.35,1.91-0.72,2.66C22.83,20.37,21.9,21.07,20.85,21.07z
			 M31.98,19.02c0.17,0.17,0.17,0.45,0,0.62c-0.09,0.09-0.2,0.13-0.31,0.13s-0.22-0.04-0.31-0.13l-0.91-0.91l-0.91,0.91
			c-0.09,0.09-0.2,0.13-0.31,0.13c-0.11,0-0.22-0.04-0.31-0.13c-0.17-0.17-0.17-0.45,0-0.62l0.91-0.91l-0.91-0.91
			c-0.17-0.17-0.17-0.45,0-0.62c0.17-0.17,0.45-0.17,0.62,0l0.91,0.91l0.91-0.91c0.17-0.17,0.45-0.17,0.62,0
			c0.17,0.17,0.17,0.45,0,0.62l-0.91,0.91L31.98,19.02z M33.01,20.91c-0.06,0.02-0.12,0.03-0.17,0.03c-0.19,0-0.36-0.11-0.44-0.3
			c-0.1-0.24,0.02-0.52,0.26-0.61c0.27-0.11,0.67-0.94,0.67-2.14c0-1.21-0.4-2.04-0.67-2.14c-0.24-0.1-0.36-0.37-0.26-0.61
			c0.1-0.24,0.37-0.36,0.61-0.26c0.87,0.35,1.26,1.77,1.26,3.02C34.27,19.14,33.88,20.56,33.01,20.91z"/>
		<g>
			<path class="st0" d="M26.81,30.83c-0.16,0.28-0.45,0.42-0.77,0.42h-5.32c-0.32,0-0.61-0.15-0.77-0.42
				c-0.16-0.28-0.16-0.62,0.01-0.89l2.66-4.43c0.16-0.27,0.45-0.43,0.76-0.43c0.31,0,0.6,0.16,0.76,0.43l2.66,4.43
				C26.97,30.21,26.97,30.55,26.81,30.83z"/>
			<path class="st0" d="M34.16,30.16c0,0.61-0.5,1.11-1.11,1.11h-3.99c-0.61,0-1.11-0.5-1.11-1.11v-3.99c0-0.61,0.5-1.11,1.11-1.11
				h3.99c0.61,0,1.11,0.5,1.11,1.11V30.16z"/>
		</g>
	</g>
</g>
</svg>
