<?xml version="1.0" encoding="utf-8"?>
<!-- Generator: Adobe Illustrator 26.0.2, SVG Export Plug-In . SVG Version: 6.00 Build 0)  -->
<svg version="1.1" xmlns="http://www.w3.org/2000/svg" xmlns:xlink="http://www.w3.org/1999/xlink" x="0px" y="0px"
	 viewBox="0 0 54 42" style="enable-background:new 0 0 54 42;" xml:space="preserve">
<style type="text/css">
	.st0{fill:#FFFFFF;}
	.st1{fill:#4070FF;}
</style>
<g id="outras_tasks">
	<!--path class="st0" d="M27,2.76C16.93,2.76,8.76,10.93,8.76,21S16.93,39.24,27,39.24S45.24,31.07,45.24,21S37.07,2.76,27,2.76z"/-->
	<path class="st1" d="M27,2.76C16.93,2.76,8.76,10.93,8.76,21S16.93,39.24,27,39.24S45.24,31.07,45.24,21S37.07,2.76,27,2.76z
		 M34.34,23H29v5.34c0,1.11-0.89,2-2,2c-1.11,0-2-0.89-2-2V23h-5.34c-1.11,0-2-0.89-2-2c0-1.11,0.89-2,2-2H25v-5.34
		c0-1.11,0.89-2,2-2c1.11,0,2,0.89,2,2V19h5.34c1.11,0,2,0.89,2,2C36.34,22.11,35.44,23,34.34,23z"/>
</g>
</svg>
