<?xml version="1.0" encoding="utf-8"?>
<!-- Generator: Adobe Illustrator 26.0.2, SVG Export Plug-In . SVG Version: 6.00 Build 0)  -->
<!-- 
Copyright (c) 2025 Bloxtor (http://bloxtor.com) and Joao Pinto (http://jplpinto.com)

Multi-licensed: BSD 3-Clause | Apache 2.0 | GNU LGPL v3 | HLNC License (http://bloxtor.com/LICENSE_HLNC.md)
Choose one license that best fits your needs.

Original Bloxtor Repo: https://github.com/a19836/bloxtor

YOU ARE NOT AUTHORIZED TO MODIFY OR REMOVE ANY PART OF THIS NOTICE!
-->
<svg version="1.1" xmlns="http://www.w3.org/2000/svg" xmlns:xlink="http://www.w3.org/1999/xlink" x="0px" y="0px"
	 viewBox="0 0 54 42" style="enable-background:new 0 0 54 42;" xml:space="preserve">
<style type="text/css">
	.st0{fill:#FFFFFF;}
	.st1{fill:#4070FF;}
</style>
<g id="user_generated_2">
	<g>
		<path class="st0" d="M38.61,26.5l-5.2,0.94l-0.94,5.2c-0.09,0.52-0.7,0.77-1.13,0.47L27,30.09l-4.34,3.01
			c-0.44,0.3-1.04,0.05-1.13-0.47l-0.94-5.2l-5.2-0.94c-0.52-0.09-0.77-0.7-0.47-1.13l3.01-4.34l-3.01-4.38
			c-0.3-0.39-0.05-1,0.47-1.09l5.2-0.94l0.9-5.2c0.09-0.52,0.7-0.77,1.13-0.47L27,11.95l4.34-3.06c0.44-0.3,1.04-0.05,1.13,0.47
			l0.94,5.2l5.2,0.94c0.52,0.09,0.77,0.7,0.47,1.13l-3.01,4.34l3.02,4.38C39.39,25.8,39.14,26.4,38.61,26.5z"/>
		<path class="st1" d="M27,14.96c-3.33,0-6.06,2.69-6.06,6.06c0,3.33,2.69,6.06,6.06,6.06c3.37,0,6.06-2.69,6.06-6.06
			C33.06,17.69,30.33,14.96,27,14.96z M27,25.56c-2.57,0-4.54-2.14-4.54-4.62S24.47,16.4,27,16.4c2.53,0,4.54,2.14,4.54,4.62
			C31.54,23.51,29.57,25.56,27,25.56z"/>
		<path class="st1" d="M27,2.76C16.93,2.76,8.76,10.93,8.76,21c0,10.07,8.16,18.24,18.24,18.24S45.24,31.07,45.24,21
			C45.24,10.93,37.07,2.76,27,2.76z M38.61,26.5l-5.2,0.94l-0.94,5.2c-0.09,0.52-0.7,0.77-1.13,0.47L27,30.09l-4.34,3.01
			c-0.44,0.3-1.04,0.05-1.13-0.47l-0.94-5.2l-5.2-0.94c-0.52-0.09-0.77-0.7-0.47-1.13l3.01-4.34l-3.01-4.38
			c-0.3-0.39-0.05-1,0.47-1.09l5.2-0.94l0.9-5.2c0.09-0.52,0.7-0.77,1.13-0.47L27,11.95l4.34-3.06c0.44-0.3,1.04-0.05,1.13,0.47
			l0.94,5.2l5.2,0.94c0.52,0.09,0.77,0.7,0.47,1.13l-3.01,4.34l3.02,4.38C39.39,25.8,39.14,26.4,38.61,26.5z"/>
	</g>
</g>
</svg>
