<?xml version="1.0" encoding="utf-8"?>
<!-- Generator: Adobe Illustrator 23.0.1, SVG Export Plug-In . SVG Version: 6.00 Build 0)  -->
<svg version="1.1" id="Layer_1" xmlns="http://www.w3.org/2000/svg" xmlns:xlink="http://www.w3.org/1999/xlink" x="0px" y="0px"
	 viewBox="0 0 40 40" style="enable-background:new 0 0 40 40;" xml:space="preserve">
<style type="text/css">
	.st0{fill:#83889E;}
</style>
<title>20220503Asset 24</title>
<g>
	<g id="google_maps">
		<path class="st0" d="M22,17c0.1-0.1,0.1-0.2,0.1-0.3c-0.2-0.4-0.4-0.8-0.5-1.2c-0.4-1-0.4-2.2,0.1-3.2c0.2-0.5,0.5-0.9,0.8-1.4
			h-0.1H13c-0.2,0-0.4,0-0.6,0.1c-0.9,0.2-1.5,1-1.5,2c0,4.7,0,9.5,0,14.2c0,0.3,0.1,0.6,0.1,0.9l0.2-0.2l3.7-3.7
			C17.3,21.7,19.6,19.4,22,17z M12.2,14.6c0.3-1.2,1.2-2.2,2.5-2.5c1.2-0.4,2.5,0,3.4,0.8c0.3,0.2,0.4,0.7,0.1,1l0,0
			c-0.3,0.3-0.7,0.3-1,0.1l0,0c-0.5-0.5-1.2-0.7-1.8-0.6c-1.1,0.2-1.9,1.3-1.7,2.4c0.2,1,1.1,1.8,2.2,1.7c0.8,0,1.5-0.6,1.8-1.3
			c-0.6,0-1.3,0-1.9,0c-0.4,0-0.7-0.3-0.8-0.7c0-0.1,0-0.2,0-0.2c0.1-0.3,0.3-0.5,0.6-0.5c0.1,0,0.2,0,0.2,0h2.6
			c0.4-0.1,0.8,0.2,0.9,0.6c0,0.1,0,0.2,0,0.3c0,1.4-0.9,2.6-2.2,3.1c-1.3,0.6-2.8,0.3-3.8-0.7C12.2,17.1,11.9,15.8,12.2,14.6z"/>
		<path class="st0" d="M24.9,18.6c0.3,0.5,0.7,1,1,1.5c0.3-0.5,0.7-1,1-1.5c0.7-1.1,1.4-2.2,1.9-3.3c0.2-0.5,0.3-1,0.3-1.5
			c-0.2-1.8-1.7-3.1-3.5-3c-0.1,0-0.1,0-0.2,0c-1.9,0.3-3.4,2.4-2.4,4.5C23.6,16.5,24.2,17.6,24.9,18.6z"/>
		<path class="st0" d="M12.1,29c0.3,0.1,0.5,0.1,0.8,0.1c4.8,0,9.5,0,14.3,0c0.3,0,0.5,0,0.8-0.1c-2.7-2.7-5.3-5.3-7.9-7.9L12.1,29z
			"/>
		<path class="st0" d="M29,18.1c-0.8,1.2-1.6,2.4-2.4,3.6c-0.4,0.6-1,0.6-1.3,0c-0.8-1.1-1.5-2.2-2.2-3.3c0-0.1-0.1-0.1-0.1-0.2
			L21.1,20c2.6,2.6,5.3,5.3,7.9,7.9c0-0.3,0.1-0.6,0.1-0.9C29.1,24,29.1,21.1,29,18.1L29,18.1L29,18.1L29,18.1z"/>
		<path class="st0" d="M38.4,0H1.6C0.7,0,0,0.7,0,1.6l0,0v36.8C0,39.3,0.7,40,1.6,40l0,0h36.8c0.9,0,1.6-0.7,1.6-1.6V1.6
			C40,0.7,39.3,0,38.4,0L38.4,0z M30.6,27.6L30.6,27.6c-0.2,1.5-1.2,2.6-2.5,2.9l-0.4,0.1H12.4h-0.1c-1.7-0.2-2.9-1.7-2.9-3.4
			c0-4.8,0-9.6,0-14.4c0-0.4,0.1-0.8,0.2-1.1c0.5-1.4,1.8-2.3,3.2-2.3c2.2,0,4.4,0,6.6,0c2.6,0,5.1,0,7.7,0c1.6,0,3,1.1,3.3,2.6
			c0,0.1,0.1,0.3,0.1,0.4L30.6,27.6L30.6,27.6z"/>
	</g>
</g>
</svg>
