<svg width="475" height="86" viewBox="0 0 475 86" fill="none" xmlns="http://www.w3.org/2000/svg">
<path d="M222.6 30.9H192C185.9 30.9 181 36.2 181 42.7V73.9C181 80.4 185.9 85.7 192 85.7H222.6C229.1 85.7 234.4 80.4 234.4 73.9V42.7C234.4 36.2 229.1 30.9 222.6 30.9ZM224.9 68.2C224.9 72.3 221.5 75.7 217.4 75.7H197.9C194 75.7 190.9 72.3 190.9 68.2V48.4C190.9 44.3 194 40.9 197.9 40.9H217.4C221.5 40.9 224.9 44.3 224.9 48.4V68.2Z" fill="#FC3C44"/>
<path d="M404 30.9H373.4C367.3 30.9 362.4 36.2 362.4 42.7V73.9C362.4 80.4 367.3 85.7 373.4 85.7H404C410.5 85.7 415.8 80.4 415.8 73.9V42.7C415.8 36.2 410.5 30.9 404 30.9ZM406.3 68.2C406.3 72.3 402.9 75.7 398.8 75.7H379.3C375.4 75.7 372.3 72.3 372.3 68.2V48.4C372.3 44.3 375.4 40.9 379.3 40.9H398.8C402.9 40.9 406.3 44.3 406.3 48.4V68.2Z" fill="white"/>
<path d="M158.1 85.6C155.3 85.6 153.1 83.4 153.1 80.6V5.2C153.1 2.4 155.3 0.199997 158.1 0.199997C160.9 0.199997 163.1 2.4 163.1 5.2V80.6C163.1 83.3 160.9 85.6 158.1 85.6Z" fill="white"/>
<path d="M284.5 58.2L303.4 39.3C305.4 37.3 305.4 34.2 303.4 32.2C301.4 30.2 298.3 30.2 296.3 32.2L277.4 51.1L258.5 32.2C256.5 30.2 253.4 30.2 251.4 32.2C249.4 34.2 249.4 37.3 251.4 39.3L270.3 58.2L251.4 77.1C249.4 79.1 249.4 82.2 251.4 84.2C252.4 85.2 253.7 85.7 254.9 85.7C256.1 85.7 257.5 85.2 258.4 84.2L277.3 65.3L296.2 84.2C297.2 85.2 298.5 85.7 299.7 85.7C300.9 85.7 302.3 85.2 303.2 84.2C305.2 82.2 305.2 79.1 303.2 77.1L284.5 58.2Z" fill="white"/>
<path d="M347.5 31.3H330.1V5.3C330.1 2.5 327.9 0.300003 325.1 0.300003C322.3 0.300003 320.1 2.5 320.1 5.3V80.7C320.1 83.5 322.3 85.7 325.1 85.7C327.9 85.7 330.1 83.5 330.1 80.7V41.3H347.5C350.3 41.3 352.5 39.1 352.5 36.3C352.5 33.5 350.3 31.3 347.5 31.3Z" fill="white"/>
<path d="M436.7 85.7C433.9 85.7 431.7 83.5 431.7 80.7V46.7C431.7 38.4 438.4 31.7 446.7 31.7H469.3C472.1 31.7 474.3 33.9 474.3 36.7C474.3 39.5 472.1 41.7 469.3 41.7H446.7C443.9 41.7 441.7 43.9 441.7 46.7V80.7C441.7 83.5 439.5 85.7 436.7 85.7Z" fill="white"/>
<path d="M35.1002 61.4C32.4002 61.4 30.2002 63.7 30.2002 66.6V80.4C30.2002 83.3 32.4002 85.6 35.1002 85.6H48.6002C51.5002 85.6 53.8002 83.3 53.8002 80.4V66.6C53.8002 63.7 51.5002 61.4 48.6002 61.4H35.1002Z" fill="#FC3C44"/>
<path d="M35.1002 30.8C32.4002 30.8 30.2002 33.1 30.2002 36V49.8C30.2002 52.7 32.4002 55 35.1002 55H48.6002C51.5002 55 53.8002 52.7 53.8002 49.8V36C53.8002 33.1 51.5002 30.8 48.6002 30.8H35.1002Z" fill="#FC3C44"/>
<path d="M5.10019 61.4C2.40019 61.4 0.200195 63.7 0.200195 66.6V80.4C0.200195 83.3 2.40019 85.6 5.10019 85.6H18.6002C21.5002 85.6 23.8002 83.3 23.8002 80.4V66.6C23.8002 63.7 21.5002 61.4 18.6002 61.4H5.10019Z" fill="#FC3C44"/>
<path d="M5.10019 30.8C2.40019 30.8 0.200195 33.1 0.200195 36V49.8C0.200195 52.7 2.40019 55 5.10019 55H18.6002C21.5002 55 23.8002 52.7 23.8002 49.8V36C23.8002 33.1 21.5002 30.8 18.6002 30.8H5.10019Z" fill="#FC3C44"/>
<path d="M5.10019 0.199997C2.40019 0.199997 0.200195 2.49999 0.200195 5.39999V19.2C0.200195 22.1 2.40019 24.4 5.10019 24.4H18.6002C21.5002 24.4 23.8002 22.1 23.8002 19.2V5.39999C23.8002 2.49999 21.5002 0.199997 18.6002 0.199997H5.10019Z" fill="#FC3C44"/>
<path d="M125.4 30.8H114.7H108.3H93.8003V5.2C93.8003 2.4 91.6003 0.199997 88.8003 0.199997C86.0003 0.199997 83.8003 2.4 83.8003 5.2V80.6C83.8003 83.4 86.0003 85.6 88.8003 85.6H108.3H114.7H125.4C131.9 85.6 137.2 80.3 137.2 73.8V42.6C137.1 36.1 131.9 30.8 125.4 30.8ZM127.6 68.1C127.6 72.2 124.2 75.6 120.1 75.6H114.6H108.2H93.7003V40.8H108.2H114.6H120.1C124.2 40.8 127.6 44.2 127.6 48.3V68.1Z" fill="white"/>
</svg>
