<?xml version="1.0" encoding="utf-8"?>
<!-- Generator: Adobe Illustrator 26.0.2, SVG Export Plug-In . SVG Version: 6.00 Build 0)  -->
<svg version="1.1" xmlns="http://www.w3.org/2000/svg" xmlns:xlink="http://www.w3.org/1999/xlink" x="0px" y="0px"
	 viewBox="0 0 54 42" style="enable-background:new 0 0 54 42;" xml:space="preserve">
<style type="text/css">
	.st0{fill:#FFFFFF;}
	.st1{fill:#83889E;}
</style>
<g id="set_presentation_template">
	<g>
		<path class="st0" d="M27,2.76C16.93,2.76,8.76,10.93,8.76,21S16.93,39.24,27,39.24S45.24,31.07,45.24,21S37.07,2.76,27,2.76z"/>
		<path class="st1" d="M19.3,23.8c-0.39,0-0.7,0.31-0.7,0.7v0.7c0,0.39,0.31,0.7,0.7,0.7h2.71h0.74v-2.1h-0.74H19.3z"/>
		<rect x="24.22" y="23.8" class="st1" width="5.08" height="2.1"/>
		<path class="st1" d="M20,21H34c0.77,0,1.4-0.63,1.4-1.4v-2.8c0-0.77-0.63-1.4-1.4-1.4H20c-0.77,0-1.4,0.63-1.4,1.4v2.8
			C18.6,20.37,19.23,21,20,21z"/>
		<path class="st1" d="M27,2.76C16.93,2.76,8.76,10.93,8.76,21S16.93,39.24,27,39.24S45.24,31.07,45.24,21S37.07,2.76,27,2.76z
			 M38.21,26.6c0,1.55-1.25,2.8-2.8,2.8H18.6c-1.55,0-2.8-1.25-2.8-2.8V15.4c0-1.55,1.25-2.8,2.8-2.8H35.4c1.55,0,2.8,1.25,2.8,2.8
			V26.6z"/>
		<path class="st1" d="M34.73,23.8h-3.97v2.1h3.97c0.39,0,0.7-0.31,0.7-0.7v-0.7C35.43,24.11,35.12,23.8,34.73,23.8z"/>
	</g>
</g>
</svg>
