<?xml version="1.0" encoding="utf-8"?>
<!-- Generator: Adobe Illustrator 23.0.1, SVG Export Plug-In . SVG Version: 6.00 Build 0)  -->
<!-- 
Copyright (c) 2025 Bloxtor (http://bloxtor.com) and Joao Pinto (http://jplpinto.com)

Multi-licensed: BSD 3-Clause | Apache 2.0 | GNU LGPL v3 | HLNC License (http://bloxtor.com/LICENSE_HLNC.md)
Choose one license that best fits your needs.

Original JQuery Layout UI Editor Repo: https://github.com/a19836/jquerylayoutuieditor/
Original Bloxtor Repo: https://github.com/a19836/bloxtor

YOU ARE NOT AUTHORIZED TO MODIFY OR REMOVE ANY PART OF THIS NOTICE!
-->
<svg version="1.1" id="Layer_1" xmlns="http://www.w3.org/2000/svg" xmlns:xlink="http://www.w3.org/1999/xlink" x="0px" y="0px"
	 viewBox="0 0 40 40" style="enable-background:new 0 0 40 40;" xml:space="preserve">
<style type="text/css">
	.st0{fill:#83889E;}
</style>
<title>20220503Asset 10</title>
<g>
	<g id="td_Cell">
		<rect x="15.1" y="15.1" class="st0" width="9.8" height="9.8"/>
		<path class="st0" d="M8.2,14.5h4.5v-0.6c0-0.7,0.5-1.2,1.2-1.2h0.6V8.2H8.2V14.5z"/>
		<rect x="8.2" y="16.9" class="st0" width="4.5" height="6.3"/>
		<path class="st0" d="M12.7,26.1v-0.6H8.2v6.3h6.3v-4.5h-0.6C13.2,27.3,12.7,26.8,12.7,26.1z"/>
		<rect x="16.9" y="8.2" class="st0" width="6.3" height="4.5"/>
		<rect x="16.9" y="27.3" class="st0" width="6.3" height="4.5"/>
		<path class="st0" d="M27.3,26.1c0,0.7-0.5,1.2-1.2,1.2h-0.6v4.5h6.3v-6.3h-4.5V26.1z"/>
		<path class="st0" d="M25.5,12.7h0.6c0.7,0,1.2,0.5,1.2,1.2v0.6h4.5V8.2h-6.3V12.7z"/>
		<path class="st0" d="M38.4,0H1.6C0.7,0,0,0.7,0,1.6l0,0v36.8C0,39.3,0.7,40,1.6,40l0,0h36.8c0.9,0,1.6-0.7,1.6-1.6V1.6
			C40,0.7,39.3,0,38.4,0L38.4,0z M34.2,15.7V33c0,0.7-0.5,1.2-1.2,1.2H7c-0.7,0-1.2-0.5-1.2-1.2V7c0-0.7,0.5-1.2,1.2-1.2h26
			c0.7,0,1.2,0.5,1.2,1.2V15.7z"/>
		<rect x="27.3" y="16.9" class="st0" width="4.5" height="6.3"/>
	</g>
</g>
</svg>
