<?xml version="1.0" encoding="utf-8"?>
<!-- Generator: Adobe Illustrator 23.0.1, SVG Export Plug-In . SVG Version: 6.00 Build 0)  -->
<svg version="1.1" id="Layer_1" xmlns="http://www.w3.org/2000/svg" xmlns:xlink="http://www.w3.org/1999/xlink" x="0px" y="0px"
	 viewBox="0 0 40 40" style="enable-background:new 0 0 40 40;" xml:space="preserve">
<style type="text/css">
	.st0{fill:#83889E;}
</style>
<title>20220503Asset 23</title>
<g>
	<g id="nav_bar">
		<path class="st0" d="M31.8,19.4H25c-0.3,0-0.6,0.3-0.6,0.6s0.3,0.6,0.6,0.6h6.9c0.3,0,0.6-0.3,0.6-0.6S32.1,19.4,31.8,19.4
			L31.8,19.4z"/>
		<path class="st0" d="M31.8,16.6H25c-0.3,0-0.6,0.3-0.6,0.6s0.3,0.6,0.6,0.6h6.9c0.3,0,0.6-0.3,0.6-0.6S32.1,16.6,31.8,16.6
			L31.8,16.6z"/>
		<path class="st0" d="M38.4,0H1.6C0.7,0,0,0.7,0,1.6l0,0v36.8C0,39.3,0.7,40,1.6,40l0,0h36.8c0.9,0,1.6-0.7,1.6-1.6V1.6
			C40,0.7,39.3,0,38.4,0L38.4,0z M36,23.4c0,1.1-0.9,2-2,2l0,0H6c-1.1,0-2-0.9-2-2l0,0v-6.9c0-1.1,0.9-2,2-2l0,0h28c1.1,0,2,0.9,2,2
			l0,0V23.4z"/>
		<path class="st0" d="M31.8,22.3H25c-0.3,0-0.6,0.3-0.6,0.6s0.3,0.6,0.6,0.6h6.9c0.3,0,0.6-0.3,0.6-0.6
			C32.4,22.5,32.1,22.3,31.8,22.3L31.8,22.3z"/>
	</g>
</g>
</svg>
