<?xml version="1.0" encoding="utf-8"?>
<!-- Generator: Adobe Illustrator 26.0.2, SVG Export Plug-In . SVG Version: 6.00 Build 0)  -->
<!-- 
Copyright (c) 2025 Bloxtor (http://bloxtor.com) and Joao Pinto (http://jplpinto.com)

Multi-licensed: BSD 3-Clause | Apache 2.0 | GNU LGPL v3 | HLNC License (http://bloxtor.com/LICENSE_HLNC.md)
Choose one license that best fits your needs.

Original Bloxtor Repo: https://github.com/a19836/bloxtor

YOU ARE NOT AUTHORIZED TO MODIFY OR REMOVE ANY PART OF THIS NOTICE!
-->
<svg version="1.1" xmlns="http://www.w3.org/2000/svg" xmlns:xlink="http://www.w3.org/1999/xlink" x="0px" y="0px"
	 viewBox="0 0 54 42" style="enable-background:new 0 0 54 42;" xml:space="preserve">
<style type="text/css">
	.st0{fill:#FFFFFF;}
	.st1{fill:#83889E;}
</style>
<g id="namespace">
	<!--path class="st0" d="M27,2.76C16.93,2.76,8.76,10.93,8.76,21S16.93,39.24,27,39.24S45.24,31.07,45.24,21S37.07,2.76,27,2.76z"/-->
	<path class="st1" d="M27,2.76C16.93,2.76,8.76,10.93,8.76,21S16.93,39.24,27,39.24S45.24,31.07,45.24,21S37.07,2.76,27,2.76z
		 M26.14,25.58c-0.16,0.15-0.37,0.25-0.6,0.28c0,0-3.15,0.18-3.59,0.4c-0.44,0.22-0.9,1.42-2.01,1.42h-2.5
		c-2.07,0-3.75-1.68-3.75-3.75v-2.5c0-0.69,0.56-1.25,1.25-1.25c0.24,0,0.46,0.07,0.65,0.19c0.11-0.58,0.62-1.02,1.23-1.02
		c0.45,0,0.85,0.24,1.07,0.6c0.13-0.58,0.62-1.02,1.23-1.02c0.32,0,0.61,0.12,0.83,0.32v-3.87c0-0.58,0.47-1.04,1.02-1.04
		c0.6,0,1.07,0.47,1.07,1.04v8.41l3.29,0c0.34-0.04,0.66,0.09,0.88,0.32C26.57,24.51,26.58,25.17,26.14,25.58z M25.43,14.62
		c0-0.86,0.7-1.57,1.57-1.57s1.57,0.7,1.57,1.57c0,0.86-0.7,1.57-1.57,1.57S25.43,15.48,25.43,14.62z M36.56,27.67h-2.5
		c-1.11,0-1.56-1.2-2.01-1.42c-0.44-0.22-3.59-0.4-3.59-0.4c-0.23-0.03-0.44-0.13-0.6-0.28c-0.44-0.41-0.43-1.07-0.05-1.47
		c0.22-0.23,0.54-0.36,0.88-0.32l3.29,0v-8.41c0-0.58,0.47-1.04,1.07-1.04c0.55,0,1.02,0.47,1.02,1.04v3.87
		c0.22-0.2,0.51-0.32,0.83-0.32c0.61,0,1.1,0.44,1.23,1.02c0.22-0.36,0.61-0.6,1.07-0.6c0.61,0,1.12,0.44,1.23,1.02
		c0.19-0.12,0.41-0.19,0.65-0.19c0.69,0,1.25,0.56,1.25,1.25v2.5C40.31,25.99,38.62,27.67,36.56,27.67z"/>
</g>
</svg>
