<?xml version="1.0" encoding="utf-8"?>
<!-- Generator: Adobe Illustrator 26.0.2, SVG Export Plug-In . SVG Version: 6.00 Build 0)  -->
<!-- 
Copyright (c) 2025 Bloxtor (http://bloxtor.com) and Joao Pinto (http://jplpinto.com)

Multi-licensed: BSD 3-Clause | Apache 2.0 | GNU LGPL v3 | HLNC License (http://bloxtor.com/LICENSE_HLNC.md)
Choose one license that best fits your needs.

Original Bloxtor Repo: https://github.com/a19836/bloxtor

YOU ARE NOT AUTHORIZED TO MODIFY OR REMOVE ANY PART OF THIS NOTICE!
-->
<svg version="1.1" xmlns="http://www.w3.org/2000/svg" xmlns:xlink="http://www.w3.org/1999/xlink" x="0px" y="0px"
	 viewBox="0 0 54 42" style="enable-background:new 0 0 54 42;" xml:space="preserve">
<style type="text/css">
	.st0{fill:#FFFFFF;}
	.st1{fill:#83889E;}
</style>
<g id="print_exception">
	<g>
		<!--path class="st0" d="M27,2.76C16.93,2.76,8.76,10.93,8.76,21S16.93,39.24,27,39.24S45.24,31.07,45.24,21S37.07,2.76,27,2.76z"/-->
		<path class="st1" d="M21.83,30.53h10.34V23.1H21.83V30.53z M24.97,25.62c-0.27-0.27-0.27-0.71,0-0.98c0.27-0.27,0.71-0.27,0.98,0
			L27,25.67l1.04-1.04c0.27-0.27,0.71-0.27,0.98,0c0.27,0.27,0.27,0.71,0,0.98l-1.04,1.04l1.04,1.04c0.27,0.27,0.27,0.71,0,0.98
			c-0.14,0.14-0.31,0.2-0.49,0.2s-0.36-0.07-0.49-0.2L27,27.64l-1.04,1.04c-0.14,0.14-0.31,0.2-0.49,0.2s-0.36-0.07-0.49-0.2
			c-0.27-0.27-0.27-0.71,0-0.98l1.04-1.04L24.97,25.62z"/>
		<circle class="st1" cx="34.11" cy="19.87" r="0.97"/>
		<path class="st1" d="M27,2.76C16.93,2.76,8.76,10.93,8.76,21S16.93,39.24,27,39.24S45.24,31.07,45.24,21S37.07,2.76,27,2.76z
			 M19.25,10.18c0-0.71,0.58-1.29,1.29-1.29h11.09c0.34,0,0.67,0.14,0.91,0.38l1.83,1.83c0.24,0.24,0.38,0.57,0.38,0.91v3.34h-2.58
			v-2.81l-1.07-1.07h-9.27v3.88h-2.58V10.18z M37.34,23.1c0,0.71-0.58,1.29-1.29,1.29h-1.29v7.43c0,0.71-0.58,1.29-1.29,1.29H20.54
			c-0.71,0-1.29-0.58-1.29-1.29v-7.43h-1.29c-0.71,0-1.29-0.58-1.29-1.29v-3.88c0-1.43,1.16-2.58,2.58-2.58h15.5
			c1.43,0,2.58,1.16,2.58,2.58V23.1z"/>
	</g>
</g>
</svg>
