<?xml version="1.0" encoding="utf-8"?>
<!-- Generator: Adobe Illustrator 23.0.1, SVG Export Plug-In . SVG Version: 6.00 Build 0)  -->
<!-- 
Copyright (c) 2025 Bloxtor (http://bloxtor.com) and Joao Pinto (http://jplpinto.com)

Multi-licensed: BSD 3-Clause | Apache 2.0 | GNU LGPL v3 | HLNC License (http://bloxtor.com/LICENSE_HLNC.md)
Choose one license that best fits your needs.

Original JQuery Layout UI Editor Repo: https://github.com/a19836/jquerylayoutuieditor/
Original Bloxtor Repo: https://github.com/a19836/bloxtor

YOU ARE NOT AUTHORIZED TO MODIFY OR REMOVE ANY PART OF THIS NOTICE!
-->
<svg version="1.1" id="Layer_1" xmlns="http://www.w3.org/2000/svg" xmlns:xlink="http://www.w3.org/1999/xlink" x="0px" y="0px"
	 viewBox="0 0 40 40" style="enable-background:new 0 0 40 40;" xml:space="preserve">
<style type="text/css">
	.st0{fill:#83889E;}
</style>
<title>20220503Asset 33</title>
<g>
	<g id="radio_button">
		<path class="st0" d="M38.4,0H1.6C0.7,0,0,0.7,0,1.6l0,0v36.8C0,39.3,0.7,40,1.6,40l0,0h36.8c0.9,0,1.6-0.7,1.6-1.6V1.6
			C40,0.7,39.3,0,38.4,0L38.4,0z M28.1,27.2c-1.9,2.1-4.6,3.4-7.4,3.6c-0.2,0-0.4,0-0.6,0c-6,0-10.8-4.8-10.8-10.8S14,9.2,20,9.2
			S30.8,14,30.8,20C30.8,22.7,29.8,25.2,28.1,27.2z"/>
		<path class="st0" d="M20,11.6h-0.5c-4.7,0.1-8.3,4-8.2,8.7s4,8.3,8.7,8.2s8.3-4,8.2-8.7C28.1,15.3,24.5,11.7,20,11.6z M20.3,25.5
			c-3,0.2-5.7-2.2-5.8-5.2s2.2-5.7,5.2-5.8s5.7,2.2,5.8,5.2l0,0C25.7,22.7,23.4,25.3,20.3,25.5L20.3,25.5z"/>
	</g>
</g>
</svg>
