<?xml version="1.0" encoding="UTF-8" standalone="no"?>
<!-- Generator: Adobe Illustrator 23.0.1, SVG Export Plug-In . SVG Version: 6.00 Build 0)  -->
<!-- 
Copyright (c) 2025 Bloxtor (http://bloxtor.com) and Joao Pinto (http://jplpinto.com)

Multi-licensed: BSD 3-Clause | Apache 2.0 | GNU LGPL v3 | HLNC License (http://bloxtor.com/LICENSE_HLNC.md)
Choose one license that best fits your needs.

Original JQuery Layout UI Editor Repo: https://github.com/a19836/jquerylayoutuieditor/
Original Bloxtor Repo: https://github.com/a19836/bloxtor

YOU ARE NOT AUTHORIZED TO MODIFY OR REMOVE ANY PART OF THIS NOTICE!
-->

<svg
   xmlns:dc="http://purl.org/dc/elements/1.1/"
   xmlns:cc="http://creativecommons.org/ns#"
   xmlns:rdf="http://www.w3.org/1999/02/22-rdf-syntax-ns#"
   xmlns:svg="http://www.w3.org/2000/svg"
   xmlns="http://www.w3.org/2000/svg"
   xmlns:sodipodi="http://sodipodi.sourceforge.net/DTD/sodipodi-0.dtd"
   xmlns:inkscape="http://www.inkscape.org/namespaces/inkscape"
   version="1.1"
   id="Layer_1"
   x="0px"
   y="0px"
   viewBox="0 0 40 40"
   style="enable-background:new 0 0 40 40;"
   xml:space="preserve"
   sodipodi:docname="logo.svg"
   inkscape:version="0.92.3 (2405546, 2018-03-11)"><metadata
   id="metadata18"><rdf:RDF><cc:Work
       rdf:about=""><dc:format>image/svg+xml</dc:format><dc:type
         rdf:resource="http://purl.org/dc/dcmitype/StillImage" /></cc:Work></rdf:RDF></metadata><defs
   id="defs16" /><sodipodi:namedview
   pagecolor="#ffffff"
   bordercolor="#666666"
   borderopacity="1"
   objecttolerance="10"
   gridtolerance="10"
   guidetolerance="10"
   inkscape:pageopacity="0"
   inkscape:pageshadow="2"
   inkscape:window-width="1366"
   inkscape:window-height="670"
   id="namedview14"
   showgrid="false"
   inkscape:zoom="5.9"
   inkscape:cx="23.380746"
   inkscape:cy="26.779661"
   inkscape:window-x="0"
   inkscape:window-y="27"
   inkscape:window-maximized="1"
   inkscape:current-layer="Layer_1" />
<style
   type="text/css"
   id="style2">
	.st0{fill:#83889E;}
</style>
<title
   id="title4">20220503Asset 36</title>
<g>
	<g id="dropdown">
		<path class="st0" d="M 38.4,0 H 1.6 C 0.7,0 0,0.7 0,1.6 v 0 36.8 C 0,39.3 0.7,40 1.6,40 v 0 H 38.4 C 39.3,40 40,39.3 40,38.4 V 1.6 C 40,0.7 39.3,0 38.4,0 Z M 36,15.4 c 0,1.1 -0.9,2 -2,2 v 0 H 6 c -1.1,0 -2,-0.9 -2,-2 v 0 -6.9 c 0,-1.1 0.9,-2 2,-2 v 0 h 28 c 1.1,0 2,0.9 2,2 v 0 z" />
		<path class="st0" d="M 6.4,15 H 33.6 V 9 H 6.4 Z m 19.8,-4.7 c 0.2,-0.2 0.5,-0.2 0.8,0 l 2.3,2.3 2.3,-2.3 c 0.2,-0.2 0.5,-0.2 0.8,0 0.3,0.2 0.2,0.5 0,0.8 v 0 l -2.7,2.7 c -0.2,0.2 -0.5,0.2 -0.8,0 L 26.2,11 C 26,10.8 26,10.5 26.2,10.3 Z" />
		<path class="st0" d="M 34.494915,22.338983 H 5.3355932 c -0.71309,0 -1.2677966,0.397927 -1.2677966,0.909549 v 0 9.197854 c 0,0.511597 0.554661,0.909547 1.2677966,0.909547 v 0 H 34.494915 c 0.713208,0 1.267797,-0.397927 1.267797,-0.909547 v -9.197854 c 0,-0.51245 -0.554661,-0.909549 -1.267797,-0.909549 z" style="fill:#ffffff;fill-opacity:1" />
	</g>
</g>
</svg>
