<?xml version="1.0" encoding="utf-8"?>
<!-- Generator: Adobe Illustrator 26.0.2, SVG Export Plug-In . SVG Version: 6.00 Build 0)  -->
<svg version="1.1" xmlns="http://www.w3.org/2000/svg" xmlns:xlink="http://www.w3.org/1999/xlink" x="0px" y="0px"
	 viewBox="0 0 54 42" style="enable-background:new 0 0 54 42;" xml:space="preserve">
<style type="text/css">
	.st0{fill:#FFFFFF;}
	.st1{fill:#83889E;}
</style>
<g id="set_block_params">
	<g>
		<!--path class="st0" d="M27,2.76C16.93,2.76,8.76,10.93,8.76,21S16.93,39.24,27,39.24S45.24,31.07,45.24,21S37.07,2.76,27,2.76z"/-->
		<polygon class="st1" points="32.43,10.45 27,8.51 21.57,10.45 27,12.39 		"/>
		<polygon class="st1" points="28,20.04 33,18.25 33,12.37 28,14.16 		"/>
		<path class="st1" d="M27,2.76C16.93,2.76,8.76,10.93,8.76,21S16.93,39.24,27,39.24S45.24,31.07,45.24,21S37.07,2.76,27,2.76z
			 M19,10.66c0-0.85,0.53-1.6,1.33-1.89l6-2.14c0.43-0.16,0.91-0.16,1.34,0l6,2.14C34.44,9.06,35,9.81,35,10.66v7.59
			c0,0.85-0.56,1.6-1.33,1.89l-6,2.14c-0.43,0.16-0.91,0.16-1.34,0l-6-2.14C19.53,19.85,19,19.1,19,18.25V10.66z M29.8,32.71H18.41
			c-0.68,0-1.22-0.54-1.22-1.22c0-0.68,0.54-1.22,1.22-1.22H29.8c0.68,0,1.22,0.54,1.22,1.22C31.03,32.16,30.48,32.71,29.8,32.71z
			 M29.8,27.82H18.41c-0.68,0-1.22-0.54-1.22-1.22c0-0.68,0.54-1.22,1.22-1.22H29.8c0.68,0,1.22,0.54,1.22,1.22
			C31.03,27.28,30.48,27.82,29.8,27.82z M36.67,30.68l-2.13,2.13c-0.18,0.19-0.49,0.19-0.67,0l-1.18-1.18
			c-0.19-0.18-0.19-0.49,0-0.67c0.18-0.19,0.49-0.19,0.67,0l0.85,0.85l1.8-1.8c0.18-0.19,0.49-0.19,0.67,0
			C36.86,30.19,36.86,30.49,36.67,30.68z M36.67,25.85l-2.13,2.13c-0.18,0.19-0.49,0.19-0.67,0l-1.18-1.18
			c-0.19-0.18-0.19-0.49,0-0.67c0.18-0.19,0.49-0.19,0.67,0l0.85,0.85l1.8-1.8c0.18-0.19,0.49-0.19,0.67,0
			C36.86,25.36,36.86,25.66,36.67,25.85z"/>
	</g>
</g>
</svg>
