<?xml version="1.0" encoding="UTF-8" standalone="no"?>
<!-- Generator: Adobe Illustrator 23.0.1, SVG Export Plug-In . SVG Version: 6.00 Build 0)  -->
<!-- 
Copyright (c) 2025 Bloxtor (http://bloxtor.com) and Joao Pinto (http://jplpinto.com)

Multi-licensed: BSD 3-Clause | Apache 2.0 | GNU LGPL v3 | HLNC License (http://bloxtor.com/LICENSE_HLNC.md)
Choose one license that best fits your needs.

Original JQuery Layout UI Editor Repo: https://github.com/a19836/jquerylayoutuieditor/
Original Bloxtor Repo: https://github.com/a19836/bloxtor

YOU ARE NOT AUTHORIZED TO MODIFY OR REMOVE ANY PART OF THIS NOTICE!
-->

<svg
   xmlns:dc="http://purl.org/dc/elements/1.1/"
   xmlns:cc="http://creativecommons.org/ns#"
   xmlns:rdf="http://www.w3.org/1999/02/22-rdf-syntax-ns#"
   xmlns:svg="http://www.w3.org/2000/svg"
   xmlns="http://www.w3.org/2000/svg"
   xmlns:sodipodi="http://sodipodi.sourceforge.net/DTD/sodipodi-0.dtd"
   xmlns:inkscape="http://www.inkscape.org/namespaces/inkscape"
   version="1.1"
   id="Layer_1"
   x="0px"
   y="0px"
   viewBox="0 0 40 40"
   style="enable-background:new 0 0 40 40;"
   xml:space="preserve"
   sodipodi:docname="logo.svg"
   inkscape:version="0.92.3 (2405546, 2018-03-11)"><metadata
   id="metadata16"><rdf:RDF><cc:Work
       rdf:about=""><dc:format>image/svg+xml</dc:format><dc:type
         rdf:resource="http://purl.org/dc/dcmitype/StillImage" /><dc:title>20220503Asset 35</dc:title></cc:Work></rdf:RDF></metadata><defs
   id="defs14" /><sodipodi:namedview
   pagecolor="#ffffff"
   bordercolor="#666666"
   borderopacity="1"
   objecttolerance="10"
   gridtolerance="10"
   guidetolerance="10"
   inkscape:pageopacity="0"
   inkscape:pageshadow="2"
   inkscape:window-width="1366"
   inkscape:window-height="670"
   id="namedview12"
   showgrid="false"
   inkscape:zoom="5.9"
   inkscape:cx="-6.9491525"
   inkscape:cy="20"
   inkscape:window-x="0"
   inkscape:window-y="27"
   inkscape:window-maximized="1"
   inkscape:current-layer="Layer_1" />
<style
   type="text/css"
   id="style2">
	.st0{fill:#83889E;}
</style>
<title
   id="title4">20220503Asset 35</title>
<g
   id="g9"
   transform="matrix(0.61016949,0,0,0.60169493,7.9661021,8.3050853)">
	<g
   id="text">
		<path
   class="st0"
   d="M 38.4,0 H 1.6 C 0.7,0 0,0.7 0,1.6 v 0 36.8 C 0,39.3 0.7,40 1.6,40 v 0 H 38.4 C 39.3,40 40,39.3 40,38.4 V 1.6 C 40,0.7 39.3,0 38.4,0 Z m -9.2,15 c 0,1 -0.8,1.8 -1.8,1.8 -1,0 -1.8,-0.8 -1.8,-1.8 v 0 -1.8 h -3.7 v 13.7 h 1.8 c 1,0 1.8,0.8 1.8,1.8 0,1 -0.8,1.8 -1.8,1.8 v 0 h -7.4 c -1,0 -1.8,-0.8 -1.8,-1.8 0,-1 0.8,-1.8 1.8,-1.8 h 1.8 V 13.1 H 14.4 V 15 c 0,1 -0.8,1.8 -1.8,1.8 -1,0 -1.8,-0.8 -1.8,-1.8 v 0 -3.7 c 0,-1 0.8,-1.8 1.8,-1.8 v 0 h 14.7 c 1,0 1.8,0.8 1.8,1.8 V 15 Z"
   id="path6"
   inkscape:connector-curvature="0" />
	</g>
</g>
<path
   inkscape:connector-curvature="0"
   class="st0"
   d="M 38.569491,5.7627118e-7 H 1.7694915 C 0.86949154,5.7627118e-7 0.16949154,0.70000018 0.16949154,1.6000002 v 0 36.8000008 c 0,0.9 0.7,1.6 1.59999996,1.6 v 0 H 38.569491 c 0.9,0 1.6,-0.7 1.6,-1.6 V 1.6000002 c 0,-0.90000002 -0.7,-1.59999962372882 -1.6,-1.59999962372882 z M 34.369491,33.2 c 0,0.7 -0.5,1.2 -1.2,1.2 H 7.1694915 c -0.7,0 -1.2,-0.5 -1.2,-1.2 V 7.2000002 c 0,-0.7 0.5,-1.2 1.2,-1.2 H 33.169491 c 0.7,0 1.2,0.5 1.2,1.2 z"
   id="path6-6" /></svg>
