<?xml version="1.0" encoding="UTF-8" standalone="no"?>
<!-- Generator: Adobe Illustrator 23.0.1, SVG Export Plug-In . SVG Version: 6.00 Build 0)  -->

<svg
   xmlns:dc="http://purl.org/dc/elements/1.1/"
   xmlns:cc="http://creativecommons.org/ns#"
   xmlns:rdf="http://www.w3.org/1999/02/22-rdf-syntax-ns#"
   xmlns:svg="http://www.w3.org/2000/svg"
   xmlns="http://www.w3.org/2000/svg"
   xmlns:sodipodi="http://sodipodi.sourceforge.net/DTD/sodipodi-0.dtd"
   xmlns:inkscape="http://www.inkscape.org/namespaces/inkscape"
   version="1.1"
   id="Layer_1"
   x="0px"
   y="0px"
   viewBox="0 0 40 40"
   style="enable-background:new 0 0 40 40;"
   xml:space="preserve"
   sodipodi:docname="logo.svg"
   inkscape:version="0.92.3 (2405546, 2018-03-11)"><metadata
   id="metadata16"><rdf:RDF><cc:Work
       rdf:about=""><dc:format>image/svg+xml</dc:format><dc:type
         rdf:resource="http://purl.org/dc/dcmitype/StillImage" /></cc:Work></rdf:RDF></metadata><defs
   id="defs14" /><sodipodi:namedview
   pagecolor="#ffffff"
   bordercolor="#666666"
   borderopacity="1"
   objecttolerance="10"
   gridtolerance="10"
   guidetolerance="10"
   inkscape:pageopacity="0"
   inkscape:pageshadow="2"
   inkscape:window-width="1366"
   inkscape:window-height="670"
   id="namedview12"
   showgrid="false"
   inkscape:zoom="8.34386"
   inkscape:cx="-4.073798"
   inkscape:cy="27.79776"
   inkscape:window-x="0"
   inkscape:window-y="27"
   inkscape:window-maximized="1"
   inkscape:current-layer="Layer_1" />
<style
   type="text/css"
   id="style2">
	.st0{fill:#83889E;}
</style>
<title
   id="title4">20220503Asset 41</title>
<g
   id="g9">
	<g
   id="container_3_x_4">
		<path
   class="st0"
   d="M 38.4,0 H 1.6 C 0.7,0 0,0.7 0,1.6 v 0 36.8 C 0,39.3 0.7,40 1.6,40 v 0 H 38.4 C 39.3,40 40,39.3 40,38.4 V 1.6 C 40,0.7 39.3,0 38.4,0 Z"
   id="path6"
   inkscape:connector-curvature="0"
   style="fill:#83889e"
   sodipodi:nodetypes="ssccsccssss" />
	</g>
</g>
<path
   inkscape:connector-curvature="0"
   style="opacity:1;fill:#ffffff;stroke-width:0.03125"
   d="m 23.095038,14.801171 a 1.5000001,1.5000001 0 1 0 -2.954846,-0.51854 1.5000001,1.5000001 0 1 0 2.954846,0.51854 z m -2.247006,12.804334 a 1.5000001,1.5000001 0 1 0 -2.954846,-0.518541 1.5000001,1.5000001 0 1 0 2.954846,0.518541 z m -7.015357,-6.307517 a 1.5000001,1.5000001 0 1 0 0.518541,-2.954846 1.5000001,1.5000001 0 1 0 -0.518541,2.954846 z m 14.541027,1.028854 a 1.5,1.5 0 1 0 -2.954846,-0.518541 1.5,1.5 0 1 0 2.954846,0.518541 z M 16.03527,25.90428 a 1.5003925,1.5003925 0 1 0 -1.723179,-2.456698 1.5003925,1.5003925 0 1 0 1.723179,2.456698 z m 1.589109,-9.055374 a 1.5,1.5 0 1 0 -1.723719,-2.453618 1.5003922,1.5003922 0 1 0 1.723179,2.456697 z m 5.373247,10.277183 a 1.5003925,1.5003925 0 1 0 2.456698,-1.723179 1.5003925,1.5003925 0 1 0 -2.456698,1.723179 z"
   id="path2" /></svg>