<?xml version="1.0" encoding="utf-8"?>
<!-- Generator: Adobe Illustrator 23.0.1, SVG Export Plug-In . SVG Version: 6.00 Build 0)  -->
<!-- 
Copyright (c) 2025 Bloxtor (http://bloxtor.com) and Joao Pinto (http://jplpinto.com)

Multi-licensed: BSD 3-Clause | Apache 2.0 | GNU LGPL v3 | HLNC License (http://bloxtor.com/LICENSE_HLNC.md)
Choose one license that best fits your needs.

Original JQuery Layout UI Editor Repo: https://github.com/a19836/jquerylayoutuieditor/
Original Bloxtor Repo: https://github.com/a19836/bloxtor

YOU ARE NOT AUTHORIZED TO MODIFY OR REMOVE ANY PART OF THIS NOTICE!
-->
<svg version="1.1" id="Layer_1" xmlns="http://www.w3.org/2000/svg" xmlns:xlink="http://www.w3.org/1999/xlink" x="0px" y="0px"
	 viewBox="0 0 40 40" style="enable-background:new 0 0 40 40;" xml:space="preserve">
<style type="text/css">
	.st0{fill:#83889E;}
</style>
<title>20220503Asset 28</title>
<g>
	<g id="link">
		<path class="st0" d="M38.4,0H1.6C0.7,0,0,0.7,0,1.6l0,0v36.8C0,39.3,0.7,40,1.6,40l0,0h36.8c0.9,0,1.6-0.7,1.6-1.6V1.6
			C40,0.7,39.3,0,38.4,0L38.4,0z M16.7,29.6L16.7,29.6c-3.1,2.2-7.2,1.5-9.4-1.5c-1.9-2.7-1.6-6.3,0.7-8.6l5.2-5.2
			c2.6-2.6,6.9-2.5,9.5,0.1c2.3,2.3,2.5,5.9,0.7,8.5L23.3,23c-0.5,0.6-1.5,0.7-2.1,0.2s-0.7-1.3-0.3-1.9l0.1-0.1
			c1.2-1.7,0.8-4-0.9-5.2c-1.5-1.1-3.5-0.9-4.8,0.4l-5.2,5.2c-1.4,1.5-1.3,3.8,0.1,5.3c1.3,1.2,3.2,1.4,4.6,0.4l0.1-0.1
			c0.7-0.4,1.6-0.3,2.1,0.4C17.5,28.2,17.3,29.1,16.7,29.6z M32,20.5l-5.2,5.2c-2.6,2.6-6.8,2.6-9.4,0c-2.3-2.3-2.6-6-0.7-8.6
			l0.1-0.1c0.5-0.7,1.4-0.8,2.1-0.3s0.8,1.4,0.3,2.1L19,18.9c-1.2,1.7-0.8,4,0.8,5.2c1.5,1.1,3.5,0.9,4.8-0.4l5.2-5.2
			c1.5-1.5,1.5-3.8,0-5.3c-1.3-1.3-3.3-1.5-4.8-0.4v0.1c-0.7,0.5-1.6,0.3-2.1-0.3c-0.5-0.7-0.3-1.6,0.3-2.1l0,0l0.1-0.1
			c3-2.1,7.2-1.4,9.3,1.6C34.6,14.6,34.3,18.2,32,20.5z"/>
	</g>
</g>
</svg>
