<?xml version="1.0" encoding="utf-8"?>
<!-- Generator: Adobe Illustrator 26.0.2, SVG Export Plug-In . SVG Version: 6.00 Build 0)  -->
<!-- 
Copyright (c) 2025 Bloxtor (http://bloxtor.com) and Joao Pinto (http://jplpinto.com)

Multi-licensed: BSD 3-Clause | Apache 2.0 | GNU LGPL v3 | HLNC License (http://bloxtor.com/LICENSE_HLNC.md)
Choose one license that best fits your needs.

Original Bloxtor Repo: https://github.com/a19836/bloxtor

YOU ARE NOT AUTHORIZED TO MODIFY OR REMOVE ANY PART OF THIS NOTICE!
-->
<svg version="1.1" xmlns="http://www.w3.org/2000/svg" xmlns:xlink="http://www.w3.org/1999/xlink" x="0px" y="0px"
	 viewBox="0 0 54 42" style="enable-background:new 0 0 54 42;" xml:space="preserve">
<style type="text/css">
	.st0{fill:#FFFFFF;}
	.st1{fill:#83889E;}
</style>
<g id="echo_inline_html">
	<g>
		<!--path class="st0" d="M41.48,36.59c3.07,0,5.57-2.49,5.57-5.57V10.98c0-3.08-2.49-5.57-5.57-5.57H12.52
			c-3.07,0-5.57,2.49-5.57,5.57v20.04c0,3.08,2.49,5.57,5.57,5.57h26.73H41.48z"/-->
		<path class="st1" d="M41.48,36.59c3.07,0,5.57-2.49,5.57-5.57V10.98c0-3.08-2.49-5.57-5.57-5.57H12.52
			c-3.07,0-5.57,2.49-5.57,5.57v20.04c0,3.08,2.49,5.57,5.57,5.57h26.73H41.48z M39.42,32.14H12.52c-0.62,0-1.11-0.5-1.11-1.11
			V10.98c0-0.61,0.5-1.11,1.11-1.11h28.95c0.62,0,1.11,0.5,1.11,1.11v20.04c0,0.61-0.5,1.11-1.11,1.11H39.42z"/>
		<g>
			<path class="st1" d="M30.32,15.14c-0.42-0.42-0.42-1.1,0-1.52c0.42-0.42,1.1-0.42,1.52,0l6.46,6.46c0.42,0.42,0.42,1.1,0,1.52
				l-6.46,6.46c-0.42,0.42-1.1,0.42-1.52,0c-0.42-0.42-0.42-1.1,0-1.52l5.7-5.7L30.32,15.14z"/>
			<path class="st1" d="M23.68,26.54c0.42,0.42,0.42,1.1,0,1.52c-0.42,0.42-1.1,0.42-1.52,0L15.7,21.6c-0.42-0.42-0.42-1.1,0-1.52
				l6.46-6.46c0.42-0.42,1.1-0.42,1.52,0c0.42,0.42,0.42,1.1,0,1.52l-5.7,5.7L23.68,26.54z"/>
		</g>
	</g>
</g>
</svg>
