<?xml version="1.0" encoding="utf-8"?>
<!-- Generator: Adobe Illustrator 26.0.2, SVG Export Plug-In . SVG Version: 6.00 Build 0)  -->
<svg version="1.1" xmlns="http://www.w3.org/2000/svg" xmlns:xlink="http://www.w3.org/1999/xlink" x="0px" y="0px"
	 viewBox="0 0 54 42" style="enable-background:new 0 0 54 42;" xml:space="preserve">
<style type="text/css">
	.st0{fill:#FFFFFF;}
	.st1{fill:#83889E;}
</style>
<g id="set_sql_query">
	<g>
		<!--path class="st0" d="M27,2.76C16.93,2.76,8.76,10.93,8.76,21S16.93,39.24,27,39.24S45.24,31.07,45.24,21S37.07,2.76,27,2.76z"/-->
		<path class="st1" d="M30.33,13.16l-1.69,1.69c-0.12,0.12-0.12,0.33,0,0.45c0.06,0.06,0.14,0.09,0.23,0.09
			c0.08,0,0.16-0.03,0.23-0.09l1.91-1.91c0.12-0.12,0.12-0.33,0-0.45l-1.91-1.91c-0.12-0.12-0.33-0.12-0.45,0s-0.12,0.33,0,0.45
			L30.33,13.16z"/>
		<path class="st1" d="M24.89,15.3c0.06,0.06,0.14,0.09,0.23,0.09c0.08,0,0.16-0.03,0.23-0.09c0.12-0.12,0.12-0.33,0-0.45
			l-1.69-1.69l1.69-1.69c0.12-0.12,0.12-0.33,0-0.45c-0.12-0.12-0.33-0.12-0.45,0l-1.91,1.91c-0.12,0.12-0.12,0.33,0,0.45
			L24.89,15.3z"/>
		<path class="st1" d="M26.13,15.58c0.17,0.06,0.35-0.03,0.41-0.19l1.51-4.16c0.06-0.17-0.02-0.35-0.19-0.41
			c-0.17-0.06-0.35,0.02-0.41,0.19l-1.41,3.86l-0.1,0.29C25.88,15.33,25.96,15.52,26.13,15.58z"/>
		<path class="st1" d="M26.99,2.76C16.92,2.77,8.76,10.94,8.76,21.01c0.01,10.07,8.18,18.23,18.25,18.22s18.23-8.18,18.22-18.25
			C45.23,10.92,37.06,2.76,26.99,2.76z M26.99,8.05c3.04,0,5.5,2.46,5.5,5.49c0,1.42-0.54,2.71-1.42,3.69l-8.15,0.01
			c-0.88-0.97-1.42-2.27-1.42-3.69C21.5,10.52,23.95,8.06,26.99,8.05z M19.9,18.02c0-0.52,0.44-1.01,1.21-1.41
			c0.14,0.3,0.31,0.58,0.5,0.86l-0.1,0.55L32.43,18l-0.09-0.47c0.21-0.3,0.39-0.61,0.55-0.94c0.76,0.4,1.21,0.89,1.21,1.41l0,1.52
			c0,1.4-3.18,2.54-7.1,2.54c-3.92,0-7.1-1.13-7.1-2.53L19.9,18.02z M19.9,21.38c0.47,0.37,1.08,0.67,1.74,0.91
			c1.42,0.51,3.32,0.8,5.36,0.8c2.04,0,3.94-0.3,5.36-0.81c0.63-0.23,1.26-0.54,1.74-0.91l0,3.23c0,1.4-3.18,2.54-7.1,2.54
			c-3.92,0-7.1-1.13-7.1-2.53L19.9,21.38z M27.01,31.71c-3.92,0-7.1-1.13-7.1-2.53l0-2.72c0.47,0.37,1.08,0.67,1.74,0.91
			c1.42,0.51,3.32,0.8,5.36,0.8s3.94-0.3,5.36-0.81c0.63-0.23,1.26-0.54,1.74-0.91l0,2.72C34.11,30.57,30.93,31.71,27.01,31.71z"/>
	</g>
</g>
</svg>
