<?xml version="1.0" encoding="utf-8"?>
<!-- 
Copyright (c) 2025 Bloxtor (http://bloxtor.com) and Joao Pinto (http://jplpinto.com)

Multi-licensed: BSD 3-Clause | Apache 2.0 | GNU LGPL v3 | HLNC License (http://bloxtor.com/LICENSE_HLNC.md)
Choose one license that best fits your needs.

Original JQuery Layout UI Editor Repo: https://github.com/a19836/jquerylayoutuieditor/
Original Bloxtor Repo: https://github.com/a19836/bloxtor

YOU ARE NOT AUTHORIZED TO MODIFY OR REMOVE ANY PART OF THIS NOTICE!
-->
<svg xmlns="http://www.w3.org/2000/svg" viewBox="0 0 40 40">
<defs>
<style>.cls-1{fill:#83889E;}.cls-2{fill:#fff;}</style>
</defs>
<title>20220503Asset 6240px</title>
	<g id="Layer_2" data-name="Layer 2">
		<g id="include_JS_tag_or_file" data-name="include JS tag or file">
			<rect class="cls-1" width="40" height="40" rx="1.62"/>
			<path class="cls-2" d="M28.41,9.29H11.59a2.3,2.3,0,0,0-2.3,2.3V28.41a2.3,2.3,0,0,0,2.3,2.3H28.41a2.3,2.3,0,0,0,2.3-2.3V11.59A2.3,2.3,0,0,0,28.41,9.29ZM21,26a2.74,2.74,0,0,1-3,3,3.13,3.13,0,0,1-3-1.84l1.64-1c.31.56.6,1,1.29,1S18.93,27,18.93,26V19.13h2Zm4.76,3A3.88,3.88,0,0,1,22,27L23.68,26a2.21,2.21,0,0,0,2,1.22c.83,0,1.36-.41,1.36-1s-.54-.93-1.46-1.34l-.51-.22c-1.45-.61-2.41-1.39-2.41-3A2.69,2.69,0,0,1,25.59,19a3,3,0,0,1,2.86,1.61l-1.57,1a1.36,1.36,0,0,0-1.29-.87.88.88,0,0,0-1,.87c0,.6.37.84,1.24,1.22l.5.21c1.71.74,2.67,1.49,2.67,3.17S27.62,29,25.71,29Z"/>
		</g>
	</g>
</svg>
