<?xml version="1.0" encoding="utf-8"?>
<!-- Generator: Adobe Illustrator 23.0.1, SVG Export Plug-In . SVG Version: 6.00 Build 0)  -->
<svg version="1.1" id="Layer_1" xmlns="http://www.w3.org/2000/svg" xmlns:xlink="http://www.w3.org/1999/xlink" x="0px" y="0px"
	 viewBox="0 0 40 40" style="enable-background:new 0 0 40 40;" xml:space="preserve">
<style type="text/css">
	.st0{fill:#83889E;}
</style>
<title>20220503Asset 11</title>
<g>
	<g id="th_head_cell">
		<rect x="8.2" y="8.2" class="st0" width="9.8" height="9.8"/>
		<rect x="20.4" y="8.2" class="st0" width="2.7" height="6.3"/>
		<path class="st0" d="M20.4,19.2c0,0.7-0.5,1.2-1.2,1.2h-2.3v2.7h6.3v-6.3h-2.7L20.4,19.2L20.4,19.2z"/>
		<rect x="8.2" y="20.4" class="st0" width="6.3" height="2.7"/>
		<rect x="8.2" y="25.5" class="st0" width="6.3" height="6.3"/>
		<rect x="16.9" y="25.5" class="st0" width="6.3" height="6.3"/>
		<rect x="25.5" y="8.2" class="st0" width="6.3" height="6.3"/>
		<rect x="25.5" y="25.5" class="st0" width="6.3" height="6.3"/>
		<rect x="25.5" y="16.9" class="st0" width="6.3" height="6.3"/>
		<path class="st0" d="M38.4,0H1.6C0.7,0,0,0.7,0,1.6l0,0v36.8C0,39.3,0.7,40,1.6,40l0,0h36.8c0.9,0,1.6-0.7,1.6-1.6V1.6
			C40,0.7,39.3,0,38.4,0L38.4,0z M34.2,15.7V33c0,0.7-0.5,1.2-1.2,1.2H7c-0.7,0-1.2-0.5-1.2-1.2V7c0-0.7,0.5-1.2,1.2-1.2h26
			c0.7,0,1.2,0.5,1.2,1.2V15.7z"/>
	</g>
</g>
</svg>
