<?xml version="1.0" encoding="utf-8"?>
<!-- Generator: Adobe Illustrator 23.0.1, SVG Export Plug-In . SVG Version: 6.00 Build 0)  -->
<!-- 
Copyright (c) 2025 Bloxtor (http://bloxtor.com) and Joao Pinto (http://jplpinto.com)

Multi-licensed: BSD 3-Clause | Apache 2.0 | GNU LGPL v3 | HLNC License (http://bloxtor.com/LICENSE_HLNC.md)
Choose one license that best fits your needs.

Original JQuery Layout UI Editor Repo: https://github.com/a19836/jquerylayoutuieditor/
Original Bloxtor Repo: https://github.com/a19836/bloxtor

YOU ARE NOT AUTHORIZED TO MODIFY OR REMOVE ANY PART OF THIS NOTICE!
-->
<svg version="1.1" id="Layer_1" xmlns="http://www.w3.org/2000/svg" xmlns:xlink="http://www.w3.org/1999/xlink" x="0px" y="0px"
	 viewBox="0 0 40 40" style="enable-background:new 0 0 40 40;" xml:space="preserve">
<style type="text/css">
	.st0{fill:#83889E;}
</style>
<title>20220503Asset 26</title>
<g>
	<g id="image">
		<path class="st0" d="M13.3,17c1.2,0,2.2-1,2.2-2.2c0,0,0,0,0-0.1c0-1.2-1-2.2-2.2-2.2l0,0c-1.2,0-2.2,1-2.2,2.2
			C11,16,12,17,13.3,17L13.3,17z"/>
		<path class="st0" d="M22.9,17.4c-0.1-0.2-0.4-0.3-0.6-0.3c-0.3,0-0.5,0.1-0.6,0.4L17.4,24l-1.5-2.1c-0.1-0.2-0.4-0.3-0.6-0.3
			c-0.2,0-0.5,0.1-0.6,0.3l-3.2,4.5c-0.2,0.3-0.2,0.8,0.2,1c0.1,0.1,0.3,0.1,0.4,0.1h16.2c0.3,0,0.5-0.2,0.7-0.4
			c0.1-0.2,0.1-0.5,0-0.8L22.9,17.4z"/>
		<path class="st0" d="M38.4,0H1.6C0.7,0,0,0.7,0,1.6l0,0v36.8C0,39.3,0.7,40,1.6,40l0,0h36.8c0.9,0,1.6-0.7,1.6-1.6V1.6
			C40,0.7,39.3,0,38.4,0L38.4,0z M31.9,27.4c0,1.6-1.3,3-3,3l0,0H11.1c-1.6,0-2.9-1.3-2.9-3V12.6c0-1.6,1.3-3,2.9-3h17.8
			c1.6,0,3,1.3,3,2.9c0,0,0,0,0,0.1C31.9,12.6,31.9,27.4,31.9,27.4z"/>
	</g>
</g>
</svg>
