<?xml version="1.0" encoding="UTF-8" standalone="no"?>
<!-- Generator: Adobe Illustrator 23.0.1, SVG Export Plug-In . SVG Version: 6.00 Build 0)  -->

<svg
   xmlns:dc="http://purl.org/dc/elements/1.1/"
   xmlns:cc="http://creativecommons.org/ns#"
   xmlns:rdf="http://www.w3.org/1999/02/22-rdf-syntax-ns#"
   xmlns:svg="http://www.w3.org/2000/svg"
   xmlns="http://www.w3.org/2000/svg"
   xmlns:sodipodi="http://sodipodi.sourceforge.net/DTD/sodipodi-0.dtd"
   xmlns:inkscape="http://www.inkscape.org/namespaces/inkscape"
   version="1.1"
   id="Layer_1"
   x="0px"
   y="0px"
   viewBox="0 0 40 40"
   style="enable-background:new 0 0 40 40;"
   xml:space="preserve"
   sodipodi:docname="logo.svg"
   inkscape:version="0.92.3 (2405546, 2018-03-11)"><metadata
   id="metadata18"><rdf:RDF><cc:Work
       rdf:about=""><dc:format>image/svg+xml</dc:format><dc:type
         rdf:resource="http://purl.org/dc/dcmitype/StillImage" /></cc:Work></rdf:RDF></metadata><defs
   id="defs16" /><sodipodi:namedview
   pagecolor="#ffffff"
   bordercolor="#666666"
   borderopacity="1"
   objecttolerance="10"
   gridtolerance="10"
   guidetolerance="10"
   inkscape:pageopacity="0"
   inkscape:pageshadow="2"
   inkscape:window-width="1366"
   inkscape:window-height="670"
   id="namedview14"
   showgrid="false"
   inkscape:zoom="5.9"
   inkscape:cx="14.661017"
   inkscape:cy="20"
   inkscape:window-x="0"
   inkscape:window-y="27"
   inkscape:window-maximized="1"
   inkscape:current-layer="Layer_1" />
<style
   type="text/css"
   id="style2">
	.st0{fill:#83889E;}
</style>
<title
   id="title4">20220503Asset 36</title>
<g
   id="g11">
	<g
   id="dropdown">
		<path
   class="st0"
   d="M 38.4,0 H 1.6 C 0.7,0 0,0.7 0,1.6 v 0 36.8 C 0,39.3 0.7,40 1.6,40 v 0 H 38.4 C 39.3,40 40,39.3 40,38.4 V 1.6 C 40,0.7 39.3,0 38.4,0 Z"
   id="path6"
   inkscape:connector-curvature="0"
   style="fill:#83889e"
   sodipodi:nodetypes="ssccsccssss" />
		<path
   class="st0"
   d="M6.4,23h27.2v-6H6.4V23z M26.2,18.3c0.2-0.2,0.5-0.2,0.8,0l2.3,2.3l2.3-2.3c0.2-0.2,0.5-0.2,0.8,0    s0.2,0.5,0,0.8l0,0l-2.7,2.7c-0.2,0.2-0.5,0.2-0.8,0L26.2,19C26,18.8,26,18.5,26.2,18.3z"
   id="path8" />
	</g>
</g>
<path
   inkscape:connector-curvature="0"
   style="opacity:1;fill:#ffffff;stroke-width:0.04545302"
   d="m 24.661122,10.453128 5.60109,6.09512 c 2.296534,2.498387 2.296534,6.514661 0,9.013046 l -4.908623,5.340891 c -0.407591,0.44311 -1.073761,0.447823 -1.485735,0.0095 -0.411974,-0.438472 -0.416356,-1.154989 -0.0087,-1.5981 l 4.90424,-5.34089 c 1.485735,-1.61688 1.485735,-4.214259 0,-5.831139 l -5.596707,-6.09512 c -0.407592,-0.44311 -0.403208,-1.159629 0.0088,-1.598024 0.411974,-0.438396 1.078144,-0.433682 1.485735,0.0094 z M 9.5408098,19.428463 v -7.047335 c 0,-1.249193 0.9422812,-2.262689 2.1036962,-2.262689 h 6.552135 c 0.745059,0 1.459439,0.315834 1.985363,0.881506 l 7.362935,7.919413 c 1.095674,1.178484 1.095674,3.087628 0,4.266112 l -5.850904,6.293106 c -1.095675,1.178484 -2.870668,1.178484 -3.966343,0 L 10.364758,21.559162 C 9.8344508,20.99349 9.5408098,20.229833 9.5408098,19.428463 Z m 6.3110872,-4.030415 a 1.402464,1.5084598 0 1 0 -2.804928,0 1.402464,1.5084598 0 1 0 2.804928,0 z"
   id="path2" /></svg>