<?xml version="1.0" encoding="utf-8"?>
<!-- Generator: Adobe Illustrator 26.0.2, SVG Export Plug-In . SVG Version: 6.00 Build 0)  -->
<!-- 
Copyright (c) 2025 Bloxtor (http://bloxtor.com) and Joao Pinto (http://jplpinto.com)

Multi-licensed: BSD 3-Clause | Apache 2.0 | GNU LGPL v3 | HLNC License (http://bloxtor.com/LICENSE_HLNC.md)
Choose one license that best fits your needs.

Original Bloxtor Repo: https://github.com/a19836/bloxtor

YOU ARE NOT AUTHORIZED TO MODIFY OR REMOVE ANY PART OF THIS NOTICE!
-->
<svg version="1.1" xmlns="http://www.w3.org/2000/svg" xmlns:xlink="http://www.w3.org/1999/xlink" x="0px" y="0px"
	 viewBox="0 0 54 42" style="enable-background:new 0 0 54 42;" xml:space="preserve">
<style type="text/css">
	.st0{fill:#FFFFFF;}
	.st1{fill:#4070FF;}
</style>
<g id="call_presentation_layer_web_service">
	<path class="st0" d="M46.36,18.63c-0.14-1.09-1-2.03-2.08-2.16l-2.72-0.65c-0.65-1.82-1.62-3.48-2.86-4.92l0.86-2.62
		c0.35-1.04,0.06-2.21-0.82-2.87c-0.55-0.41-1.11-0.89-1.69-1.15l-0.62-0.35c-0.58-0.33-1.18-0.62-1.8-0.88
		c-1.11-0.43-2.17-0.09-2.9,0.72l-1.84,2.06c-0.94-0.18-1.9-0.27-2.89-0.27s-1.95,0.09-2.89,0.27l-1.84-2.06
		c-0.84-0.81-1.89-1.15-2.9-0.72c-0.72,0.27-1.22,0.56-1.8,0.88l-0.62,0.35c-0.58,0.26-1.15,0.74-1.69,1.15
		c-0.88,0.66-1.17,1.82-0.82,2.87l0.86,2.62c-1.24,1.43-2.22,3.1-2.86,4.92l-2.72,0.65c-1.08,0.13-1.94,1.07-2.08,2.16
		C7.54,19.41,7.5,20.2,7.5,21s0.05,1.59,0.14,2.37c0.14,1.09,1,1.93,2.08,2.05l2.68,0.64c0.65,1.87,1.64,3.57,2.9,5.03l-0.86,2.62
		c-0.35,1.04-0.06,2.21,0.82,2.87c0.55,0.41,1.1,0.68,1.68,1.14l0.63,0.36c0.58,0.33,1.18,0.62,1.8,0.88
		c1.01,0.43,2.07,0.09,2.9-0.72l1.84-2.06c0.94,0.18,1.9,0.27,2.89,0.27c0.99,0,1.95-0.09,2.89-0.27l1.84,2.06
		c0.73,0.81,1.79,1.15,2.9,0.72c0.51-0.27,1.22-0.56,1.8-0.88l0.63-0.36c0.58-0.45,1.14-0.73,1.68-1.14
		c0.88-0.66,1.17-1.82,0.82-2.87l-0.86-2.62c1.26-1.46,2.26-3.17,2.9-5.03l2.68-0.64c1.08-0.13,1.94-0.96,2.08-2.05
		c0.09-0.78,0.14-1.57,0.14-2.37S46.46,19.41,46.36,18.63z"/>
	<path class="st1" d="M46.36,18.63c-0.14-1.09-1-2.03-2.08-2.16l-2.72-0.65c-0.65-1.82-1.62-3.48-2.86-4.92l0.86-2.62
		c0.35-1.04,0.06-2.21-0.82-2.87c-0.55-0.41-1.11-0.89-1.69-1.15l-0.62-0.35c-0.58-0.33-1.18-0.62-1.8-0.88
		c-1.11-0.43-2.17-0.09-2.9,0.72l-1.84,2.06c-0.94-0.18-1.9-0.27-2.89-0.27s-1.95,0.09-2.89,0.27l-1.84-2.06
		c-0.84-0.81-1.89-1.15-2.9-0.72c-0.72,0.27-1.22,0.56-1.8,0.88l-0.62,0.35c-0.58,0.26-1.15,0.74-1.69,1.15
		c-0.88,0.66-1.17,1.82-0.82,2.87l0.86,2.62c-1.24,1.43-2.22,3.1-2.86,4.92l-2.72,0.65c-1.08,0.13-1.94,1.07-2.08,2.16
		C7.54,19.41,7.5,20.2,7.5,21s0.05,1.59,0.14,2.37c0.14,1.09,1,1.93,2.08,2.05l2.68,0.64c0.65,1.87,1.64,3.57,2.9,5.03l-0.86,2.62
		c-0.35,1.04-0.06,2.21,0.82,2.87c0.55,0.41,1.1,0.68,1.68,1.14l0.63,0.36c0.58,0.33,1.18,0.62,1.8,0.88
		c1.01,0.43,2.07,0.09,2.9-0.72l1.84-2.06c0.94,0.18,1.9,0.27,2.89,0.27c0.99,0,1.95-0.09,2.89-0.27l1.84,2.06
		c0.73,0.81,1.79,1.15,2.9,0.72c0.51-0.27,1.22-0.56,1.8-0.88l0.63-0.36c0.58-0.45,1.14-0.73,1.68-1.14
		c0.88-0.66,1.17-1.82,0.82-2.87l-0.86-2.62c1.26-1.46,2.26-3.17,2.9-5.03l2.68-0.64c1.08-0.13,1.94-0.96,2.08-2.05
		c0.09-0.78,0.14-1.57,0.14-2.37S46.46,19.41,46.36,18.63z M36.29,17.24h-4.57c-0.39-2.5-1.17-4.6-2.16-5.93
		C32.63,12.12,35.12,14.34,36.29,17.24z M30.76,21c0,0.87-0.05,1.71-0.13,2.51h-7.26c-0.08-0.8-0.16-1.64-0.16-2.51
		c0-0.87,0.08-1.71,0.16-2.51h7.26C30.71,19.29,30.76,20.13,30.76,21z M25.91,11.52c0.44-0.42,0.8-0.54,1.09-0.54
		s0.65,0.12,1.09,0.54c0.44,0.42,0.9,1.09,1.31,2.02c0.45,1.02,0.82,2.28,1.06,3.71h-6.91c0.24-1.43,0.61-2.69,1.06-3.71
		C25.01,12.61,25.47,11.94,25.91,11.52z M24.44,11.31c-1,1.34-1.77,3.43-2.16,5.93h-4.57C18.88,14.34,21.37,12.12,24.44,11.31z
		 M17.29,23.51c-0.21-0.8-0.32-1.64-0.32-2.51c0-0.87,0.11-1.7,0.32-2.51h4.82c-0.08,0.81-0.16,1.64-0.16,2.51
		c0,0.83,0.08,1.7,0.16,2.51H17.29z M17.71,24.76h4.57c0.39,2.5,1.17,4.6,2.16,5.94C21.37,29.88,18.88,27.66,17.71,24.76z
		 M28.09,30.48c-0.44,0.41-0.8,0.54-1.12,0.54c-0.25,0-0.61-0.13-1.05-0.54c-0.44-0.42-0.9-1.09-1.31-2.02
		c-0.45-1.02-0.82-2.28-1.06-3.7h6.91c-0.24,1.43-0.61,2.69-1.06,3.7C28.99,29.39,28.53,30.06,28.09,30.48z M29.56,30.69
		c1-1.34,1.77-3.43,2.16-5.94h4.57C35.12,27.66,32.63,29.88,29.56,30.69z M36.71,23.51h-4.82c0.08-0.81,0.13-1.68,0.13-2.51
		c0-0.86-0.04-1.7-0.13-2.51h4.82c0.21,0.8,0.32,1.64,0.32,2.51C37.02,21.87,36.91,22.7,36.71,23.51z"/>
</g>
</svg>
