<?xml version="1.0" encoding="utf-8"?>
<!-- Generator: Adobe Illustrator 26.0.2, SVG Export Plug-In . SVG Version: 6.00 Build 0)  -->
<svg version="1.1" xmlns="http://www.w3.org/2000/svg" xmlns:xlink="http://www.w3.org/1999/xlink" x="0px" y="0px"
	 viewBox="0 0 54 42" style="enable-background:new 0 0 54 42;" xml:space="preserve">
<style type="text/css">
	.st0{fill:#FFFFFF;}
	.st1{fill:#83889E;}
</style>
<g id="throw_exception">
	<!--path class="st0" d="M27,2.76C16.93,2.76,8.76,10.93,8.76,21S16.93,39.24,27,39.24S45.24,31.07,45.24,21S37.07,2.76,27,2.76z"/-->
	<path class="st1" d="M27,2.76C16.93,2.76,8.76,10.93,8.76,21S16.93,39.24,27,39.24S45.24,31.07,45.24,21S37.07,2.76,27,2.76z
		 M26.13,15.78c-2.26,0-4.4,1.27-6.03,3.56c-1.72,2.42-2.67,5.68-2.66,9.2c0,0.48-0.39,0.87-0.87,0.87h0
		c-0.48,0-0.87-0.39-0.87-0.87c0-3.87,1.06-7.5,2.99-10.2c1.97-2.77,4.62-4.3,7.45-4.3c0.48,0,0.87,0.39,0.87,0.87
		S26.61,15.78,26.13,15.78z M35.15,15.73c0.27,0.27,0.27,0.71,0,0.98c-0.14,0.14-0.31,0.2-0.49,0.2c-0.18,0-0.36-0.07-0.49-0.2
		l-1.04-1.04l-1.04,1.04c-0.14,0.14-0.31,0.2-0.49,0.2c-0.18,0-0.36-0.07-0.49-0.2c-0.27-0.27-0.27-0.71,0-0.98l1.04-1.04
		l-1.04-1.04c-0.27-0.27-0.27-0.71,0-0.98c0.27-0.27,0.71-0.27,0.98,0l1.04,1.04l1.04-1.04c0.27-0.27,0.71-0.27,0.98,0
		c0.27,0.27,0.27,0.71,0,0.98l-1.04,1.04L35.15,15.73z"/>
</g>
</svg>
