<?xml version="1.0" encoding="utf-8"?>
<!-- Generator: Adobe Illustrator 23.0.1, SVG Export Plug-In . SVG Version: 6.00 Build 0)  -->
<svg version="1.1" id="Layer_1" xmlns="http://www.w3.org/2000/svg" xmlns:xlink="http://www.w3.org/1999/xlink" x="0px" y="0px"
	 viewBox="0 0 40 40" style="enable-background:new 0 0 40 40;" xml:space="preserve">
<style type="text/css">
	.st0{fill:#83889E;}
</style>
<title>20220503Asset 41</title>
<g>
	<g id="container_3_x_4">
		<path class="st0" d="M38.4,0H1.6C0.7,0,0,0.7,0,1.6l0,0v36.8C0,39.3,0.7,40,1.6,40l0,0h36.8c0.9,0,1.6-0.7,1.6-1.6V1.6
			C40,0.7,39.3,0,38.4,0L38.4,0z M12.8,28.7c0,0.4-0.3,0.7-0.7,0.7l0,0H4.7c-0.4,0-0.7-0.3-0.7-0.7l0,0V11.3c0-0.4,0.3-0.7,0.7-0.7
			l0,0h7.4c0.4,0,0.7,0.3,0.7,0.7l0,0V28.7z M24.4,28.7c0,0.4-0.3,0.7-0.7,0.7l0,0h-7.4c-0.4,0-0.7-0.3-0.7-0.7l0,0V11.3
			c0-0.4,0.3-0.7,0.7-0.7l0,0h7.4c0.4,0,0.7,0.3,0.7,0.7l0,0V28.7z M36,28.7c0,0.4-0.3,0.7-0.7,0.7l0,0h-7.4c-0.4,0-0.7-0.3-0.7-0.7
			l0,0V11.3c0-0.4,0.3-0.7,0.7-0.7l0,0h7.4c0.4,0,0.7,0.3,0.7,0.7l0,0V28.7z"/>
	</g>
</g>
</svg>
