<?xml version="1.0" encoding="utf-8"?>
<!-- Generator: Adobe Illustrator 23.0.1, SVG Export Plug-In . SVG Version: 6.00 Build 0)  -->
<svg version="1.1" id="Layer_1" xmlns="http://www.w3.org/2000/svg" xmlns:xlink="http://www.w3.org/1999/xlink" x="0px" y="0px"
	 viewBox="0 0 40 40" style="enable-background:new 0 0 40 40;" xml:space="preserve">
<style type="text/css">
	.st0{fill:#83889E;}
</style>
<title>20220503Asset 37</title>
<g>
	<g id="check_box">
		<path class="st0" d="M23.5,16.1l-5,5L16.4,19c-0.5-0.5-1.3-0.5-1.8,0s-0.5,1.3,0,1.8l3,3c0.5,0.5,1.3,0.5,1.8,0l5.9-5.9
			c0.5-0.5,0.5-1.3,0-1.8S24,15.6,23.5,16.1z"/>
		<path class="st0" d="M38.4,0H1.6C0.7,0,0,0.7,0,1.6l0,0v36.8C0,39.3,0.7,40,1.6,40l0,0h36.8c0.9,0,1.6-0.7,1.6-1.6V1.6
			C40,0.7,39.3,0,38.4,0L38.4,0z M30.4,27.4c0,1.6-1.3,3-3,3l0,0H12.6c-1.6,0-3-1.3-3-3l0,0V12.6c0-1.6,1.3-3,3-3l0,0h14.9
			c1.6,0,3,1.3,3,3l0,0L30.4,27.4L30.4,27.4z"/>
	</g>
</g>
</svg>
